<svg width="20" height="21" viewBox="0 0 20 21" fill="none" xmlns="http://www.w3.org/2000/svg">
<g id="icons / bx-check-circle">
<path id="Vector" d="M9.99984 2.16663C5.40484 2.16663 1.6665 5.90496 1.6665 10.5C1.6665 15.095 5.40484 18.8333 9.99984 18.8333C14.5948 18.8333 18.3332 15.095 18.3332 10.5C18.3332 5.90496 14.5948 2.16663 9.99984 2.16663ZM9.99984 17.1666C6.324 17.1666 3.33317 14.1758 3.33317 10.5C3.33317 6.82413 6.324 3.83329 9.99984 3.83329C13.6757 3.83329 16.6665 6.82413 16.6665 10.5C16.6665 14.1758 13.6757 17.1666 9.99984 17.1666Z" fill="#E87525"/>
<path id="Vector_2" d="M8.33273 11.8226L6.4169 9.91005L5.24023 11.0901L8.3344 14.1776L13.9227 8.58922L12.7444 7.41089L8.33273 11.8226Z" fill="#E87525"/>
</g>
</svg>
