<svg width="32" height="32" viewBox="0 0 32 32" fill="none" xmlns="http://www.w3.org/2000/svg">
<g id="icons / bx-crown">
<path id="Vector" d="M14.9587 4.50006L10.6667 9.86539L6.37467 4.50006C6.02 4.05739 5.424 3.88806 4.892 4.07473C4.35867 4.26273 4 4.76673 4 5.33339V25.3334C4 26.8041 5.196 28.0001 6.66667 28.0001H25.3333C26.804 28.0001 28 26.8041 28 25.3334V5.33339C28 4.76673 27.6413 4.26273 27.108 4.07473C26.5747 3.89073 25.98 4.05873 25.6253 4.50006L21.3333 9.86539L17.0413 4.50006C16.5333 3.86806 15.4667 3.86806 14.9587 4.50006ZM6.66667 25.3334V22.6667H25.3347V25.3334H6.66667ZM20.292 12.8334C20.8 13.4667 21.868 13.4667 22.376 12.8334L25.3333 9.13473L25.3347 20.0001H6.66667V9.13473L9.62533 12.8334C10.1333 13.4667 11.2013 13.4667 11.7093 12.8334L16 7.46806L20.292 12.8334Z" fill="url(#paint0_linear_1_1529)"/>
</g>
<defs>
<linearGradient id="paint0_linear_1_1529" x1="12.6111" y1="3.99976" x2="26.9727" y2="10.0765" gradientUnits="userSpaceOnUse">
<stop stop-color="#0657A6"/>
<stop offset="1" stop-color="#00264B"/>
</linearGradient>
</defs>
</svg>
