<svg width="32" height="32" viewBox="0 0 32 32" fill="none" xmlns="http://www.w3.org/2000/svg">
<g id="icons / bx-dumbbell">
<path id="Vector" d="M8.00033 6.66663V14.6666V17.3333V25.3333H12.0003V17.3333H20.0003V25.3333H24.0003V6.66663H20.0003V14.6666H12.0003V6.66663H8.00033ZM4.00033 20C4.00033 20.7373 4.59633 21.3333 5.33366 21.3333H6.66699V10.6666H5.33366C4.59633 10.6666 4.00033 11.2626 4.00033 12V14.6666H2.66699V17.3333H4.00033V20ZM28.0003 12C28.0003 11.2626 27.4043 10.6666 26.667 10.6666H25.3337V21.3333H26.667C27.4043 21.3333 28.0003 20.7373 28.0003 20V17.3333H29.3337V14.6666H28.0003V12Z" fill="url(#paint0_linear_1_1523)"/>
</g>
<defs>
<linearGradient id="paint0_linear_1_1523" x1="12.2349" y1="6.66663" x2="26.0144" y2="14.9959" gradientUnits="userSpaceOnUse">
<stop stop-color="#F5A871"/>
<stop offset="1" stop-color="#E87525"/>
</linearGradient>
</defs>
</svg>
