<svg width="20" height="20" viewBox="0 0 20 20" fill="none" xmlns="http://www.w3.org/2000/svg">
<g id="icons / bx-search">
<path id="Vector" d="M8.33317 15.0001C9.8715 15.0001 11.2857 14.4709 12.414 13.5934L16.0773 17.2567L17.2557 16.0784L13.5923 12.4151C14.4707 11.2859 14.9998 9.87175 14.9998 8.33341C14.9998 4.65758 12.009 1.66675 8.33317 1.66675C4.65734 1.66675 1.6665 4.65758 1.6665 8.33341C1.6665 12.0092 4.65734 15.0001 8.33317 15.0001ZM8.33317 3.33341C11.0907 3.33341 13.3332 5.57591 13.3332 8.33341C13.3332 11.0909 11.0907 13.3334 8.33317 13.3334C5.57567 13.3334 3.33317 11.0909 3.33317 8.33341C3.33317 5.57591 5.57567 3.33341 8.33317 3.33341Z" fill="#33354D"/>
</g>
</svg>
