<svg width="14" height="15" viewBox="0 0 14 15" fill="none" xmlns="http://www.w3.org/2000/svg">
<g id="star">
<path id="Vector" d="M12.8024 5.85444C12.7272 5.63394 12.5283 5.47819 12.2961 5.4601L8.97053 5.19585L7.53145 2.01027C7.43753 1.80085 7.22928 1.66669 7.00003 1.66669C6.77078 1.66669 6.56253 1.80085 6.46861 2.00969L5.02953 5.19585L1.70395 5.4601C1.47586 5.47819 1.27928 5.6281 1.2017 5.84335C1.12411 6.0586 1.17895 6.29952 1.34286 6.45935L3.80045 8.8551L2.93128 12.6188C2.87761 12.8515 2.97153 13.0936 3.16811 13.2295C3.26845 13.2984 3.38395 13.3334 3.50003 13.3334C3.61261 13.3334 3.72578 13.3007 3.82378 13.2354L7.00003 11.1179L10.1763 13.2354C10.3793 13.3707 10.6459 13.3654 10.8442 13.2214C11.0414 13.0773 11.1283 12.8247 11.0612 12.5902L9.99428 8.85685L12.6403 6.47569C12.8135 6.31935 12.8771 6.07552 12.8024 5.85444Z" fill="#FFBA08"/>
</g>
</svg>
