<svg width="20" height="20" viewBox="0 0 20 20" fill="none" xmlns="http://www.w3.org/2000/svg">
<g id="icons / bxl-youtube">
<path id="Vector" d="M17.9944 6.00259C17.8028 5.28759 17.2403 4.72342 16.5261 4.53092C15.2211 4.17259 10.0003 4.16675 10.0003 4.16675C10.0003 4.16675 4.78027 4.16092 3.47444 4.50342C2.77444 4.69425 2.19611 5.27092 2.00277 5.98509C1.65861 7.29009 1.65527 9.99675 1.65527 9.99675C1.65527 9.99675 1.65194 12.7168 1.99361 14.0084C2.18527 14.7226 2.74777 15.2868 3.46277 15.4793C4.78111 15.8376 9.98777 15.8434 9.98777 15.8434C9.98777 15.8434 15.2086 15.8493 16.5136 15.5076C17.2269 15.3159 17.7919 14.7526 17.9861 14.0384C18.3311 12.7343 18.3336 10.0284 18.3336 10.0284C18.3336 10.0284 18.3503 7.30759 17.9944 6.00259ZM8.33028 12.5043L8.33444 7.50425L12.6736 10.0084L8.33028 12.5043Z" fill="white"/>
</g>
</svg>
