<svg width="18" height="18" viewBox="0 0 18 18" fill="none" xmlns="http://www.w3.org/2000/svg">
<g id="icons / bxl-facebook-square">
<path id="Vector" d="M15 2.25H3C2.58525 2.25 2.25 2.586 2.25 3V15C2.25 15.414 2.58525 15.75 3 15.75H9.46125V10.53H7.70775V8.48625H9.46125V6.98625C9.46125 5.2425 10.5262 4.29225 12.0863 4.29225C12.6105 4.29075 13.1355 4.31775 13.6575 4.3725V6.1875H12.5812C11.7352 6.1875 11.5702 6.591 11.5702 7.18125V8.4825H13.593L13.3305 10.5262H11.5695V15.75H15C15.4148 15.75 15.75 15.414 15.75 15V3C15.75 2.586 15.4148 2.25 15 2.25Z" fill="#33354D"/>
</g>
</svg>
