<svg width="20" height="20" viewBox="0 0 20 20" fill="none" xmlns="http://www.w3.org/2000/svg">
<g id="icons / bxl-instagram">
<path id="Vector" d="M9.99898 6.14746C7.87065 6.14746 6.14648 7.87246 6.14648 9.99996C6.14648 12.1283 7.87065 13.8533 9.99898 13.8533C12.1257 13.8533 13.8515 12.1283 13.8515 9.99996C13.8515 7.87246 12.1257 6.14746 9.99898 6.14746ZM9.99898 12.5033C8.61648 12.5033 7.49565 11.3825 7.49565 10.0008C7.49565 8.61829 8.61648 7.49829 9.99898 7.49829C11.3815 7.49829 12.5007 8.61829 12.5007 10.0008C12.5007 11.3825 11.3815 12.5033 9.99898 12.5033Z" fill="#33354D"/>
<path id="Vector_2" d="M14.0048 6.90409C14.5009 6.90409 14.9031 6.50189 14.9031 6.00575C14.9031 5.50962 14.5009 5.10742 14.0048 5.10742C13.5086 5.10742 13.1064 5.50962 13.1064 6.00575C13.1064 6.50189 13.5086 6.90409 14.0048 6.90409Z" fill="#33354D"/>
<path id="Vector_3" d="M17.1111 5.09248C16.7203 4.08498 15.9245 3.28832 14.917 2.89915C14.3345 2.67998 13.7186 2.56248 13.0953 2.54915C12.2928 2.51415 12.0386 2.50415 10.0036 2.50415C7.96862 2.50415 7.70779 2.50415 6.91195 2.54915C6.29029 2.56165 5.67445 2.67915 5.09195 2.89915C4.08362 3.28832 3.28779 4.08498 2.89779 5.09248C2.67862 5.67582 2.56112 6.29082 2.54862 6.91415C2.51279 7.71582 2.50195 7.96998 2.50195 10.0058C2.50195 12.0408 2.50195 12.3 2.54862 13.0975C2.56112 13.7208 2.67862 14.3358 2.89779 14.92C3.28862 15.9267 4.08445 16.7233 5.09279 17.1133C5.67279 17.34 6.28862 17.4683 6.91362 17.4883C7.71612 17.5233 7.97029 17.5342 10.0053 17.5342C12.0403 17.5342 12.3011 17.5342 13.097 17.4883C13.7195 17.4758 14.3353 17.3575 14.9186 17.1392C15.9261 16.7483 16.722 15.9525 17.1128 14.945C17.332 14.3617 17.4495 13.7467 17.462 13.1233C17.4978 12.3217 17.5086 12.0675 17.5086 10.0317C17.5086 7.99582 17.5086 7.73748 17.462 6.93998C17.4511 6.30832 17.3345 5.68248 17.1111 5.09248ZM16.0961 13.0358C16.0903 13.5158 16.0036 13.9917 15.837 14.4425C15.5828 15.0983 15.0653 15.6166 14.4103 15.8683C13.9645 16.0342 13.4945 16.1208 13.0186 16.1275C12.227 16.1642 12.0036 16.1733 9.97362 16.1733C7.94195 16.1733 7.73445 16.1733 6.92779 16.1275C6.45362 16.1217 5.98195 16.0342 5.53695 15.8683C4.87945 15.6175 4.35862 15.0992 4.10445 14.4425C3.94112 13.9975 3.85279 13.5267 3.84529 13.0517C3.80945 12.26 3.80112 12.0367 3.80112 10.0067C3.80112 7.97582 3.80112 7.76832 3.84529 6.96082C3.85112 6.48082 3.93779 6.00582 4.10445 5.55498C4.35862 4.89748 4.87945 4.37998 5.53695 4.12832C5.98195 3.96332 6.45362 3.87582 6.92779 3.86915C7.72029 3.83332 7.94279 3.82332 9.97362 3.82332C12.0045 3.82332 12.2128 3.82332 13.0186 3.86915C13.4945 3.87498 13.9645 3.96248 14.4103 4.12832C15.0653 4.38082 15.5828 4.89915 15.837 5.55498C16.0003 5.99998 16.0886 6.47082 16.0961 6.94582C16.132 7.73832 16.1411 7.96082 16.1411 9.99165C16.1411 12.0217 16.1411 12.24 16.1053 13.0367H16.0961V13.0358Z" fill="#33354D"/>
</g>
</svg>
