<svg width="18" height="18" viewBox="0 0 18 18" fill="none" xmlns="http://www.w3.org/2000/svg">
<path d="M3.73719 5.39772C4.64349 5.39772 5.37819 4.66302 5.37819 3.75672C5.37819 2.85042 4.64349 2.11572 3.73719 2.11572C2.83089 2.11572 2.09619 2.85042 2.09619 3.75672C2.09619 4.66302 2.83089 5.39772 3.73719 5.39772Z" fill="#33354D"/>
<path d="M6.92779 6.64126V15.7455H9.75454V11.2433C9.75454 10.0553 9.97804 8.90476 11.451 8.90476C12.9038 8.90476 12.9218 10.263 12.9218 11.3183V15.7463H15.75V10.7535C15.75 8.30101 15.222 6.41626 12.3555 6.41626C10.9793 6.41626 10.0568 7.17151 9.67954 7.88626H9.64129V6.64126H6.92779ZM2.32129 6.64126H5.15254V15.7455H2.32129V6.64126Z" fill="#33354D"/>
</svg>
