<svg width="19" height="18" viewBox="0 0 19 18" fill="none" xmlns="http://www.w3.org/2000/svg">
<g clip-path="url(#clip0_80_4321)">
<path d="M0.924969 6.26095C0.649274 7.12467 0.499965 8.04482 0.5 8.99998C0.499965 9.95517 0.649309 10.8754 0.925004 11.7391L9.5 12.1305L18.075 11.7392C18.3507 10.8754 18.5 9.95517 18.5 9.00005C18.5 8.04485 18.3507 7.12467 18.075 6.26092L9.5 5.86963L0.924969 6.26095Z" fill="#F0F0F0"/>
<path d="M18.0749 6.26092L9.49991 5.86963L0.924875 6.26092C0.843172 6.517 0.772824 6.7781 0.713867 7.04353H18.2858C18.2269 6.77807 18.1566 6.51693 18.0749 6.26092Z" fill="#D80027"/>
<path d="M0.713867 10.9568C0.772754 11.2222 0.843102 11.4833 0.924805 11.7394L0.925648 11.7394L9.49977 12.1307L18.0748 11.7394C18.1565 11.4833 18.2268 11.2222 18.2857 10.9568H0.713867Z" fill="#D80027"/>
<path d="M9.50074 18.0006C13.5161 18.0006 16.9168 15.3708 18.0757 11.7397H0.925781C2.08471 15.3708 5.48544 18.0006 9.50074 18.0006Z" fill="#6DA544"/>
<path d="M9.4998 -0.000732422C5.48446 -0.000697265 2.0838 2.6291 0.924805 6.26014L18.0748 6.26017C16.9159 2.62906 13.5152 -0.000767578 9.4998 -0.000732422Z" fill="#338AF3"/>
<path d="M4.61306 3.71738C4.61306 2.87444 5.20548 2.17026 5.9966 1.9975C5.87503 1.97092 5.74885 1.95654 5.61927 1.95654C4.64678 1.95654 3.8584 2.74489 3.8584 3.71742C3.8584 4.68994 4.64671 5.47829 5.61927 5.47829C5.74885 5.47829 5.87499 5.46387 5.9966 5.43733C5.20551 5.2645 4.61306 4.56032 4.61306 3.71738Z" fill="#F0F0F0"/>
<path d="M7.03721 4.51685L7.15639 4.8837H7.54213L7.23008 5.11046L7.34926 5.47732L7.03721 5.25059L6.72509 5.47732L6.84431 5.11046L6.53223 4.8837H6.91796L7.03721 4.51685Z" fill="#F0F0F0"/>
<path d="M8.26859 4.51685L8.3878 4.8837H8.77353L8.46145 5.11046L8.58067 5.47732L8.26859 5.25059L7.9565 5.47732L8.07572 5.11046L7.76367 4.8837H8.14937L8.26859 4.51685Z" fill="#F0F0F0"/>
<path d="M9.49913 4.51685L9.61831 4.8837H10.0041L9.692 5.11046L9.81117 5.47732L9.49913 5.25059L9.18701 5.47732L9.30626 5.11046L8.99414 4.8837H9.37991L9.49913 4.51685Z" fill="#F0F0F0"/>
<path d="M10.7315 4.51685L10.8508 4.8837H11.2365L10.9244 5.11046L11.0436 5.47732L10.7315 5.25059L10.4194 5.47732L10.5387 5.11046L10.2266 4.8837H10.6123L10.7315 4.51685Z" fill="#F0F0F0"/>
<path d="M11.9619 4.51685L12.0812 4.8837H12.4669L12.1548 5.11046L12.2741 5.47732L11.9619 5.25059L11.6499 5.47732L11.7691 5.11046L11.457 4.8837H11.8427L11.9619 4.51685Z" fill="#F0F0F0"/>
<path d="M8.26859 3.23633L8.3878 3.60315H8.77353L8.46145 3.82994L8.58067 4.19676L8.26859 3.97004L7.9565 4.19676L8.07572 3.82994L7.76367 3.60315H8.14937L8.26859 3.23633Z" fill="#F0F0F0"/>
<path d="M9.49913 3.23633L9.61831 3.60315H10.0041L9.692 3.82994L9.81117 4.19676L9.49913 3.97004L9.18701 4.19676L9.30626 3.82994L8.99414 3.60315H9.37991L9.49913 3.23633Z" fill="#F0F0F0"/>
<path d="M10.7315 3.23633L10.8508 3.60315H11.2365L10.9244 3.82994L11.0436 4.19676L10.7315 3.97004L10.4194 4.19676L10.5387 3.82994L10.2266 3.60315H10.6123L10.7315 3.23633Z" fill="#F0F0F0"/>
<path d="M11.9619 3.23633L12.0812 3.60315H12.4669L12.1548 3.82994L12.2741 4.19676L11.9619 3.97004L11.6499 4.19676L11.7691 3.82994L11.457 3.60315H11.8427L11.9619 3.23633Z" fill="#F0F0F0"/>
<path d="M9.49913 1.95605L9.61831 2.32295H10.0041L9.692 2.54967L9.81117 2.91656L9.49913 2.68984L9.18701 2.91656L9.30626 2.54967L8.99414 2.32295H9.37991L9.49913 1.95605Z" fill="#F0F0F0"/>
<path d="M10.7315 1.95605L10.8508 2.32295H11.2365L10.9244 2.54967L11.0436 2.91656L10.7315 2.68984L10.4194 2.91656L10.5387 2.54967L10.2266 2.32295H10.6123L10.7315 1.95605Z" fill="#F0F0F0"/>
<path d="M11.9619 1.95605L12.0812 2.32295H12.4669L12.1548 2.54967L12.2741 2.91656L11.9619 2.68984L11.6499 2.91656L11.7691 2.54967L11.457 2.32295H11.8427L11.9619 1.95605Z" fill="#F0F0F0"/>
</g>
<defs>
<clipPath id="clip0_80_4321">
<rect width="18" height="18" fill="white" transform="translate(0.5)"/>
</clipPath>
</defs>
</svg>
