<svg width="19" height="18" viewBox="0 0 19 18" fill="none" xmlns="http://www.w3.org/2000/svg">
<g clip-path="url(#clip0_80_4342)">
<path d="M9.5 18C14.4706 18 18.5 13.9706 18.5 9C18.5 4.02944 14.4706 0 9.5 0C4.52944 0 0.5 4.02944 0.5 9C0.5 13.9706 4.52944 18 9.5 18Z" fill="#F0F0F0"/>
<path d="M17.9402 12.13C18.302 11.155 18.5 10.1004 18.5 8.99956C18.5 7.89868 18.302 6.84413 17.9402 5.86914H1.05979C0.698035 6.84413 0.5 7.89868 0.5 8.99956C0.5 10.1004 0.698035 11.155 1.05979 12.13L9.5 12.9126L17.9402 12.13Z" fill="#0052B4"/>
<path d="M9.49978 17.9997C13.3695 17.9997 16.6683 15.5573 17.94 12.1301H1.05957C2.33121 15.5573 5.63009 17.9997 9.49978 17.9997Z" fill="#D80027"/>
</g>
<defs>
<clipPath id="clip0_80_4342">
<rect width="18" height="18" fill="white" transform="translate(0.5)"/>
</clipPath>
</defs>
</svg>
