<svg width="19" height="18" viewBox="0 0 19 18" fill="none" xmlns="http://www.w3.org/2000/svg">
<g clip-path="url(#clip0_80_4346)">
<path d="M9.5 18C14.4706 18 18.5 13.9706 18.5 9C18.5 4.02944 14.4706 0 9.5 0C4.52944 0 0.5 4.02944 0.5 9C0.5 13.9706 4.52944 18 9.5 18Z" fill="#F0F0F0"/>
<path d="M9.1084 8.99994H18.4997C18.4997 8.18762 18.3914 7.40068 18.1896 6.6521H9.1084V8.99994Z" fill="#D80027"/>
<path d="M9.1084 4.30389H17.1787C16.6278 3.40488 15.9234 2.61024 15.102 1.95605H9.1084V4.30389Z" fill="#D80027"/>
<path d="M9.49982 18C11.6179 18 13.5648 17.2679 15.1022 16.0435H3.89746C5.43484 17.2679 7.38169 18 9.49982 18Z" fill="#D80027"/>
<path d="M1.82049 13.695H17.1786C17.6209 12.9733 17.9639 12.1844 18.1895 11.3472H0.80957C1.03517 12.1844 1.37819 12.9733 1.82049 13.695Z" fill="#D80027"/>
<path d="M4.66897 1.40548H5.48913L4.72624 1.95971L5.01765 2.85652L4.25479 2.30228L3.49194 2.85652L3.74366 2.08178C3.07196 2.64129 2.48323 3.29681 1.99808 4.02722H2.26087L1.77526 4.38001C1.6996 4.50622 1.62704 4.63444 1.5575 4.76455L1.78939 5.47826L1.35676 5.16393C1.24921 5.39177 1.15085 5.62475 1.06243 5.86259L1.31791 6.64896H2.26087L1.49798 7.2032L1.78939 8.1L1.02654 7.54576L0.569574 7.87778C0.523836 8.24544 0.5 8.61993 0.5 9H9.5C9.5 4.02947 9.5 3.44348 9.5 0C7.72208 0 6.06471 0.515742 4.66897 1.40548ZM5.01765 8.1L4.25479 7.54576L3.49194 8.1L3.78335 7.2032L3.02046 6.64896H3.96342L4.25479 5.75216L4.54617 6.64896H5.48913L4.72624 7.2032L5.01765 8.1ZM4.72624 4.58146L5.01765 5.47826L4.25479 4.92402L3.49194 5.47826L3.78335 4.58146L3.02046 4.02722H3.96342L4.25479 3.13042L4.54617 4.02722H5.48913L4.72624 4.58146ZM8.24591 8.1L7.48305 7.54576L6.72019 8.1L7.01161 7.2032L6.24871 6.64896H7.19168L7.48305 5.75216L7.77443 6.64896H8.71739L7.9545 7.2032L8.24591 8.1ZM7.9545 4.58146L8.24591 5.47826L7.48305 4.92402L6.72019 5.47826L7.01161 4.58146L6.24871 4.02722H7.19168L7.48305 3.13042L7.77443 4.02722H8.71739L7.9545 4.58146ZM7.9545 1.95971L8.24591 2.85652L7.48305 2.30228L6.72019 2.85652L7.01161 1.95971L6.24871 1.40548H7.19168L7.48305 0.508676L7.77443 1.40548H8.71739L7.9545 1.95971Z" fill="#0052B4"/>
</g>
<defs>
<clipPath id="clip0_80_4346">
<rect width="18" height="18" fill="white" transform="translate(0.5)"/>
</clipPath>
</defs>
</svg>
