<svg width="16" height="16" viewBox="0 0 16 16" fill="none" xmlns="http://www.w3.org/2000/svg">
<g clip-path="url(#clip0_1_2355)">
<path d="M1.60057 0.5C0.716072 0.5 0.0001431 1.22038 0 2.10677C0 2.99402 0.715929 3.71426 1.60072 3.71426C2.48307 3.71426 3.2 2.99402 3.2 2.10677C3.2 1.22024 2.48293 0.5 1.60057 0.5Z" fill="#33354D"/>
<path d="M3.2 4.78555H0V15.4997H3.2V4.78555Z" fill="#33354D"/>
<path d="M11.8973 4.78555C10.2333 4.78555 9.11747 5.65217 8.66075 6.47398H8.61499V5.0455H5.33412L5.33394 15.4997H8.75174V10.328C8.75174 8.96451 9.02506 7.64386 10.8047 7.64386C12.5589 7.64386 12.5823 9.20324 12.5823 10.4154V15.4996H16.0006V9.76543C16.0006 6.95076 15.3612 4.78555 11.8973 4.78555Z" fill="#33354D"/>
</g>
<defs>
<clipPath id="clip0_1_2355">
<rect width="16" height="16" fill="white"/>
</clipPath>
</defs>
</svg>
