<svg width="122" height="44" viewBox="0 0 122 44" fill="none" xmlns="http://www.w3.org/2000/svg">
<path d="M32.2903 6H0V38.2903H32.2903V6Z" fill="#00264B"/>
<path d="M30.5449 7.74542V36.5449H1.74542V7.74542H30.5449ZM32.2903 6H0V38.2903H32.2903V6Z" fill="#E87525"/>
<path d="M31.4175 30.8722C36.2374 30.8722 40.1446 26.9649 40.1446 22.1451C40.1446 17.3252 36.2374 13.418 31.4175 13.418C26.5977 13.418 22.6904 17.3252 22.6904 22.1451C22.6904 26.9649 26.5977 30.8722 31.4175 30.8722Z" fill="#E87525"/>
<path d="M60.9368 12.3768C60.9368 16.2903 57.9423 18.7541 53.2324 18.7541H50.7927V22.9088H45.0928V6H53.2324C57.9423 6 60.9368 8.46377 60.9368 12.3768ZM55.1884 12.3768C55.1884 11.1452 54.44 10.3963 52.8703 10.3963H50.7927V14.3578H52.8703C54.44 14.3578 55.1884 13.6089 55.1884 12.3768Z" fill="#E87525"/>
<path d="M69.548 18.6576H68.0011V22.9088H62.3018V6H70.4414C75.1513 6 78.1464 8.46377 78.1464 12.3768C78.1464 14.8166 76.9867 16.6525 74.9582 17.691L78.5085 22.9088H72.4219L69.548 18.6576ZM70.0792 10.3963H68.0011V14.3578H70.0782C71.6479 14.3578 72.3968 13.6089 72.3968 12.3768C72.3968 11.1446 71.649 10.3963 70.0792 10.3963Z" fill="#E87525"/>
<path d="M79.874 14.4544C79.874 9.55739 83.7309 6 88.9971 6C94.2634 6 98.1202 9.55739 98.1202 14.4544C98.1202 19.3514 94.2634 22.9088 88.9971 22.9088C83.7309 22.9088 79.874 19.3514 79.874 14.4544ZM92.6232 14.4544C92.6232 11.9366 91.0065 10.4121 88.9971 10.4121C86.9877 10.4121 85.371 11.9366 85.371 14.4544C85.371 16.9722 86.9877 18.4967 88.9971 18.4967C91.0065 18.4967 92.6232 16.9722 92.6232 14.4544Z" fill="#E87525"/>
<path d="M105.255 10.2997V13.1999H112.395V17.498H105.255V22.9088H99.4854V6H113.398V10.2997H105.255Z" fill="#E87525"/>
<path d="M114.763 6H120.643V22.9088H114.763V6Z" fill="#E87525"/>
<path d="M45.0928 37.0565L46.4018 34.1111C47.5358 34.7798 49.0483 35.208 50.3716 35.208C51.5225 35.208 51.9354 34.968 51.9354 34.5567C51.9354 33.0486 45.2848 34.2655 45.2848 29.7923C45.2848 27.5647 47.1578 25.7478 50.887 25.7478C52.5021 25.7478 54.1695 26.0903 55.424 26.7934L54.2017 29.7214C53.0159 29.1214 51.8988 28.8301 50.8505 28.8301C49.6647 28.8301 49.2867 29.1726 49.2867 29.5839C49.2867 31.0239 55.9373 29.8239 55.9373 34.2458C55.9373 36.4396 54.0637 38.2903 50.335 38.2903C48.3234 38.2903 46.2955 37.7934 45.0928 37.0565Z" fill="#E87525"/>
<path d="M57.0273 32.0177C57.0273 28.3332 59.8637 25.7451 63.7292 25.7451C66.0839 25.7451 67.9395 26.602 69.1258 28.1451L66.565 30.4245C65.8603 29.5332 65.0181 29.0189 63.9354 29.0189C62.2516 29.0189 61.1171 30.1845 61.1171 32.0188C61.1171 33.8531 62.2516 35.0188 63.9354 35.0188C65.0181 35.0188 65.8603 34.5044 66.565 33.6131L69.1258 35.8904C67.9395 37.4329 66.0839 38.2903 63.7292 38.2903C59.8626 38.2903 57.0273 35.7027 57.0273 32.0177Z" fill="#E87525"/>
<path d="M82.0775 25.7451V38.2903H78.0205V33.6666H74.2733V38.2903H70.2168V25.7451H74.2733V30.1899H78.021V25.7451H82.0775Z" fill="#E87525"/>
<path d="M83.1689 32.0177C83.1689 28.3845 86.0396 25.7451 89.9586 25.7451C93.8777 25.7451 96.7489 28.3845 96.7489 32.0177C96.7489 35.6509 93.8782 38.2903 89.9586 38.2903C86.0391 38.2903 83.1689 35.6509 83.1689 32.0177ZM92.6597 32.0177C92.6597 30.1496 91.4559 29.0178 89.9603 29.0178C88.4647 29.0178 87.262 30.149 87.262 32.0177C87.262 33.8864 88.4652 35.0177 89.9603 35.0177C91.4553 35.0177 92.658 33.8859 92.658 32.0177H92.6597Z" fill="#E87525"/>
<path d="M97.8398 32.0177C97.8398 28.3845 100.711 25.7451 104.63 25.7451C108.549 25.7451 111.419 28.3845 111.419 32.0177C111.419 35.6509 108.548 38.2903 104.628 38.2903C100.709 38.2903 97.8398 35.6509 97.8398 32.0177ZM107.331 32.0177C107.331 30.1496 106.127 29.0178 104.632 29.0178C103.136 29.0178 101.933 30.149 101.933 32.0177C101.933 33.8864 103.136 35.0177 104.632 35.0177C106.127 35.0177 107.328 33.8859 107.328 32.0177H107.331Z" fill="#E87525"/>
<path d="M112.51 25.7451H116.567V35.0106H122V38.2903H112.51V25.7451Z" fill="#E87525"/>
</svg>
