<svg width="140" height="30" viewBox="0 0 140 30" fill="none" xmlns="http://www.w3.org/2000/svg">
<path d="M22.4191 13.371C22.0401 13.7523 21.7499 14.2125 21.569 14.7187C21.3882 15.225 21.3213 15.7649 21.373 16.3L21.355 16.282C21.4082 16.9119 21.3232 17.5457 21.1061 18.1394C20.889 18.733 20.5451 19.2721 20.0982 19.7191C19.6512 20.166 19.112 20.5101 18.5183 20.7271C17.9247 20.9442 17.2908 21.0292 16.661 20.976L16.6791 20.994C15.9257 20.9239 15.1689 21.0878 14.512 21.4635C13.8552 21.8392 13.3302 22.4083 13.0087 23.0933C12.6872 23.7783 12.5847 24.5457 12.7153 25.2911C12.846 26.0364 13.2033 26.7233 13.7386 27.2581C14.2739 27.7929 14.9611 28.1496 15.7065 28.2795C16.452 28.4095 17.2193 28.3063 17.904 27.9842C18.5887 27.662 19.1573 27.1366 19.5324 26.4794C19.9075 25.8222 20.0708 25.0654 20 24.312L20.019 24.33C19.9658 23.7002 20.0507 23.0663 20.2678 22.4726C20.4849 21.879 20.829 21.3399 21.2759 20.8929C21.7229 20.446 22.262 20.1019 22.8556 19.8849C23.4494 19.6678 24.0831 19.5828 24.713 19.636L24.694 19.618C25.3095 19.6733 25.929 19.5724 26.4951 19.3246C27.0611 19.0768 27.5554 18.6901 27.9322 18.2004C28.309 17.7107 28.5562 17.1337 28.6507 16.5231C28.7451 15.9124 28.684 15.2878 28.4727 14.707C28.2615 14.1263 27.9071 13.6083 27.4424 13.201C26.9777 12.7937 26.4178 12.5103 25.8144 12.3771C25.2109 12.2439 24.5837 12.2651 23.9907 12.4388C23.3976 12.6126 22.8582 12.9332 22.4221 13.371H22.4191Z" fill="#B4B7C9"/>
<path d="M15.0412 18.636L15.0222 18.618C15.5575 18.6719 16.0981 18.6062 16.605 18.4256C17.1118 18.245 17.5722 17.9541 17.9528 17.5738C18.3333 17.1935 18.6247 16.7333 18.8056 16.2266C18.9866 15.7199 19.0527 15.1794 18.9992 14.644L19.0182 14.662C18.965 14.0321 19.05 13.3983 19.267 12.8046C19.4841 12.211 19.8282 11.6719 20.2751 11.2249C20.7221 10.778 21.2612 10.4339 21.8548 10.2169C22.4485 9.99976 23.0823 9.91483 23.7122 9.968L23.6932 9.95C24.4467 10.0208 25.2036 9.85736 25.8608 9.4821C26.5181 9.10684 27.0435 8.53797 27.3655 7.8531C27.6875 7.16824 27.7904 6.40071 27.6602 5.6552C27.53 4.90969 27.173 4.22251 26.6378 3.68737C26.1027 3.15224 25.4155 2.7952 24.67 2.66498C23.9245 2.53475 23.157 2.63766 22.4721 2.95968C21.7872 3.28169 21.2184 3.80714 20.8431 4.46435C20.4678 5.12155 20.3044 5.87852 20.3752 6.632L20.3572 6.613C20.4105 7.24289 20.3257 7.87683 20.1087 8.47055C19.8917 9.06427 19.5476 9.60346 19.1007 10.0505C18.6537 10.4974 18.1145 10.8415 17.5208 11.0585C16.927 11.2755 16.2931 11.3603 15.6632 11.307L15.6812 11.326C15.1459 11.2721 14.6052 11.3378 14.0984 11.5184C13.5916 11.6989 13.1312 11.9899 12.7506 12.3702C12.37 12.7505 12.0787 13.2107 11.8977 13.7174C11.7168 14.2241 11.6507 14.7646 11.7042 15.3L11.6862 15.282C11.7392 15.9118 11.6541 16.5456 11.437 17.1392C11.2198 17.7327 10.8758 18.2718 10.4289 18.7187C9.98194 19.1656 9.4429 19.5096 8.84934 19.7268C8.25578 19.9439 7.62199 20.029 6.99218 19.976L7.01018 19.994C6.2567 19.9232 5.49973 20.0866 4.84252 20.4619C4.18532 20.8372 3.65987 21.406 3.33786 22.0909C3.01584 22.7758 2.91292 23.5433 3.04315 24.2888C3.17338 25.0343 3.53042 25.7215 4.06555 26.2566C4.60069 26.7918 5.28787 27.1488 6.03338 27.279C6.77889 27.4092 7.54642 27.3063 8.23129 26.9843C8.91615 26.6623 9.48502 26.1369 9.86028 25.4797C10.2356 24.8224 10.399 24.0655 10.3282 23.312L10.3472 23.33C10.294 22.7001 10.379 22.0663 10.5961 21.4726C10.8131 20.879 11.1572 20.3399 11.6041 19.8929C12.0511 19.446 12.5902 19.1019 13.1838 18.8849C13.7775 18.6678 14.4113 18.5828 15.0412 18.636Z" fill="#B4B7C9"/>
<path d="M8.34021 16.6289C8.71923 16.2477 9.00941 15.7875 9.19005 15.2812C9.37069 14.7749 9.43733 14.2349 9.38521 13.6999L9.4042 13.7179C9.351 13.0879 9.43596 12.4538 9.65317 11.86C9.87038 11.2662 10.2146 10.727 10.6618 10.28C11.109 9.83306 11.6483 9.48907 12.2422 9.27212C12.8361 9.05516 13.4702 8.97046 14.1002 9.02394L14.0812 9.00594C14.8344 9.07651 15.5911 8.91302 16.248 8.53778C16.9049 8.16255 17.43 7.59382 17.7519 6.90917C18.0737 6.22451 18.1765 5.45726 18.0463 4.71203C17.9161 3.9668 17.5591 3.27988 17.0242 2.74494C16.4893 2.21 15.8023 1.85308 15.0571 1.72286C14.3119 1.59263 13.5446 1.69545 12.86 2.01727C12.1753 2.33909 11.6066 2.86426 11.2314 3.52116C10.8561 4.17806 10.6926 4.93472 10.7632 5.68794L10.7452 5.66994C10.7984 6.29979 10.7134 6.93366 10.4963 7.5273C10.2792 8.12094 9.93523 8.66005 9.48827 9.10701C9.04132 9.55397 8.5022 9.898 7.90856 10.115C7.31492 10.3321 6.68106 10.4171 6.05121 10.3639L6.06921 10.3819C5.45378 10.3267 4.83437 10.4278 4.26839 10.6757C3.70241 10.9236 3.20816 11.3104 2.83145 11.8002C2.45474 12.2899 2.20776 12.8669 2.11338 13.4775C2.01901 14.0882 2.0803 14.7128 2.29157 15.2934C2.50284 15.8741 2.85727 16.392 3.322 16.7992C3.78673 17.2065 4.34673 17.4898 4.95011 17.623C5.55348 17.7561 6.18071 17.7348 6.77368 17.5611C7.36664 17.3873 7.90614 17.0667 8.3422 16.6289H8.34021Z" fill="#B4B7C9"/>
<path d="M39.3164 6.65503H42.2864V21.108H39.3164V6.65503Z" fill="#B4B7C9"/>
<path d="M43.9689 16.159C43.9648 15.1204 44.269 14.1038 44.843 13.2382C45.417 12.3726 46.235 11.6968 47.1934 11.2965C48.1518 10.8961 49.2074 10.7892 50.2266 10.9893C51.2458 11.1894 52.1827 11.6874 52.9186 12.4204C53.6545 13.1533 54.1563 14.0882 54.3605 15.1066C54.5647 16.125 54.462 17.1811 54.0655 18.1411C53.669 19.101 52.9965 19.9218 52.1332 20.4992C51.2698 21.0767 50.2546 21.385 49.2159 21.385C48.5265 21.3929 47.8424 21.2632 47.2036 21.0036C46.5648 20.744 45.9842 20.3597 45.4957 19.8732C45.0071 19.3866 44.6205 18.8075 44.3584 18.1698C44.0962 17.5321 43.9638 16.8485 43.9689 16.159ZM51.4929 16.159C51.4805 15.7113 51.3364 15.2772 51.0787 14.9109C50.8209 14.5447 50.4609 14.2625 50.0437 14.0998C49.6264 13.937 49.1705 13.9008 48.7328 13.9958C48.2951 14.0908 47.8951 14.3126 47.5828 14.6337C47.2706 14.9547 47.0598 15.3607 46.9771 15.8009C46.8943 16.241 46.943 16.6958 47.1173 17.1084C47.2916 17.521 47.5836 17.873 47.9568 18.1205C48.3301 18.368 48.7681 18.5 49.2159 18.5C49.5226 18.5082 49.8277 18.4527 50.112 18.3371C50.3962 18.2215 50.6534 18.0483 50.8673 17.8284C51.0812 17.6084 51.2473 17.3465 51.3549 17.0592C51.4626 16.7719 51.5096 16.4654 51.4929 16.159Z" fill="#B4B7C9"/>
<path d="M66.3009 11.2091V20.6091C66.3009 23.9351 63.7069 25.3411 61.0739 25.3411C60.1469 25.4105 59.2186 25.2232 58.3909 24.7999C57.5633 24.3765 56.8682 23.7334 56.3819 22.9411L58.9159 21.4761C59.1203 21.8891 59.446 22.2298 59.8493 22.4527C60.2527 22.6755 60.7145 22.7699 61.1729 22.7231C61.4659 22.7637 61.7643 22.7379 62.046 22.6476C62.3276 22.5573 62.5854 22.4048 62.8002 22.2015C63.015 21.9981 63.1813 21.7491 63.2869 21.4727C63.3924 21.1964 63.4344 20.8999 63.4099 20.6051V19.7001C63.0621 20.1256 62.6195 20.4637 62.1174 20.6872C61.6153 20.9107 61.0679 21.0134 60.5189 20.9871C59.2127 20.9459 57.9738 20.3981 57.0644 19.4595C56.155 18.521 55.6465 17.2654 55.6465 15.9586C55.6465 14.6518 56.155 13.3962 57.0644 12.4577C57.9738 11.5191 59.2127 10.9713 60.5189 10.9301C61.0679 10.9038 61.6153 11.0065 62.1174 11.23C62.6195 11.4535 63.0621 11.7916 63.4099 12.2171V11.2071L66.3009 11.2091ZM63.4109 15.9601C63.4309 15.4815 63.3071 15.0078 63.0556 14.6001C62.8041 14.1923 62.4363 13.8692 61.9996 13.6723C61.5629 13.4753 61.0773 13.4136 60.6052 13.495C60.1331 13.5764 59.6962 13.7972 59.3506 14.1291C59.0051 14.4609 58.7668 14.8885 58.6663 15.3569C58.5659 15.8253 58.6079 16.3131 58.7871 16.7574C58.9662 17.2017 59.2742 17.5823 59.6714 17.8501C60.0686 18.1179 60.5369 18.2607 61.0159 18.2601C61.328 18.2819 61.6411 18.2381 61.9352 18.1315C62.2293 18.0249 62.4978 17.8578 62.7234 17.6412C62.949 17.4245 63.1268 17.163 63.2452 16.8734C63.3636 16.5839 63.4201 16.2728 63.4109 15.9601Z" fill="#B4B7C9"/>
<path d="M67.9826 16.159C67.9785 15.1204 68.2826 14.1038 68.8567 13.2382C69.4307 12.3726 70.2487 11.6968 71.2071 11.2965C72.1655 10.8961 73.2211 10.7892 74.2403 10.9893C75.2595 11.1894 76.1964 11.6874 76.9323 12.4204C77.6682 13.1533 78.17 14.0882 78.3742 15.1066C78.5784 16.125 78.4757 17.1811 78.0792 18.1411C77.6827 19.101 77.0102 19.9218 76.1469 20.4992C75.2835 21.0767 74.2683 21.385 73.2296 21.385C72.5402 21.3929 71.856 21.2632 71.2173 21.0036C70.5785 20.744 69.9979 20.3597 69.5094 19.8732C69.0208 19.3866 68.6342 18.8075 68.3721 18.1698C68.1099 17.5321 67.9775 16.8485 67.9826 16.159ZM75.5066 16.159C75.4942 15.7113 75.3501 15.2772 75.0924 14.9109C74.8346 14.5447 74.4746 14.2625 74.0574 14.0998C73.6401 13.937 73.1841 13.9008 72.7465 13.9958C72.3088 14.0908 71.9088 14.3126 71.5965 14.6337C71.2843 14.9547 71.0735 15.3607 70.9907 15.8009C70.9079 16.241 70.9567 16.6958 71.131 17.1084C71.3053 17.521 71.5973 17.873 71.9705 18.1205C72.3438 18.368 72.7817 18.5 73.2296 18.5C73.5363 18.5082 73.8414 18.4527 74.1256 18.3371C74.4099 18.2215 74.6671 18.0483 74.881 17.8284C75.0949 17.6084 75.261 17.3465 75.3686 17.0592C75.4763 16.7719 75.5233 16.4654 75.5066 16.159Z" fill="#B4B7C9"/>
<path d="M79.8613 8.55593C79.8613 8.20348 79.9658 7.85895 80.1616 7.56591C80.3574 7.27286 80.6358 7.04445 80.9614 6.90958C81.287 6.7747 81.6453 6.73941 81.991 6.80817C82.3366 6.87693 82.6542 7.04665 82.9034 7.29587C83.1526 7.54508 83.3223 7.8626 83.3911 8.20828C83.4598 8.55395 83.4245 8.91225 83.2897 9.23787C83.1548 9.56349 82.9264 9.8418 82.6333 10.0376C82.3403 10.2334 81.9958 10.3379 81.6433 10.3379C81.1722 10.3332 80.7216 10.144 80.3884 9.81081C80.0553 9.47763 79.866 9.02709 79.8613 8.55593ZM80.1613 11.2089H83.1323V21.1089H80.1573L80.1613 11.2089Z" fill="#B4B7C9"/>
<path d="M95.9557 16.159C95.99 16.8133 95.8947 17.4679 95.6751 18.0852C95.4556 18.7025 95.1162 19.2703 94.6764 19.756C94.2367 20.2416 93.7052 20.6356 93.1127 20.9152C92.5201 21.1947 91.8782 21.3544 91.2237 21.385C90.6733 21.415 90.1232 21.3222 89.6131 21.1133C89.103 20.9043 88.6459 20.5845 88.2747 20.177V25.068H85.3047V11.209H88.2747V12.139C88.646 11.7318 89.1033 11.4122 89.6133 11.2035C90.1234 10.9947 90.6734 10.902 91.2237 10.932C91.8783 10.9625 92.5204 11.1221 93.1131 11.4017C93.7058 11.6813 94.2373 12.0753 94.6771 12.5611C95.1169 13.0469 95.4563 13.6149 95.6757 14.2324C95.8951 14.8498 95.9903 15.5046 95.9557 16.159ZM92.9857 16.159C92.9741 15.6957 92.8261 15.2461 92.5602 14.8664C92.2943 14.4868 91.9224 14.194 91.491 14.0248C91.0595 13.8555 90.5877 13.8172 90.1346 13.9148C89.6815 14.0123 89.2673 14.2413 88.9437 14.5731C88.6201 14.905 88.4016 15.3248 88.3155 15.7803C88.2294 16.2357 88.2795 16.7063 88.4596 17.1334C88.6396 17.5605 88.9417 17.9249 89.3279 18.1812C89.7141 18.4374 90.1672 18.5741 90.6307 18.574C90.9489 18.5882 91.2665 18.5349 91.5627 18.4177C91.8588 18.3006 92.1269 18.1221 92.3492 17.8941C92.5716 17.666 92.7432 17.3936 92.8529 17.0946C92.9626 16.7956 93.0079 16.4767 92.9857 16.159Z" fill="#B4B7C9"/>
<path d="M105.12 18.138C105.12 20.415 103.141 21.385 101.003 21.385C100.139 21.4632 99.2718 21.2806 98.5129 20.8605C97.754 20.4405 97.1386 19.8025 96.7461 19.029L99.3191 17.564C99.4232 17.9215 99.6468 18.2326 99.9525 18.4451C100.258 18.6577 100.628 18.759 100.999 18.732C101.711 18.732 102.068 18.514 102.068 18.119C102.068 17.029 97.1971 17.604 97.1971 14.179C97.1971 12.02 99.0191 10.932 101.078 10.932C101.852 10.9075 102.618 11.0911 103.297 11.4636C103.976 11.8362 104.543 12.384 104.938 13.05L102.404 14.416C102.293 14.1567 102.108 13.9358 101.872 13.7809C101.636 13.626 101.36 13.544 101.078 13.545C100.563 13.545 100.246 13.745 100.246 14.099C100.25 15.228 105.12 14.475 105.12 18.138Z" fill="#B4B7C9"/>
<path d="M115.971 11.209V21.109H113.001V20.178C112.658 20.5888 112.223 20.9125 111.731 21.1225C111.239 21.3325 110.705 21.4228 110.171 21.386C108.171 21.386 106.471 19.961 106.471 17.286V11.209H109.441V16.851C109.416 17.0868 109.443 17.3252 109.52 17.5495C109.596 17.7739 109.721 17.9789 109.885 18.1502C110.049 18.3215 110.248 18.455 110.469 18.5415C110.689 18.628 110.926 18.6654 111.163 18.651C112.252 18.651 113.004 18.018 113.004 16.612V11.212L115.971 11.209Z" fill="#B4B7C9"/>
<path d="M132.999 15.03V21.108H130.029V15.287C130.029 14.297 129.554 13.664 128.604 13.664C127.614 13.664 127.059 14.357 127.059 15.525V21.108H124.09V15.287C124.09 14.297 123.615 13.664 122.664 13.664C121.674 13.664 121.12 14.357 121.12 15.525V21.108H118.15V11.208H121.12V12.118C121.428 11.7143 121.832 11.3941 122.295 11.1868C122.759 10.9794 123.267 10.8915 123.773 10.931C124.281 10.9061 124.787 11.0134 125.242 11.2423C125.696 11.4711 126.083 11.8139 126.366 12.237C126.695 11.7943 127.131 11.4423 127.633 11.2139C128.135 10.9855 128.687 10.8882 129.237 10.931C131.51 10.932 132.999 12.555 132.999 15.03Z" fill="#B4B7C9"/>
<path d="M135.513 11.148C136.73 11.148 137.717 10.1612 137.717 8.94399C137.717 7.72675 136.73 6.73999 135.513 6.73999C134.296 6.73999 133.309 7.72675 133.309 8.94399C133.309 10.1612 134.296 11.148 135.513 11.148Z" fill="#B4B7C9"/>
</svg>
