<svg width="134" height="34" viewBox="0 0 134 34" fill="none" xmlns="http://www.w3.org/2000/svg">
<path d="M15.4508 6.6499V2.3999H2.05078V31.5999H15.4508V27.3499C12.7058 27.3499 10.0732 26.2594 8.13222 24.3184C6.19122 22.3774 5.10078 19.7449 5.10078 16.9999C5.10078 14.2549 6.19122 11.6223 8.13222 9.68135C10.0732 7.74035 12.7058 6.6499 15.4508 6.6499Z" fill="#B4B7C9"/>
<path d="M15.4492 6.6499V27.3499C18.1942 27.3499 20.8268 26.2594 22.7678 24.3184C24.7088 22.3774 25.7992 19.7449 25.7992 16.9999C25.7992 14.2549 24.7088 11.6223 22.7678 9.68135C20.8268 7.74035 18.1942 6.6499 15.4492 6.6499Z" fill="#B4B7C9"/>
<path d="M33.3203 9.25H36.3203V23.7H33.3203V9.25Z" fill="#B4B7C9"/>
<path d="M38.0005 18.75C38.0005 17.7104 38.3092 16.6942 38.8874 15.8302C39.4656 14.9662 40.2873 14.2933 41.2484 13.8968C42.2095 13.5004 43.2666 13.3982 44.2858 13.6032C45.305 13.8082 46.2404 14.3112 46.9734 15.0484C47.7064 15.7857 48.2041 16.7239 48.4033 17.7443C48.6024 18.7647 48.4942 19.8212 48.0922 20.78C47.6902 21.7387 47.0127 22.5566 46.1454 23.1298C45.2781 23.7031 44.2601 24.0059 43.2205 24C42.531 24.0054 41.8473 23.8731 41.2096 23.6107C40.5719 23.3484 39.9929 22.9614 39.5067 22.4725C39.0205 21.9835 38.6369 21.4023 38.3782 20.7631C38.1196 20.1239 37.9912 19.4395 38.0005 18.75ZM45.5205 18.75C45.5087 18.3018 45.365 17.867 45.1074 17.5001C44.8498 17.1331 44.4898 16.8502 44.0722 16.6868C43.6547 16.5234 43.1983 16.4867 42.7601 16.5814C42.3218 16.676 41.9212 16.8977 41.6083 17.2189C41.2954 17.54 41.0841 17.9462 41.0009 18.3868C40.9177 18.8274 40.9662 19.2827 41.1404 19.6958C41.3146 20.1089 41.6067 20.4616 41.9803 20.7095C42.3538 20.9575 42.7921 21.0898 43.2405 21.09C43.5458 21.096 43.849 21.0389 44.1312 20.9223C44.4134 20.8058 44.6685 20.6323 44.8806 20.4127C45.0927 20.1931 45.2572 19.932 45.3639 19.646C45.4706 19.3599 45.5171 19.0549 45.5005 18.75H45.5205Z" fill="#B4B7C9"/>
<path d="M60.3093 13.8V23.21C60.3093 26.53 57.7093 27.94 55.0793 27.94C54.1516 28.0161 53.2211 27.8318 52.3926 27.4078C51.564 26.9838 50.8702 26.3369 50.3893 25.54L52.9193 24.08C53.1243 24.4934 53.4504 24.8344 53.8542 25.0577C54.258 25.281 54.7202 25.376 55.1793 25.33C55.4718 25.366 55.7686 25.337 56.0485 25.245C56.3285 25.1529 56.5846 25.0002 56.7986 24.7976C57.0127 24.595 57.1793 24.3477 57.2866 24.0732C57.3939 23.7988 57.4392 23.504 57.4193 23.21V22.3C57.0702 22.7233 56.6272 23.0593 56.1256 23.2815C55.6239 23.5037 55.0774 23.6059 54.5293 23.58C53.2032 23.58 51.9315 23.0532 50.9938 22.1155C50.0561 21.1779 49.5293 19.9061 49.5293 18.58C49.5293 17.2539 50.0561 15.9822 50.9938 15.0445C51.9315 14.1068 53.2032 13.58 54.5293 13.58C55.0774 13.5541 55.6239 13.6563 56.1256 13.8785C56.6272 14.1007 57.0702 14.4367 57.4193 14.86V13.86L60.3093 13.8ZM57.4193 18.55C57.4392 18.0716 57.3156 17.5981 57.0643 17.1905C56.813 16.7829 56.4456 16.4598 56.0091 16.2627C55.5727 16.0656 55.0874 16.0036 54.6154 16.0846C54.1435 16.1656 53.7065 16.3859 53.3608 16.7172C53.0151 17.0485 52.7764 17.4757 52.6754 17.9438C52.5744 18.4119 52.6157 18.8994 52.794 19.3438C52.9724 19.7882 53.2796 20.1691 53.6761 20.4375C54.0727 20.7059 54.5405 20.8496 55.0193 20.85C55.3318 20.8725 55.6455 20.8292 55.9401 20.723C56.2348 20.6167 56.504 20.4498 56.7301 20.233C56.9563 20.0163 57.1345 19.7545 57.2532 19.4646C57.3719 19.1747 57.4285 18.8631 57.4193 18.55Z" fill="#B4B7C9"/>
<path d="M62.0003 18.75C62.0003 17.7112 62.3085 16.6958 62.8858 15.8322C63.4631 14.9686 64.2837 14.2957 65.2436 13.8987C66.2035 13.5016 67.2595 13.3982 68.2782 13.6016C69.2969 13.805 70.2323 14.306 70.9662 15.0412C71.7 15.7765 72.1992 16.7129 72.4006 17.7319C72.6021 18.751 72.4968 19.8069 72.0979 20.766C71.699 21.7252 71.0244 22.5444 70.1598 23.1201C69.2951 23.6958 68.2791 24.002 67.2403 24C66.5495 24.0067 65.8643 23.8754 65.2249 23.6138C64.5855 23.3522 64.0046 22.9656 63.5166 22.4766C63.0285 21.9876 62.643 21.4061 62.3826 20.7662C62.1223 20.1263 61.9923 19.4408 62.0003 18.75ZM69.5203 18.75C69.5085 18.3014 69.3645 17.8662 69.1065 17.499C68.8485 17.1319 68.4878 16.849 68.0697 16.6859C67.6516 16.5228 67.1947 16.4867 66.7562 16.5822C66.3177 16.6776 65.9171 16.9004 65.6046 17.2225C65.2921 17.5446 65.0816 17.9518 64.9996 18.393C64.9175 18.8342 64.9674 19.2898 65.1431 19.7027C65.3188 20.1157 65.6125 20.4676 65.9874 20.7144C66.3622 20.9611 66.8015 21.0918 67.2503 21.09C67.5556 21.096 67.8588 21.0389 68.141 20.9223C68.4232 20.8058 68.6783 20.6323 68.8904 20.4127C69.1025 20.1931 69.267 19.932 69.3737 19.646C69.4804 19.3599 69.527 19.0549 69.5104 18.75H69.5203Z" fill="#B4B7C9"/>
<path d="M73.8691 11.15C73.8691 10.798 73.9735 10.4538 74.1691 10.1611C74.3647 9.86836 74.6427 9.64022 74.9679 9.50549C75.2932 9.37077 75.6511 9.33552 75.9964 9.4042C76.3416 9.47288 76.6588 9.64241 76.9078 9.89135C77.1567 10.1403 77.3262 10.4575 77.3949 10.8027C77.4636 11.148 77.4283 11.5059 77.2936 11.8312C77.1589 12.1564 76.9307 12.4344 76.638 12.63C76.3453 12.8256 76.0012 12.93 75.6491 12.93C75.1786 12.9248 74.7289 12.7356 74.3962 12.4029C74.0635 12.0702 73.8743 11.6205 73.8691 11.15ZM74.1591 13.8H77.1591V23.7H74.1591V13.8Z" fill="#B4B7C9"/>
<path d="M90.0005 18.75C90.0341 19.4084 89.9372 20.067 89.7153 20.6878C89.4935 21.3086 89.151 21.8794 88.7077 22.3673C88.2643 22.8553 87.7289 23.2507 87.1321 23.5309C86.5354 23.8111 85.8891 23.9705 85.2305 24C84.6716 24.0372 84.1115 23.9477 83.5921 23.7382C83.0726 23.5286 82.6072 23.2045 82.2305 22.79V27.68H79.2305V13.8H82.2305V14.73C82.6077 14.3167 83.0735 13.9941 83.593 13.7863C84.1125 13.5784 84.6723 13.4908 85.2305 13.53C85.8865 13.5595 86.5302 13.718 87.1249 13.9963C87.7196 14.2746 88.2537 14.6674 88.6966 15.1521C89.1396 15.6368 89.4827 16.204 89.7064 16.8214C89.9301 17.4387 90.0301 18.094 90.0005 18.75ZM87.0005 18.75C86.9887 18.2855 86.84 17.8349 86.5732 17.4546C86.3064 17.0743 85.9332 16.7811 85.5005 16.612C85.0678 16.4428 84.5948 16.4052 84.1407 16.5037C83.6867 16.6022 83.2719 16.8326 82.9482 17.1659C82.6245 17.4992 82.4064 17.9206 82.3213 18.3774C82.2361 18.8341 82.2876 19.3058 82.4694 19.7334C82.6512 20.1609 82.9551 20.5253 83.3431 20.7809C83.7311 21.0365 84.1859 21.1718 84.6505 21.17C84.9687 21.1835 85.2862 21.1296 85.5821 21.0118C85.8781 20.894 86.1458 20.715 86.3677 20.4865C86.5896 20.258 86.7606 19.9851 86.8697 19.6859C86.9788 19.3866 87.0233 19.0677 87.0005 18.75Z" fill="#B4B7C9"/>
<path d="M99.13 20.73C99.13 23.01 97.13 23.98 95.01 23.98C94.1453 24.0578 93.2772 23.8745 92.5178 23.4538C91.7584 23.0331 91.1426 22.3943 90.75 21.62L93.33 20.16C93.4322 20.5168 93.6538 20.8277 93.9578 21.0407C94.2618 21.2537 94.6297 21.3558 95 21.33C95.71 21.33 96.07 21.11 96.07 20.71C96.07 19.62 91.2 20.2 91.2 16.77C91.2 14.61 93.02 13.53 95.08 13.53C95.863 13.4949 96.641 13.6726 97.3311 14.0441C98.0213 14.4156 98.598 14.9671 99 15.64L96.42 17C96.306 16.742 96.1198 16.5226 95.8838 16.3682C95.6477 16.2138 95.372 16.1311 95.09 16.13C94.57 16.13 94.26 16.33 94.26 16.68C94.26 17.82 99.13 17.07 99.13 20.73Z" fill="#B4B7C9"/>
<path d="M110.001 13.8V23.7H107.001V22.77C106.66 23.1817 106.227 23.5074 105.738 23.7211C105.248 23.9348 104.715 24.0303 104.181 24C102.181 24 100.471 22.57 100.471 19.9V13.8H103.471V19.45C103.447 19.6862 103.475 19.9247 103.553 20.1491C103.631 20.3734 103.756 20.5782 103.92 20.7494C104.085 20.9205 104.285 21.0539 104.506 21.1404C104.727 21.2268 104.964 21.2642 105.201 21.25C106.281 21.25 107.041 20.61 107.041 19.25V13.8H110.001Z" fill="#B4B7C9"/>
<path d="M127.001 17.62V23.7H124.001V17.88C124.001 16.88 123.531 16.26 122.581 16.26C121.631 16.26 121.031 16.95 121.031 18.12V23.7H118.031V17.88C118.031 16.88 117.561 16.26 116.611 16.26C115.661 16.26 115.061 16.95 115.061 18.12V23.7H112.061V13.8H115.061V14.71C115.372 14.308 115.777 13.9896 116.242 13.7836C116.706 13.5776 117.215 13.4904 117.721 13.53C118.228 13.5035 118.734 13.6095 119.188 13.8374C119.642 14.0653 120.029 14.4074 120.311 14.83C120.641 14.3884 121.077 14.0376 121.579 13.8103C122.08 13.5829 122.632 13.4865 123.181 13.53C125.521 13.53 127.001 15.15 127.001 17.62Z" fill="#B4B7C9"/>
<path d="M129.52 13.7401C130.735 13.7401 131.72 12.7551 131.72 11.5401C131.72 10.3251 130.735 9.34009 129.52 9.34009C128.305 9.34009 127.32 10.3251 127.32 11.5401C127.32 12.7551 128.305 13.7401 129.52 13.7401Z" fill="#B4B7C9"/>
</svg>
