<svg width="20" height="20" viewBox="0 0 20 20" fill="none" xmlns="http://www.w3.org/2000/svg">
<path d="M14.7563 10.2442C14.4304 9.91838 13.9038 9.91838 13.5779 10.2442L12.2496 11.5725C11.6338 11.3892 10.4846 10.9725 9.75627 10.2442C9.02794 9.51588 8.61127 8.36671 8.42794 7.75088L9.75627 6.42255C10.0821 6.09671 10.0821 5.57005 9.75627 5.24421L6.42294 1.91088C6.09711 1.58505 5.57044 1.58505 5.24461 1.91088L2.98461 4.17088C2.66794 4.48755 2.48961 4.92255 2.49627 5.36671C2.51544 6.55338 2.82961 10.675 6.07794 13.9234C9.32627 17.1717 13.4479 17.485 14.6354 17.505C14.6396 17.505 14.6546 17.505 14.6588 17.505C15.0988 17.505 15.5146 17.3317 15.8296 17.0167L18.0896 14.7567C18.4154 14.4309 18.4154 13.9042 18.0896 13.5784L14.7563 10.2442ZM14.6504 15.8375C13.6104 15.82 10.0521 15.5409 7.25627 12.7442C4.45127 9.93921 4.17961 6.36838 4.16294 5.34921L5.83377 3.67838L7.98877 5.83338L6.91127 6.91088C6.71211 7.10921 6.62711 7.39588 6.68461 7.67088C6.70461 7.76671 7.19377 10.0392 8.57711 11.4225C9.96044 12.8059 12.2329 13.295 12.3288 13.315C12.6063 13.3742 12.8904 13.2884 13.0888 13.0892L14.1671 12.0117L16.3221 14.1667L14.6504 15.8375Z" fill="#E87525"/>
</svg>
