<svg width="32" height="32" viewBox="0 0 32 32" fill="none" xmlns="http://www.w3.org/2000/svg">
<g id="star">
<path id="Vector" d="M8.68798 19.0973L6.70132 27.7C6.57865 28.232 6.79198 28.7853 7.24265 29.096C7.47065 29.2533 7.73465 29.3333 7.99998 29.3333C8.25732 29.3333 8.51598 29.2586 8.73998 29.1093L16 24.2693L23.26 29.1093C23.724 29.4186 24.3333 29.4066 24.7866 29.0773C25.2373 28.748 25.436 28.1706 25.2826 27.6346L22.844 19.1013L28.892 13.6586C29.288 13.3013 29.4333 12.744 29.2627 12.24C29.0907 11.736 28.636 11.3813 28.1053 11.3386L20.504 10.7333L17.2146 3.45196C17 2.97329 16.524 2.66663 16 2.66663C15.476 2.66663 15 2.97329 14.7853 3.45196L11.496 10.7333L3.89465 11.3373C3.37198 11.3786 2.92265 11.7213 2.74665 12.2133C2.56798 12.7053 2.69598 13.256 3.06932 13.6213L8.68798 19.0973ZM12.492 13.3293C12.976 13.2906 13.4026 12.992 13.6013 12.548L16 7.23996L18.3986 12.548C18.5973 12.992 19.024 13.2906 19.508 13.3293L24.804 13.7493L20.4426 17.6746C20.064 18.016 19.9133 18.5413 20.052 19.032L21.7226 24.8786L16.7413 21.5573C16.2933 21.2573 15.7106 21.2573 15.2626 21.5573L10.0573 25.028L11.4573 18.9666C11.5613 18.5133 11.4226 18.0373 11.0893 17.7133L7.03865 13.764L12.492 13.3293Z" fill="url(#paint0_linear_1_1517)"/>
</g>
<defs>
<linearGradient id="paint0_linear_1_1517" x1="12.2347" y1="2.66663" x2="28.1918" y2="9.41835" gradientUnits="userSpaceOnUse">
<stop stop-color="#0657A6"/>
<stop offset="1" stop-color="#00264B"/>
</linearGradient>
</defs>
</svg>
