<svg xmlns="http://www.w3.org/2000/svg" width="24" height="22" viewBox="0 0 24 22" fill="none">
<g clip-path="url(#clip0_92_53)">
<path d="M23.4674 3.43139C23.3298 2.76816 23.0613 2.16351 22.6887 1.67766C22.3161 1.1918 21.8525 0.841697 21.3438 0.6622C19.4818 0 11.9875 0 11.9875 0C11.9875 0 4.49294 0.0200444 2.63086 0.682244C2.12223 0.861752 1.65853 1.21188 1.28595 1.69775C0.913364 2.18363 0.644895 2.7883 0.507277 3.45156C-0.0559572 7.76576 -0.274446 14.3396 0.522742 18.4812C0.660375 19.1445 0.92885 19.7491 1.30143 20.235C1.67401 20.7208 2.1377 21.0709 2.64633 21.2504C4.5084 21.9126 12.0028 21.9126 12.0028 21.9126C12.0028 21.9126 19.4971 21.9126 21.3591 21.2504C21.8678 21.0709 22.3315 20.7208 22.7041 20.235C23.0767 19.7491 23.3452 19.1445 23.4828 18.4812C24.0769 14.1609 24.2599 7.5911 23.4674 3.43139Z" fill="#FF0000"/>
<path d="M9.60245 15.6518L15.8195 10.9563L9.60245 6.26074V15.6518Z" fill="white"/>
</g>
<defs>
<clipPath id="clip0_92_53">
<rect width="24" height="22" fill="white"/>
</clipPath>
</defs>
</svg>