<?xml version="1.0" encoding="UTF-8"?>
<!DOCTYPE svg PUBLIC "-//W3C//DTD SVG 1.1//EN" "http://www.w3.org/Graphics/SVG/1.1/DTD/svg11.dtd">
<!-- Creator: CorelDRAW 2019 (64-Bit) -->
<svg xmlns="http://www.w3.org/2000/svg" xml:space="preserve" width="125.079mm" height="103.55mm" version="1.1" style="shape-rendering:geometricPrecision; text-rendering:geometricPrecision; image-rendering:optimizeQuality; fill-rule:evenodd; clip-rule:evenodd"
viewBox="0 0 12507.96 10355.03"
 xmlns:xlink="http://www.w3.org/1999/xlink"
 xmlns:xodm="http://www.corel.com/coreldraw/odm/2003">
 <defs>
  <style type="text/css">
   <![CDATA[
    .fil0 {fill:#E39C45}
    .fil1 {fill:#423D8D}
   ]]>
  </style>
 </defs>
 <g id="Layer_x0020_1">
  <metadata id="CorelCorpID_0Corel-Layer"/>
  <g id="_1660628757824">
   <path class="fil0" d="M4749.32 1516.86l1512.96 -1516.86 1511.97 1516.86 2139.48 0 0 1837.85 -5.82 -0.98 -118.33 -18.42 -0.96 -0.98 0 -1692.37 -2065.76 0 -1460.58 -1465.44 -1461.57 1465.44 -2065.76 0 0 1642.9 -0.96 0.98 -6.8 0.98c-38.8,5.81 -77.59,11.62 -115.41,17.44l-1.94 0 0 -1787.4 2139.48 0zm5708.49 4630.98l0 0 -544.08 546.02 0 2144.31 -2139.48 0 -1511.97 1516.85 -1512.96 -1516.85 -2139.48 0 0 -2144.31 -562.51 -563.46 0.98 0 3.87 -0.98 0.97 0 2.9 -0.98 1.95 0 1.94 -0.95 2.91 0 1.95 -1 58.17 -11.63c23.29,-4.84 47.52,-9.68 70.81,-14.53l541.17 542.15 0 2070.6 2065.76 0 1461.57 1465.42 1460.58 -1465.42 2065.76 0 0 -2070.6 524.68 -525.66 1.94 0 64.01 13.58 0.97 0.95 1.94 0 48.49 10.67 1.94 0 4.86 1.96 1.93 0 4.85 0.95 0.96 0 2.93 0.96 2.91 1 6.78 0.95z"/>
   <path class="fil0" d="M4904.48 1891.22l1357.8 -1360.69 1356.79 1360.69 1920.31 0 0 1404.31c-82.45,-12.59 -165.85,-25.19 -249.26,-37.83l0 -1116.28 -1773.84 0 -1254 -1256.91 -1254.99 1256.91 -1773.84 0 0 1072.67c-83.41,10.65 -166.81,23.25 -249.26,34.89l0 -1357.76 1920.29 0zm5115.93 4165.45l0 0 -481.03 482.02 0 1925.11 -1920.31 0 -1356.79 1360.69 -1357.8 -1360.69 -1920.29 0 0 -1925.11 -494.61 -495.59c96.99,-18.43 196.89,-35.88 299.67,-53.34l444.2 445.15 0 1778.7 1773.84 0 1254.99 1256.9 1254 -1256.9 1773.84 0 0 -1778.7 433.52 -434.48c101.83,18.42 200.76,36.87 296.77,56.24z"/>
   <path class="fil0" d="M4904.48 1891.22l1357.8 -1360.69 1356.79 1360.69 1920.31 0 0 1404.31c-82.45,-12.59 -165.85,-25.19 -249.26,-37.83l0 -1116.28 -1773.84 0 -1254 -1256.91 -1254.99 1256.91 -1773.84 0 0 1072.67c-83.41,10.65 -166.81,23.25 -249.26,34.89l0 -1357.76 1920.29 0zm5115.93 4165.45l0 0 -481.03 482.02 0 1925.11 -1920.31 0 -1356.79 1360.69 -1357.8 -1360.69 -1920.29 0 0 -1925.11 -494.61 -495.59c96.99,-18.43 196.89,-35.88 299.67,-53.34l444.2 445.15 0 1778.7 1773.84 0 1254.99 1256.9 1254 -1256.9 1773.84 0 0 -1778.7 433.52 -434.48c101.83,18.42 200.76,36.87 296.77,56.24z"/>
   <path class="fil1" d="M4032.61 6598.84l0 -138.71c0,-48.47 -14.56,-76.59 -61.1,-76.59 -49.47,0 -61.11,28.12 -61.11,76.59 0,165.87 353.02,214.34 353.02,519.85 0,186.23 -99.88,272.54 -292.89,272.54 -147.42,0 -289.99,-50.44 -289.99,-221.13l0 -183.32 229.86 0 0 170.7c0,58.19 18.42,74.67 61.11,74.67 37.81,0 61.1,-16.48 61.1,-74.67 0,-223.06 -352.07,-226.93 -352.07,-546 0,-179.44 117.35,-247.33 295.8,-247.33 155.18,0 287.08,52.37 287.08,217.24l0 156.16 -230.81 0z"/>
   <path class="fil1" d="M4827.87 6244.82l128.02 988.3 -228.88 0 -26.19 -243.45 -125.1 0 -37.83 243.45 -193.97 0 167.79 -988.3 316.16 0zm-144.51 595.49l0 0 -39.76 -440.29 -2.9 0 -39.76 440.29 82.42 0z"/>
   <path class="fil1" d="M4827.87 6244.82l128.02 988.3 -228.88 0 -26.19 -243.45 -125.1 0 -37.83 243.45 -193.97 0 167.79 -988.3 316.16 0zm-144.51 595.49l0 0 -39.76 -440.29 -2.9 0 -39.76 440.29 82.42 0z"/>
   <polygon class="fil1" points="5201.26,6244.82 5285.63,6637.64 5288.54,6637.64 5373.9,6244.82 5597.92,6244.82 5402.98,6869.43 5402.98,7233.13 5172.17,7233.13 5172.17,6869.43 4976.25,6244.82 "/>
   <polygon class="fil1" points="5201.26,6244.82 5285.63,6637.64 5288.54,6637.64 5373.9,6244.82 5597.92,6244.82 5402.98,6869.43 5402.98,7233.13 5172.17,7233.13 5172.17,6869.43 4976.25,6244.82 "/>
   <polygon class="fil1" points="5905.37,7233.13 5674.55,7233.13 5674.55,6244.82 5905.37,6244.82 "/>
   <polygon class="fil1" points="5905.37,7233.13 5674.55,7233.13 5674.55,6244.82 5905.37,6244.82 "/>
   <polygon class="fil1" points="6231.24,7082.78 6480.5,7082.78 6480.5,7233.13 6000.42,7233.13 6000.42,6244.82 6231.24,6244.82 "/>
   <polygon class="fil1" points="6231.24,7082.78 6480.5,7082.78 6480.5,7233.13 6000.42,7233.13 6000.42,6244.82 6231.24,6244.82 "/>
   <path class="fil1" d="M6907.22 6598.84l0 -137.71c0,-39.79 -12.61,-77.59 -61.1,-77.59 -48.48,0 -61.1,37.8 -61.1,77.59l0 554.73c0,40.74 10.67,77.58 61.1,77.58 48.49,0 61.1,-36.84 61.1,-77.58l0 -131.91 -87.28 0 0 -149.33 317.13 0 0 498.51 -133.84 0 -12.6 -50.45c-50.43,57.21 -135.78,69.84 -199.79,69.84 -151.29,0 -236.64,-63.06 -236.64,-289.03l0 -450c0,-225.97 139.65,-288.05 291.92,-288.05 186.22,0 290.95,73.7 290.95,268.65l0 104.75 -229.85 0z"/>
   <path class="fil1" d="M6907.22 6598.84l0 -137.71c0,-39.79 -12.61,-77.59 -61.1,-77.59 -48.48,0 -61.1,37.8 -61.1,77.59l0 554.73c0,40.74 10.67,77.58 61.1,77.58 48.49,0 61.1,-36.84 61.1,-77.58l0 -131.91 -87.28 0 0 -149.33 317.13 0 0 498.51 -133.84 0 -12.6 -50.45c-50.43,57.21 -135.78,69.84 -199.79,69.84 -151.29,0 -236.64,-63.06 -236.64,-289.03l0 -450c0,-225.97 139.65,-288.05 291.92,-288.05 186.22,0 290.95,73.7 290.95,268.65l0 104.75 -229.85 0z"/>
   <path class="fil1" d="M7815.97 6513.49l0 450c0,225.97 -138.7,289.03 -290.95,289.03 -153.24,0 -291.93,-63.06 -291.93,-289.03l0 -450c0,-225.97 138.69,-288.05 291.93,-288.05 152.25,0 290.95,62.08 290.95,288.05zm-352.05 -52.36l0 0 0 554.73c0,40.74 12.6,77.58 61.1,77.58 48.49,0 61.1,-36.84 61.1,-77.58l0 -554.73c0,-39.79 -12.61,-77.59 -61.1,-77.59 -48.5,0 -61.1,37.8 -61.1,77.59z"/>
   <path class="fil1" d="M7815.97 6513.49l0 450c0,225.97 -138.7,289.03 -290.95,289.03 -153.24,0 -291.93,-63.06 -291.93,-289.03l0 -450c0,-225.97 138.69,-288.05 291.93,-288.05 152.25,0 290.95,62.08 290.95,288.05zm-352.05 -52.36l0 0 0 554.73c0,40.74 12.6,77.58 61.1,77.58 48.49,0 61.1,-36.84 61.1,-77.58l0 -554.73c0,-39.79 -12.61,-77.59 -61.1,-77.59 -48.5,0 -61.1,37.8 -61.1,77.59z"/>
   <polygon class="fil1" points="8141.83,6611.42 8264.04,6611.42 8264.04,6244.82 8494.86,6244.82 8494.86,7233.13 8264.04,7233.13 8264.04,6760.8 8141.83,6760.8 8141.83,7233.13 7911.99,7233.13 7911.99,6244.82 8141.83,6244.82 "/>
   <polygon class="fil1" points="8820.73,7233.13 8590.87,7233.13 8590.87,6244.82 8820.73,6244.82 "/>
   <path class="fil1" d="M759.38 3971.51c286.11,670.18 561.55,1343.25 826.31,2019.22 -165.85,41.7 -330.72,84.39 -495.59,129.95 -65.95,-165.84 -132.87,-330.71 -199.79,-495.58 -92.14,25.23 -184.27,51.39 -276.4,78.57 22.3,178.45 45.57,355.9 69.82,533.41 -139.65,41.7 -278.34,85.33 -416.05,129.96 -103.77,-723.52 -192.03,-1450.91 -267.68,-2180.22 252.15,-76.61 505.28,-148.38 759.38,-215.31zm5.82 1348.1l0 0c-117.35,-300.65 -235.67,-600.33 -355.92,-899.07 -1.95,0 -3.89,1 -6.8,1.95 57.23,317.14 115.4,634.28 174.58,950.46 63.03,-17.45 125.11,-35.89 188.14,-53.34z"/>
   <path class="fil1" d="M2269.43 4421.54c-19.4,-99.91 -38.8,-198.83 -57.23,-297.75 -20.36,-104.75 -68.85,-157.1 -178.45,-135.8 -120.26,24.26 -134.8,90.21 -112.5,194 36.85,177.47 269.62,249.22 503.36,364.64 233.73,113.46 469.39,271.57 522.73,601.29 64.99,402.5 -124.13,620.72 -543.11,704.13 -320.03,63.05 -654.65,31.02 -741.93,-331.7 -31.03,-129.97 -62.06,-259.91 -92.13,-389.86 174.58,-41.71 349.14,-80.5 523.72,-116.39 25.21,121.24 51.39,243.43 76.6,364.65 26.2,125.11 72.76,152.27 168.77,132.87 83.4,-16.49 128.98,-62.05 104.74,-187.17 -46.55,-240.5 -269.62,-323.91 -503.35,-427.71 -234.7,-103.77 -479.1,-227.9 -559.6,-567.35 -92.14,-379.19 160.03,-595.49 594.52,-681.79 380.17,-76.63 723.49,-15.53 780.72,341.39 18.42,111.52 36.85,223.07 55.29,335.56 -181.38,30.05 -361.76,62.05 -542.15,96.99z"/>
   <path class="fil1" d="M3585.5 4239.2c96.02,-11.65 192.03,-23.29 289.02,-33.96 -30.07,-265.71 -59.16,-531.46 -89.23,-796.23 189.12,-21.32 378.25,-39.76 567.35,-56.25 61.1,717.68 121.24,1435.37 181.38,2153.05 -169.73,14.54 -339.45,31.03 -509.17,50.43 -37.84,-342.36 -75.65,-683.74 -114.45,-1026.1 -95.04,10.69 -189.12,22.31 -284.16,33.95 43.65,341.37 86.32,682.77 128.98,1024.14 -168.74,21.36 -338.46,44.61 -507.22,70.83 -109.59,-711.88 -219.18,-1423.75 -327.8,-2135.59 188.14,-29.12 376.3,-55.29 565.4,-79.54 32.98,265.72 65.96,530.5 99.9,795.27z"/>
   <path class="fil1" d="M5164.41 3300.4c78.56,283.19 154.2,566.37 226.94,850.54 1.94,0 3.89,-0.98 6.8,-0.98 50.43,-288.02 104.73,-576.08 160.98,-864.12 172.63,-4.83 345.26,-6.79 517.9,-7.74 -112.5,357.86 -219.18,715.73 -320.05,1074.57 114.44,361.76 223.06,723.5 324.9,1086.23 -180.4,0.95 -360.79,3.86 -542.15,9.68 -66.92,-287.08 -136.75,-572.19 -209.48,-858.3 -2.91,0 -4.84,0 -6.78,0 -55.29,290.95 -106.68,581.89 -156.15,872.87 -154.22,7.75 -309.38,17.46 -463.59,30.06 72.75,-393.76 153.23,-786.56 238.58,-1178.35 -127.05,-326.87 -259.91,-652.73 -397.64,-976.64 206.59,-15.51 413.17,-28.14 619.74,-37.82z"/>
   <path class="fil1" d="M5164.41 3300.4c78.56,283.19 154.2,566.37 226.94,850.54 1.94,0 3.89,-0.98 6.8,-0.98 50.43,-288.02 104.73,-576.08 160.98,-864.12 172.63,-4.83 345.26,-6.79 517.9,-7.74 -112.5,357.86 -219.18,715.73 -320.05,1074.57 114.44,361.76 223.06,723.5 324.9,1086.23 -180.4,0.95 -360.79,3.86 -542.15,9.68 -66.92,-287.08 -136.75,-572.19 -209.48,-858.3 -2.91,0 -4.84,0 -6.78,0 -55.29,290.95 -106.68,581.89 -156.15,872.87 -154.22,7.75 -309.38,17.46 -463.59,30.06 72.75,-393.76 153.23,-786.56 238.58,-1178.35 -127.05,-326.87 -259.91,-652.73 -397.64,-976.64 206.59,-15.51 413.17,-28.14 619.74,-37.82z"/>
   <path class="fil1" d="M7661.77 3923.98c-25.22,326.87 -49.47,653.69 -73.72,980.54 -38.8,493.63 -354.96,606.16 -691.5,592.58 -336.54,-13.6 -642.03,-151.33 -641.06,-645.92 1.94,-327.82 3.89,-655.61 5.81,-983.43 1.95,-494.63 347.22,-630.41 726.42,-614.87 379.21,15.49 712.84,178.44 674.05,671.1zm-842.81 -160.98l0 0c-13.58,404.43 -27.14,808.85 -40.72,1213.29 -2.91,88.26 23.27,170.69 131.89,175.54 109.59,3.86 141.6,-75.66 145.48,-163.92 19.39,-404.43 38.79,-808.83 58.19,-1212.31 4.85,-88.26 -22.31,-171.63 -140.62,-176.5 -118.33,-4.84 -151.31,76.61 -154.22,163.9z"/>
   <path class="fil1" d="M7661.77 3923.98c-25.22,326.87 -49.47,653.69 -73.72,980.54 -38.8,493.63 -354.96,606.16 -691.5,592.58 -336.54,-13.6 -642.03,-151.33 -641.06,-645.92 1.94,-327.82 3.89,-655.61 5.81,-983.43 1.95,-494.63 347.22,-630.41 726.42,-614.87 379.21,15.49 712.84,178.44 674.05,671.1zm-842.81 -160.98l0 0c-13.58,404.43 -27.14,808.85 -40.72,1213.29 -2.91,88.26 23.27,170.69 131.89,175.54 109.59,3.86 141.6,-75.66 145.48,-163.92 19.39,-404.43 38.79,-808.83 58.19,-1212.31 4.85,-88.26 -22.31,-171.63 -140.62,-176.5 -118.33,-4.84 -151.31,76.61 -154.22,163.9z"/>
   <path class="fil1" d="M7941.08 3356.64c192.03,16.48 383.08,34.9 574.14,57.21 482.02,54.33 859.28,122.2 777.82,634.28 -36.85,237.61 -145.48,436.44 -455.82,420.93 -0.98,6.77 -1.95,13.58 -2.93,21.34 344.31,47.52 345.27,289.98 302.6,565.41 -93.1,588.69 -326.83,567.36 -865.09,504.32 -171.67,-19.4 -344.3,-35.89 -515.97,-51.42 62.08,-717.67 124.15,-1434.38 185.25,-2152.07zm468.43 928.14l0 0c255.08,29.1 294.84,-16.49 323.92,-245.37 30.07,-231.78 -3.87,-289.02 -259.91,-319.09 -21.34,188.16 -42.67,376.31 -64.01,564.46zm-109.59 967.89l0 0c236.65,27.16 278.35,-2.91 319.07,-319.07 38.8,-304.54 -18.41,-316.16 -244.39,-341.37 -24.25,220.15 -49.46,440.29 -74.68,660.44z"/>
   <path class="fil1" d="M7941.08 3356.64c192.03,16.48 383.08,34.9 574.14,57.21 482.02,54.33 859.28,122.2 777.82,634.28 -36.85,237.61 -145.48,436.44 -455.82,420.93 -0.98,6.77 -1.95,13.58 -2.93,21.34 344.31,47.52 345.27,289.98 302.6,565.41 -93.1,588.69 -326.83,567.36 -865.09,504.32 -171.67,-19.4 -344.3,-35.89 -515.97,-51.42 62.08,-717.67 124.15,-1434.38 185.25,-2152.07zm468.43 928.14l0 0c255.08,29.1 294.84,-16.49 323.92,-245.37 30.07,-231.78 -3.87,-289.02 -259.91,-319.09 -21.34,188.16 -42.67,376.31 -64.01,564.46zm-109.59 967.89l0 0c236.65,27.16 278.35,-2.91 319.07,-319.07 38.8,-304.54 -18.41,-316.16 -244.39,-341.37 -24.25,220.15 -49.46,440.29 -74.68,660.44z"/>
   <path class="fil1" d="M10891.35 4427.36c-76.63,318.09 -152.28,637.19 -228.9,956.26 -116.37,480.05 -448.06,541.15 -779.74,474.25 -331.69,-67.9 -612.94,-252.17 -533.43,-740 54.32,-323.92 108.63,-646.87 161.97,-969.84 79.53,-488.81 443.21,-567.35 816.6,-491.72 374.37,75.66 679.86,289.98 563.5,771.05zm-810.79 -293.89l0 0c-77.59,396.67 -155.18,794.3 -232.77,1190.98 -16.49,87.28 -3.88,172.65 103.77,193.97 107.65,22.31 152.27,-52.37 170.7,-137.71 82.43,-396.66 165.83,-792.37 249.24,-1188.05 17.46,-86.34 4.86,-173.62 -111.53,-196.9 -117.35,-23.26 -162.93,51.42 -179.41,137.71z"/>
   <path class="fil1" d="M11258.9 3910.4c191.07,48.52 382.13,98.94 572.22,152.29 619.72,176.51 799.16,338.45 598.4,951.41 -79.54,244.39 -159.07,488.8 -238.59,733.2 -128.02,391.83 -321.01,574.13 -943.66,395.68 -170.69,-47.52 -341.38,-93.08 -513.05,-135.76 174.58,-699.26 350.12,-1397.56 524.68,-2096.82zm57.23 1930.02l0 0c245.37,69.82 293.86,-12.64 352.05,-211.43 83.41,-284.17 167.79,-568.33 251.18,-852.5 82.45,-276.41 87.3,-342.37 -188.14,-420.91 -138.69,495.6 -277.38,990.19 -415.09,1484.84z"/>
  </g>
 </g>
</svg>
