<?xml version="1.0" encoding="UTF-8"?>
<!DOCTYPE svg PUBLIC "-//W3C//DTD SVG 1.1//EN" "http://www.w3.org/Graphics/SVG/1.1/DTD/svg11.dtd">
<!-- Creator: CorelDRAW 2019 (64-Bit) -->
<svg xmlns="http://www.w3.org/2000/svg" xml:space="preserve" width="200.576mm" height="92.7978mm" version="1.1" style="shape-rendering:geometricPrecision; text-rendering:geometricPrecision; image-rendering:optimizeQuality; fill-rule:evenodd; clip-rule:evenodd"
viewBox="0 0 20057.62 9279.78"
 xmlns:xlink="http://www.w3.org/1999/xlink"
 xmlns:xodm="http://www.corel.com/coreldraw/odm/2003">
 <defs>
  <style type="text/css">
   <![CDATA[
    .fil0 {fill:#FFDC16;fill-rule:nonzero}
    .fil1 {fill:#1C62AB;fill-rule:nonzero}
   ]]>
  </style>
 </defs>
 <g id="Layer_x0020_1">
  <metadata id="CorelCorpID_0Corel-Layer"/>
  <g id="_1660627379872">
   <path class="fil0" d="M18375.43 2141.53c-409.36,0 -779.42,145.81 -1071.03,386.93l0 -1362.57c0,-634.06 -504.2,-1148.85 -1128.75,-1165.89l-12293.64 0c-624.57,17.04 -1128.78,531.83 -1128.78,1165.89l0 1362.57c-291.57,-241.12 -667.27,-386.93 -1076.62,-386.93 -924.96,0 -1676.18,750.99 -1676.61,1681.47l0 1.73c0.42,762.19 516.17,1406.58 1205.59,1608.36l639.23 3846.69 1542.05 0 157 -706.58 12969.88 0 156.99 706.58 1542.06 0 633.63 -3846.69c700.93,-201.86 1211.19,-846.7 1211.19,-1609.3 0,-930.84 -756.99,-1682.26 -1682.19,-1682.26l0 0z"/>
   <path class="fil1" d="M6650.36 3229.4l0 0c-5.61,11.21 -22.44,44.83 -39.23,100.93 -11.22,56.09 -33.65,112.14 -50.48,179.42 -22.44,61.7 -44.87,123.36 -61.7,173.85 -11.19,50.48 -22.4,89.71 -28.01,106.54l-190.68 566.35 745.81 0 -201.86 -622.41c-11.22,-5.65 -16.83,-33.69 -33.66,-89.75 -11.21,-50.48 -28.04,-100.93 -50.48,-156.98 -16.83,-56.1 -28.04,-112.15 -44.84,-162.63 -22.43,-50.49 -28.04,-84.11 -28.04,-95.32l-16.83 0zm5500.83 1407.44l0 0c-33.62,-28.05 -89.71,-44.84 -140.16,-67.28 -61.7,-16.82 -117.76,-28.04 -196.25,-28.04 -78.53,0 -151.41,22.43 -213.08,56.09 -61.7,44.84 -89.74,106.54 -89.74,190.64 0,78.49 28.04,134.58 84.13,179.42 50.45,33.66 123.37,56.09 207.47,56.09 67.28,0 123.37,-11.21 190.64,-33.65 61.67,-33.66 123.37,-67.28 156.99,-106.54l0 -246.73zm0 874.75l0 -196.25 -5.58 -5.61c-50.48,50.48 -106.57,95.32 -162.59,134.58 -61.7,28.05 -123.4,56.06 -173.85,72.88 -61.7,22.44 -112.15,39.27 -157.02,44.88 -50.45,5.61 -89.71,5.61 -123.33,5.61 -112.19,0 -218.72,-11.22 -308.44,-33.66 -89.74,-33.65 -173.81,-78.49 -235.51,-134.55 -67.31,-61.7 -123.33,-145.8 -157.02,-235.55 -39.23,-95.32 -61.67,-207.47 -61.67,-342.02 0,-117.75 22.44,-229.9 67.31,-325.22 50.45,-89.75 112.12,-173.85 190.64,-229.91 84.11,-61.7 173.85,-106.54 280.36,-145.8 100.93,-28.05 213.07,-44.87 325.22,-44.87 89.75,0 179.46,11.22 263.56,16.82 78.5,16.83 168.21,39.27 257.92,72.89l0 -100.9c0,-201.89 -117.76,-297.21 -364.46,-297.21 -201.89,0 -403.71,44.87 -616.79,123.37l-179.46 -515.87c134.58,-56.06 274.78,-100.97 431.76,-134.59 156.99,-28.04 314.01,-44.87 471.03,-44.87 656.06,0 981.29,280.39 981.29,846.74l0 1469.11 -723.37 0zm2781.3 -622.41l0 0c0,112.15 -28.05,218.69 -72.89,308.4 -50.48,89.71 -117.75,162.63 -201.89,224.29 -84.1,56.1 -185.03,112.15 -314.01,140.2 -117.75,28.04 -257.95,44.84 -409.36,44.84 -162.6,0 -325.23,-22.41 -499.04,-67.28 -162.63,-50.45 -330.84,-112.15 -476.6,-201.86l235.51 -499.04c145.73,67.28 269.1,128.94 398.11,156.99 117.76,39.26 229.87,61.66 319.58,61.66 72.92,0 134.62,-16.79 185.07,-39.22 56.06,-28.05 84.1,-67.31 84.1,-128.98 0,-56.09 -22.43,-100.93 -72.88,-134.59 -56.06,-28.04 -134.59,-56.05 -246.7,-95.32 -151.41,-44.83 -274.78,-89.71 -381.32,-134.58 -95.32,-44.84 -185.06,-89.71 -246.73,-145.8 -67.27,-56.06 -112.15,-123.33 -140.19,-196.25 -33.66,-72.89 -44.84,-156.99 -44.84,-252.31 0,-207.47 78.46,-381.32 246.7,-510.29 157.02,-134.59 386.92,-190.64 689.71,-190.64 157.02,0 308.4,11.21 454.2,50.48 151.42,39.26 302.83,89.71 442.99,162.59l-224.3 515.87c-140.19,-72.88 -269.17,-117.72 -381.32,-140.16 -100.93,-22.44 -190.64,-28.04 -252.3,-28.04 -67.28,0 -128.98,11.21 -162.6,39.26 -44.91,33.62 -61.7,61.67 -61.7,89.71 0,44.84 16.79,78.49 50.45,106.54 44.87,28.05 112.15,61.67 213.07,84.1 145.81,44.84 274.78,78.5 386.93,123.37 100.93,44.87 190.64,100.93 269.14,156.98 67.31,61.71 123.36,128.98 157.02,207.51 33.62,84.1 56.09,179.42 56.09,291.57l0 0zm-5063.49 633.62l0 -3078.44 740.16 -269.14 0 3347.58 -740.16 0zm-790.65 -2270.97l487.86 0 0 527.09 -487.86 0 0 835.52c0,117.75 16.83,201.86 56.09,246.69 33.66,44.88 100.93,67.31 213.08,67.31 39.23,0 84.1,0 128.98,0 44.84,-5.61 89.71,-5.61 151.38,-16.82l50.48 577.56c-229.91,67.28 -442.99,95.32 -633.63,95.32 -224.29,0 -398.14,-50.48 -521.51,-162.63 -117.76,-106.53 -179.42,-291.57 -179.42,-543.91l0 -1099.04 -185.03 0 0 -527.09 190.64 0 0 -532.69 728.94 -263.56 0 796.25zm-3061.61 1906.52l0 0 -117.76 364.45 -796.26 0 308.44 -835.48c196.21,190.64 420.51,347.66 605.58,471.03l0 0zm8029.78 723.33l0 0c162.6,-72.88 297.18,-145.8 409.33,-235.51 89.71,-33.62 185.03,-78.49 263.53,-134.58 100.93,-67.28 179.45,-156.99 235.55,-263.53 44.83,-84.14 67.27,-168.24 84.1,-269.17 72.88,179.46 95.32,358.88 67.27,532.7 -84.1,386.92 -465.42,689.71 -1059.78,886l0 -515.91zm-117.75 661.67l0 -151.41 -286 0 0 -515.86 -185.03 0 0 667.27 471.03 0zm-712.16 0l0 -151.41 -330.83 0 0 -112.11 325.22 0 0 -151.41 -325.22 0 0 -106.54 330.83 0 0 -145.8 -521.47 0 0 667.27 521.47 0zm-1003.72 -145.76l-185.03 0 0 -117.76 185.03 0c44.87,0 67.27,22.4 67.27,56.06 0,39.26 -22.4,61.7 -67.27,61.7l0 0zm-5.61 -269.17l-179.42 0 0 -112.15 179.42 0c33.66,0 67.28,22.44 67.28,61.66 0,28.05 -33.62,50.49 -67.28,50.49l0 0zm50.48 414.93l0 0c140.16,0 207.47,-89.71 207.47,-185.03 0,-78.49 -61.7,-145.8 -134.58,-162.63 67.27,-16.83 117.75,-67.27 117.75,-156.98 0,-84.14 -67.27,-162.63 -196.28,-162.63l-403.72 0 0 667.27 409.36 0zm-650.48 0l0 -151.41 -336.45 0 0 -112.11 330.87 0 0 -151.41 -330.87 0 0 -106.54 336.45 0 0 -145.8 -521.48 0 0 667.27 521.48 0zm-779.43 0l0 -667.27 -257.92 0 -145.8 358.88 -140.19 -358.88 -257.92 0 0 667.27 179.42 0 0 -437.37 179.46 437.37 84.1 0 179.43 -437.37 0 437.37 179.42 0zm-3616.75 -1614.91l-330.83 0c-134.59,-72.92 -269.14,-151.41 -403.72,-229.9 -229.91,-151.41 -571.96,-398.15 -818.69,-689.72l560.74 -1497.19c-504.65,185.07 -857.93,358.88 -930.84,706.55 -201.86,1009.33 1766.32,2248.57 4390.6,2775.65 50.48,5.61 112.15,22.44 162.59,28.05l0 426.15c-67.27,-5.61 -134.58,-22.43 -201.86,-33.65 -2803.66,-560.74 -4895.25,-1884.08 -4682.13,-2949.47 84.1,-437.37 555.09,-756.99 1261.64,-953.28l0 -22.4 891.57 0 1104.65 3005.56c-112.14,-39.26 -213.07,-72.92 -319.61,-117.79 -207.47,-78.49 -414.94,-168.2 -616.8,-252.31l-67.31 -196.25z"/>
  </g>
 </g>
</svg>
