<?xml version="1.0" encoding="UTF-8"?>
<!DOCTYPE svg PUBLIC "-//W3C//DTD SVG 1.1//EN" "http://www.w3.org/Graphics/SVG/1.1/DTD/svg11.dtd">
<!-- Creator: CorelDRAW 2019 (64-Bit) -->
<svg xmlns="http://www.w3.org/2000/svg" xml:space="preserve" width="181.289mm" height="43.7692mm" version="1.1" style="shape-rendering:geometricPrecision; text-rendering:geometricPrecision; image-rendering:optimizeQuality; fill-rule:evenodd; clip-rule:evenodd"
viewBox="0 0 18128.92 4376.92"
 xmlns:xlink="http://www.w3.org/1999/xlink"
 xmlns:xodm="http://www.corel.com/coreldraw/odm/2003">
 <defs>
  <style type="text/css">
   <![CDATA[
    .fil0 {fill:#27354E}
    .fil1 {fill:url(#id0)}
   ]]>
  </style>
  <linearGradient id="id0" gradientUnits="userSpaceOnUse" x1="13911.72" y1="3782.18" x2="18392.3" y2="3782.18">
   <stop offset="0" style="stop-opacity:1; stop-color:#CEB687"/>
   <stop offset="0.329412" style="stop-opacity:1; stop-color:#BD9F66"/>
   <stop offset="0.678431" style="stop-opacity:1; stop-color:#D9BE76"/>
   <stop offset="1" style="stop-opacity:1; stop-color:#AA884B"/>
  </linearGradient>
 </defs>
 <g id="Layer_x0020_1">
  <metadata id="CorelCorpID_0Corel-Layer"/>
  <g id="_1660628769088">
   <path class="fil0" d="M15737.43 1101.27l-0.1 0 -2.79 -1.55c-21.7,-12.57 -44.99,-22.56 -68.68,-30.7 -27.58,-9.48 -56.27,-15.77 -85.12,-19.9 -34.63,-4.94 -69.82,-6.76 -104.77,-6.76l-305.01 0 0 634.08 288.89 0c37.42,0 75.13,-1.64 112.32,-6.43 30.17,-3.9 60.43,-9.85 89.52,-19.14 24.45,-7.83 48.36,-17.57 70.86,-30.02 19.04,-10.47 37.23,-22.99 53.19,-37.77 15.02,-13.88 28.42,-29.4 39.98,-46.28 11.08,-16.28 20.18,-33.7 27.14,-52.14 7.49,-19.55 12.93,-39.79 16.52,-60.39 3.9,-21.89 5.6,-44.05 5.6,-66.22 0,-21.31 -1.61,-42.69 -5.39,-63.67 -3.66,-19.98 -9.15,-39.6 -16.49,-58.54 -7.06,-18.18 -16.11,-35.48 -27.1,-51.68 -11.37,-16.81 -24.72,-32.21 -39.46,-46.18 -14.86,-14.12 -31.44,-26.3 -49.11,-36.71zm-2397.04 798.18l624.91 0 -313.47 -688.9 -311.44 688.9 0 0zm-1930.85 -857.09l0 612.63 251.28 0c66.03,0 135.09,-5.21 199.08,-22.37 46.19,-12.35 91.85,-31.57 128.94,-62.27 69.29,-57.36 97.85,-134.05 97.85,-223.04 0,-41.6 -7.01,-82.52 -24.21,-120.56 -16.9,-37.66 -42.29,-69.67 -73.32,-96.73 -36.62,-31.91 -82.75,-51.83 -129.17,-64.51 -65.51,-17.96 -136.84,-23.15 -204.53,-23.15l-245.92 0 0 0zm-4159.97 47.82c-44.96,18.77 -88.02,41.45 -128.75,68.12 -40.54,26.58 -78.44,56.89 -113.11,90.75 -34.53,33.7 -65.55,70.68 -92.64,110.56 -27.72,40.58 -51.12,83.85 -70.35,129.03 -40.68,95.17 -58.87,195.96 -58.87,299.27 0,52.24 4.64,104.48 14.78,155.83 9.71,49.21 24.38,97.25 44.09,143.33 19.23,45.18 42.63,88.43 70.35,129.07 27.09,39.88 58.11,76.88 92.64,110.55 34.67,33.87 72.52,64.2 113.07,90.76 41.39,27.09 85.35,50.01 131.11,69.02 46.6,19.31 95.06,33.77 144.61,43.29 51.49,9.9 103.92,14.43 156.35,14.43 52.49,0 104.92,-4.53 156.46,-14.43 49.49,-9.56 98,-23.89 144.55,-43.26 90.43,-37.46 171.76,-90.12 240.96,-159.32 33.86,-33.88 64.37,-70.87 91.05,-110.61 27.32,-40.87 50.54,-84.32 69.8,-129.5 40.7,-95.16 58.88,-195.9 58.88,-299.16 0,-52.36 -4.59,-104.55 -14.77,-155.89 -9.71,-49.17 -24.4,-97.25 -44.11,-143.38 -19.26,-45.18 -42.48,-88.62 -69.8,-129.41 -26.68,-39.77 -57.19,-76.79 -91.05,-110.6 -33.77,-33.81 -70.81,-64.08 -110.74,-90.47 -40.35,-26.72 -83.22,-49.3 -127.84,-67.98l-0.15 0 -2.23 -0.84c-46.6,-19.32 -95.06,-33.77 -144.6,-43.3 -51.49,-9.94 -103.92,-14.49 -156.41,-14.49 -52.43,0 -104.86,4.55 -156.35,14.49 -49.55,9.53 -98.01,23.98 -144.61,43.3l-2.23 0.84 -0.09 0 0 0zm-3142.37 1443.5c-11.12,11.9 -22.72,23.32 -34.79,34.31 -26.07,23.68 -53.71,45.61 -82.73,65.68 -28.77,19.91 -58.85,37.9 -90.02,53.72 -30.72,15.63 -62.38,29.32 -94.74,41.07 -32.21,11.7 -65.13,21.41 -98.47,29.09 -63.78,14.54 -128.95,22.86 -194.33,22.86 -106.16,0 -210.44,-17.04 -309.9,-54.47 -48.12,-18.09 -94.15,-41.26 -137.29,-69.26 -43.19,-28.07 -83.06,-60.81 -119.26,-97.46 -37.44,-37.95 -70.25,-80.01 -98.46,-125.19 -29.78,-47.6 -54.31,-98.29 -74.37,-150.66 -21.92,-57.42 -37.09,-117.23 -46.99,-177.83 -10.92,-66.74 -15.56,-134.52 -15.56,-202.16l0 -1124.99 247.01 60.61 0 1059.03c0,53.39 3.13,107.15 11.28,159.91 7.07,45.47 17.94,90.47 33.78,133.71 14.17,38.56 31.54,76.07 52.82,111.21 19.15,31.7 41.44,61.4 67.22,88.03 24.58,25.32 51.69,48.21 81.23,67.67 29.19,19.23 60.46,35.04 93.19,47.44 69.11,26.12 141.45,38.19 215.3,38.19 35.81,0 71.54,-3.02 106.9,-8.94 36.51,-6.21 72.44,-15.34 107.53,-27.19 34.61,-11.66 67.76,-27.09 99.03,-46 31.93,-19.22 61.51,-41.96 88.63,-67.49 28.37,-26.67 53.29,-56.73 74.9,-89.16 23.96,-35.94 43.84,-74.57 60.39,-114.41 18.57,-44.68 30.94,-91.85 39.06,-139.46 9.63,-56.74 13.3,-114.83 13.3,-172.31l0 -1040.23 246.96 -60.61 0 2028.93 -241.62 -75.78 0 -197.86zm13774.7 -645.13l-1117.67 0 0 831.29 -247.01 83.89 0 -1984.23 247.01 0 0 846.25 1117.67 0 0 -846.25 247.01 0 0 1984.23 -247.01 -83.89 0 -831.29zm-2710.95 10.72l0 856.95 -246.95 0 0 -1936.72 557.3 0c52.35,0 104.82,3.03 156.65,10.33 45.89,6.52 91.56,16.51 135.52,31.48 37.74,12.9 74.6,28.75 109.45,48.18l0.2 0 2.74 1.55c32.83,18.59 63.66,40.57 91.47,66.18 26.1,24.01 49.59,50.78 69.63,80.05 19.75,28.94 35.95,60.06 48.51,92.73 12.44,32.37 21.74,65.71 27.79,99.77 6.31,34.86 9.43,70.2 9.43,105.63 0,32.29 -2.74,64.56 -7.82,96.47 -5.21,32.36 -12.97,64.25 -23.01,95.45 -10.81,33.45 -25.77,65.27 -44.48,95.08 -19.23,30.69 -42.02,58.88 -67.63,84.44 -58.32,58.12 -131.64,98.26 -208.56,126.23 -46.23,16.78 -94.74,27.8 -143.39,34.88 -56.17,8.13 -113.2,11.32 -169.94,11.32l-296.91 0 0 0zm-1104.06 222.99l-827.87 0 -327.4 707.13 -218.6 -99.8 5.02 -10.93c289.79,-624.4 579.63,-1248.82 869.09,-1873.45l1.8 -3.73 134.37 -67.23 910.44 1956.58 -222.67 94.74 -324.18 -703.31 0 0zm-2044.34 -307.97l601.27 875.37 -204.2 128.19 -638.55 -940.04 -371.54 0 0 878.41 -246.97 0 0 -1936.72 522.46 0c54.36,0 108.89,2.98 162.74,10.33 46.94,6.43 93.7,16.32 138.6,31.48 74.89,25.3 147.07,62.01 205.48,116.01 25.95,23.91 49.36,50.5 69.2,79.62 19.56,28.75 35.53,59.63 47.69,92.12 11.75,31.31 20.65,63.48 26.68,96.35 5.91,32.72 9.04,65.89 9.04,99.18 0,111.33 -29.65,214.16 -98.57,302.12 -58.5,74.73 -137.65,128.49 -223.33,167.58l0 0zm-1756.26 -994.13l0.19 0 1 0.19c27.09,4.83 53.89,10.93 80.52,17.76 27.8,7.14 55.27,15.43 82.46,24.53 61.86,20.61 122.63,45.24 182.18,71.66l45.08 20.05 -89.23 234.88 -51.83 -26.38c-47.13,-23.97 -95.58,-45.46 -145.32,-63.28 -45.94,-16.49 -92.92,-29.97 -140.76,-39.6 -47.24,-9.56 -94.98,-16.67 -142.96,-21.4 -48.55,-4.74 -97.43,-7.02 -146.31,-7.02 -53.01,0 -106.15,4.35 -158.3,14.12 -49.41,9.3 -97.87,23.26 -144.43,42.3 -44.94,18.42 -88,40.96 -128.45,67.83 -39.45,26.09 -75.97,56.16 -109.23,89.79 -33.3,33.74 -63.13,70.77 -89.1,110.51 -26.71,40.75 -49.26,83.99 -67.73,129.09 -39.46,96.43 -56.41,198.75 -56.41,302.72 0,47.78 3.97,95.49 12.03,142.67l0.14 1.13c8.1,47.08 20.13,93.39 35.91,138.55 31.4,90.22 79.71,170.79 144.75,240.86 32.91,35.46 69.73,66.92 109.55,94.35 42.78,29.42 88.54,54.1 136.09,74.65 111.12,48.03 235.32,64.07 355.49,64.07 87.25,0 179.05,-6.23 263.78,-27.94 36.95,-9.41 73.33,-20.79 109.08,-33.94 26.1,-9.63 51.83,-20.29 77.16,-31.79l0 -548.51 247.02 -111.89 0 815.14 -30.03 14.2c-54.84,26.11 -110.98,49.74 -168.25,70.25 -55.13,19.75 -111.4,36.47 -168.38,50.17 -110.03,26.38 -222.54,40.53 -335.79,40.53 -72.28,0 -144.51,-6 -215.7,-18.8 -68.16,-12.16 -135.05,-30.74 -199.51,-56.04 -62,-24.33 -121.73,-53.99 -178.24,-89.27 -55.13,-34.48 -106.81,-74.23 -154.18,-118.8 -47.13,-44.29 -89.48,-93.23 -126.52,-146.18 -37.46,-53.56 -69.11,-110.83 -95.06,-170.71 -54.94,-126.41 -79.72,-260.5 -79.72,-398.06 0,-68.45 6.15,-136.71 19.51,-203.87 12.84,-64.9 32.55,-128.18 58.79,-188.9 25.57,-59.03 56.55,-115.53 93.26,-168.34 36.38,-52.24 77.97,-100.5 124.15,-144.31 46.61,-44.24 97.52,-83.62 151.9,-117.82 55.9,-35.24 115.06,-64.85 176.5,-89.1 63.93,-25.29 130.34,-43.79 197.99,-56.08 70.43,-12.78 141.86,-18.74 213.43,-18.74 26.05,0 52.05,0.51 78.06,1.46 25.02,0.94 49.98,2.19 74.94,4.07 50.39,3.8 100.7,10.38 150.48,19.24l0 0zm-2925.55 -5.69c68.11,-12.97 137.35,-19.08 206.76,-19.08 69.48,0 138.83,6.15 207.13,19.08 66.41,12.64 131.4,31.83 194,57.46 60.83,24.87 119.42,55.02 174.65,90.79 54.15,35.07 104.68,75.27 151.01,120.12 46.04,44.67 87.62,93.76 124.05,146.5 36.85,53.41 68.26,110.25 94.25,169.63 54,123.53 79.73,254.08 79.73,388.94 0,67.85 -6.44,135.57 -20.05,202.09 -13.15,64.82 -33.05,127.89 -59.68,188.34 -26.05,59.03 -57.45,115.45 -94.25,168.43 -36.52,52.64 -78.07,101.5 -124.05,146.13 -46.33,44.86 -96.92,85.08 -151.05,120.17 -55.19,35.76 -113.78,65.9 -174.61,90.81 -128.02,52.28 -262.97,76.53 -401.13,76.53 -69.41,0 -138.61,-6.16 -206.76,-19.12 -66.17,-12.61 -130.93,-31.79 -193.21,-57.45 -60.44,-24.92 -118.56,-55.05 -173.26,-90.82 -53.82,-35.1 -103.83,-75.39 -149.74,-120.36 -45.57,-44.6 -86.68,-93.45 -122.87,-145.92 -36.52,-53.05 -67.87,-109.47 -93.82,-168.4 -54.62,-123.86 -79.73,-255.25 -79.73,-390.43 0,-67.35 6.5,-134.51 19.99,-200.56 13.21,-64.76 33.21,-127.8 59.74,-188.38 25.9,-59.25 57.08,-116.1 93.64,-169.42 36.18,-52.74 77.39,-101.74 123.05,-146.47 45.91,-44.9 95.92,-85.26 149.68,-120.3 54.76,-35.83 112.88,-65.94 173.32,-90.85 62.28,-25.68 126.99,-44.82 193.21,-57.46l0 0zm-51.06 -365.95l448.56 -448.52 168.06 190.89 -437.11 437.14 -179.51 -179.51 0 0zm-1737.13 593.84l0 1713.86 -246.97 0 0 -1713.86 -731.48 0 81.02 -222.86 1628.92 0 -81.1 222.86 -650.39 0 0 0z"/>
   <path class="fil0" d="M1285.64 208.26l1356.53 2915.23 -269.88 114.83 -496.18 -1076.49 -1333.21 0 -277.35 598.98 -265.55 -117.9c369.96,-797.79 739.83,-1595.58 1110.23,-2393.15l157.94 -79 17.47 37.5zm-622.8 1689.83l1093.14 0 -548.44 -1205.06 -544.7 1205.06 0 0z"/>
   <path class="fil1" d="M18128.92 3522.04l-95.96 -54.42 -193.31 391.71 -206.29 -391.71 -97.23 54.42 245.17 460.55c-1.76,4.31 -7.4,16.19 -16.86,35.67 -9.52,19.46 -19.47,38.69 -29.89,57.69 -18.14,32.86 -36.71,59.91 -55.75,81.04 -19.05,21.27 -38.51,38.32 -58.37,51.25 -19.88,13.02 -40.44,22.96 -61.61,29.85 -21.17,6.95 -42.59,12.54 -64.23,16.92l44.14 92.06c13.83,-1.7 32.64,-5.82 56.42,-12.31 23.77,-6.49 49.92,-18.38 78.48,-35.73 28.52,-17.28 57.7,-41.86 87.53,-73.87 29.85,-32.04 57.7,-74.37 83.7,-127.14l284.06 -575.98zm-652.62 2.64c-17.24,-13.81 -37.61,-24.42 -60.91,-31.76 -23.4,-7.35 -51.49,-11.05 -84.36,-11.05 -31.98,0 -62.9,6.01 -92.75,18.15 -29.79,12.12 -54.23,25.9 -73.27,41.49l-3.88 0 -83.04 -51.87 0 620.02 115.48 0 0 -434.48c16.44,-32.93 36.95,-54.76 61.58,-65.55 24.63,-10.8 48.21,-16.2 70.72,-16.2 32.82,0 63.14,11.65 90.8,35l59.63 -103.75 0 0zm-710.92 199.75l-298.37 0c9.53,-40.63 27.9,-72.84 55.14,-96.62 27.23,-23.79 60.3,-35.67 99.23,-35.67 38.93,0 70.49,11.88 94.7,35.67 24.24,23.78 40.62,55.99 49.3,96.62l0 0zm131.02 91.01c0,-57.28 -8.25,-106.58 -24.68,-147.9 -16.4,-41.3 -37.57,-75.16 -63.52,-101.6 -25.96,-26.57 -55.32,-45.85 -88.24,-58.15 -32.83,-12.08 -65.27,-18.15 -97.29,-18.15 -43.21,0 -82.57,7.59 -118,22.69 -35.47,15.11 -65.55,36.58 -90.62,64.23 -24.86,27.7 -44.52,60.53 -58.35,98.62 -14.07,37.99 -20.98,79.48 -20.98,124.47 0,46.7 7.34,89.96 22.26,129.74 14.69,39.79 35.67,74.12 62.95,103.12 27.01,28.99 59.63,51.44 97.67,67.46 38.04,16 80.43,23.96 127.14,23.96 45.8,0 88.67,-7.53 128.4,-22.65 39.8,-15.4 77.4,-36.32 112.88,-63.37l-53.2 -87.77c-30.26,23.31 -59.48,41.07 -87.53,53.15 -28.13,12.11 -58.59,18.18 -91.46,18.18 -28.56,0 -55.56,-5.15 -81.1,-15.53 -25.47,-10.61 -47.31,-24.87 -65.49,-43.01 -18.16,-18.42 -32.22,-40.04 -42.16,-65.32 -9.95,-25.05 -13.61,-52.58 -11,-82.17l442.32 0 0 0zm-668.16 176.2c-10.38,6.95 -21.6,13.21 -33.73,18.85 -12.12,5.59 -23.35,8.38 -33.72,8.38 -9.52,0 -19.04,-1.52 -28.56,-4.5 -9.47,-3.09 -18.14,-8 -25.96,-14.93 -7.77,-6.9 -14.2,-15.82 -19.41,-26.57 -5.23,-10.84 -7.78,-23.59 -7.78,-38.32l0 -747.11 -119.36 36.28 0 726.42c0,27.66 6.3,52.09 18.61,73.28 12.32,21.17 27.9,38.92 46.47,53.2 18.33,14.24 38.69,24.9 60.54,31.76 21.83,6.92 42.15,10.44 61.2,10.44 12.07,0 25.05,-1.14 38.88,-3.28 13.83,-2.12 24.68,-5.88 32.44,-11.04l10.38 -112.86 0 0zm-420.43 0c-10.33,6.95 -21.55,13.21 -33.68,18.85 -12.12,5.59 -23.34,8.38 -33.76,8.38 -9.48,0 -19,-1.52 -28.52,-4.5 -9.52,-3.09 -18.14,-8 -25.96,-14.93 -7.77,-6.9 -14.26,-15.82 -19.42,-26.57 -5.21,-10.84 -7.82,-23.59 -7.82,-38.32l0 -747.11 -119.31 36.28 0 726.42c0,27.66 6.3,52.09 18.57,73.28 12.37,21.17 27.9,38.92 46.47,53.2 18.37,14.24 38.74,24.9 60.53,31.76 21.88,6.92 42.2,10.44 61.2,10.44 12.12,0 25.11,-1.14 38.93,-3.28 13.83,-2.12 24.63,-5.88 32.44,-11.04l10.33 -112.86 0 0zm-612.36 9.08c-6.01,3.46 -14.67,6.49 -25.71,9.1 -11.22,2.62 -23.36,4.93 -36.09,7.1 -12.98,2.19 -26.38,3.9 -39.98,5.22 -13.83,1.28 -26.39,1.95 -37.42,1.95 -24.21,0 -44.1,-8.86 -60.12,-26.62 -15.76,-17.73 -23.77,-39.57 -23.77,-65.53 0,-25.05 6.31,-45.55 18.57,-61.57 12.55,-16.01 29.23,-28.33 49.73,-36.99 20.76,-8.62 44.53,-14.26 71.58,-16.85 27.23,-2.61 55.31,-3.47 84.54,-2.61l-1.33 186.8 0 0zm116.76 133.62l0 -476.07c0,-34.58 -6.72,-62.91 -20.08,-84.98 -13.44,-22.02 -30.08,-39.56 -49.96,-52.53 -19.9,-12.97 -41.26,-21.8 -64.18,-26.57 -22.98,-4.74 -44.34,-7.16 -64.24,-7.16 -37.18,0 -76.73,3.89 -118.7,11.71 -41.92,7.75 -83.65,24.21 -125.19,49.25l46.71 93.41c29.4,-20.74 60.1,-35.43 92.12,-44.09 31.97,-8.67 61.82,-12.93 89.47,-12.93 32.03,0 56.46,7.53 73.33,22.64 16.86,15.16 25.29,36.56 25.29,64.28l0 46.65c-43.24,-0.9 -85.4,1.27 -126.46,6.48 -41.07,5.17 -77.64,15.59 -109.61,31.13 -31.98,15.57 -57.97,37.66 -77.87,66.16 -19.9,28.52 -29.85,65.28 -29.85,110.22 0,22.51 4.8,45 14.31,67.5 9.52,22.5 22.45,42.83 38.94,60.97 16.44,18.15 35.62,32.88 57.68,44.09 22.08,11.23 45.63,16.81 70.68,16.81 14.73,0 30.94,-0.6 48.65,-1.93 17.76,-1.27 35.24,-2.79 52.58,-4.5 17.28,-1.7 33.24,-3.89 47.97,-6.5 14.69,-2.59 26.38,-4.76 35.06,-6.47l93.35 32.43 0 0zm-703.16 31.12c0,13.84 -6.52,27.66 -19.46,41.5 -12.97,13.83 -29.65,26.19 -49.92,36.94 -20.37,10.86 -43.25,19.7 -68.78,26.63 -25.48,6.91 -51.25,10.42 -77.16,10.42 -38.08,0 -66.41,-6.49 -84.98,-19.47 -18.61,-13.03 -27.9,-30.28 -27.9,-51.92 0,-19.04 6.26,-35.41 18.81,-49.25 12.56,-13.83 27.9,-25.11 46.04,-33.77 18.2,-8.62 37.42,-14.93 57.74,-18.83 20.33,-3.86 38.28,-5.8 53.81,-5.8 21.65,0 41.49,0.65 59.68,1.94 18.2,1.31 34.15,4.08 47.98,8.42 13.84,4.32 24.68,10.62 32.45,18.86 7.77,8.14 11.69,19.66 11.69,34.33l0 0zm-49.3 -463.03c0,17.21 -3.22,33.7 -9.76,49.25 -6.48,15.57 -15.1,29.17 -25.9,40.87 -10.81,11.65 -23.78,20.75 -38.94,27.2 -15.12,6.53 -30.88,9.75 -47.33,9.75 -35.47,0 -64.65,-12.52 -87.57,-37.62 -22.93,-25.09 -34.4,-55.75 -34.4,-92.07 0,-34.58 11.47,-63.82 34.4,-87.58 22.92,-23.78 51.67,-35.67 86.26,-35.67 34.61,0 63.8,12.08 87.58,36.32 23.77,24.21 35.66,54.05 35.66,89.55l0 0zm-391.72 509.41l0 2.7c0.14,22.97 5.54,44.44 16.15,64.42 10.85,20.31 26.19,37.65 46.09,51.87 19.85,14.3 43.25,25.53 70.05,33.72 26.77,8.23 56.61,12.37 89.53,12.37 43.19,0 84.92,-5.84 125.14,-17.54 40.21,-11.65 75.64,-27.41 106.39,-47.32 30.69,-19.89 55.32,-43 73.93,-69.43 18.57,-26.39 27.86,-53.82 27.86,-82.32 0,-37.2 -7.96,-66.22 -24.02,-86.93 -15.91,-20.78 -36.28,-35.9 -60.92,-45.37 -24.66,-9.53 -51.25,-15.57 -79.75,-18.19 -28.58,-2.61 -55.38,-4.79 -80.43,-6.53 -25.11,-1.7 -46.52,-4.51 -64.23,-8.37 -17.77,-3.9 -27.47,-12.81 -29.18,-26.63 -1.76,-12.08 7.57,-20.56 27.9,-25.27 20.32,-4.77 42.58,-10.59 66.79,-17.52 23.29,-6.06 46.69,-14.96 70,-26.63 23.41,-11.62 44.34,-26.55 62.95,-44.69 18.62,-18.18 33.48,-39.8 44.76,-64.86 11.23,-25.13 16.87,-54.51 16.87,-88.29 0,-37.12 -7.16,-69.77 -21.42,-97.89 -14.26,-28.09 -32.87,-51.23 -55.79,-69.41 -22.93,-18.19 -47.99,-31.76 -75.21,-40.81 -27.25,-9.11 -53.82,-13.66 -79.77,-13.66 -43.25,0 -80.01,6.67 -110.28,20.13 -30.26,13.41 -55.13,30.91 -74.6,52.52 -19.46,21.62 -33.48,45.64 -42.16,72.02 -8.62,26.33 -12.98,52.96 -12.98,79.77 0,16.42 2.19,33.7 6.5,51.86 4.31,18.19 11.69,35.47 22.07,51.92 10.37,16.36 23.78,31.73 40.22,45.97 16.43,14.33 36.33,25.78 59.62,34.45 -30.21,7.76 -53.38,16.81 -69.33,27.25 -16.06,10.35 -24.02,27.23 -24.02,50.52 0,19.9 6.67,36.15 20.08,48.7 13.46,12.51 30.93,22.21 52.53,29.18 2.6,2.59 3.88,3.89 3.88,3.89 -1.71,0 -4.73,1.03 -9.04,3.22 -4.31,2.16 -7.34,3.68 -9.1,4.53 -20.74,5.22 -38.88,13 -54.47,23.37 -15.58,10.36 -28.75,22.72 -39.6,36.98 -10.75,14.25 -19,29.8 -24.58,46.71 -5.45,16.33 -8.29,32.82 -8.43,49.59l0 0z"/>
  </g>
 </g>
</svg>
