<?xml version="1.0" encoding="UTF-8"?>
<!DOCTYPE svg PUBLIC "-//W3C//DTD SVG 1.1//EN" "http://www.w3.org/Graphics/SVG/1.1/DTD/svg11.dtd">
<!-- Creator: CorelDRAW 2019 (64-Bit) -->
<svg xmlns="http://www.w3.org/2000/svg" xml:space="preserve" width="100.345mm" height="87.0865mm" version="1.1" style="shape-rendering:geometricPrecision; text-rendering:geometricPrecision; image-rendering:optimizeQuality; fill-rule:evenodd; clip-rule:evenodd"
viewBox="0 0 10034.52 8708.65"
 xmlns:xlink="http://www.w3.org/1999/xlink"
 xmlns:xodm="http://www.corel.com/coreldraw/odm/2003">
 <defs>
  <style type="text/css">
   <![CDATA[
    .fil0 {fill:#E31E24}
    .fil1 {fill:#393185}
   ]]>
  </style>
 </defs>
 <g id="Layer_x0020_1">
  <metadata id="CorelCorpID_0Corel-Layer"/>
  <g id="_1660456915808">
   <path class="fil0" d="M3047.66 181.37c0,0 -891.5,932.94 -891.5,2736.7 0,1803.7 787.87,2964.72 787.87,2964.72l-2881.85 -2923.27 2985.48 -2778.15z"/>
   <path class="fil1" d="M3524.52 3000.98c80.31,-1864.19 525.61,-3048.56 1664.85,-2999.51 1139.27,49.08 1307.1,969.38 1307.1,969.38 0,0 -825.87,-97.83 -864.24,792.85 -38.33,890.66 831.62,928.11 852.28,929.05 20.71,0.87 825.15,-69.07 1020.66,-686.89 262.83,-830.55 -331.71,-1741.57 -331.71,-1741.57l2861.06 2798.87 -2944.03 2840.38c0,0 373.24,-704.91 290.25,-1700.08 -53.79,-645.77 -891.48,-767.08 -912.21,-767.08 -20.73,0 -891.47,0 -891.47,891.49 0,891.48 829.29,829.3 829.29,829.3 0,0 -207.33,912.24 -1347.62,912.24 -1140.3,0 -1534.21,-1202.51 -1534.21,-3068.43z"/>
   <path class="fil1" d="M126.44 7456.33c105.78,-161.71 292.36,-246.74 485.19,-246.74 140.98,0 259.16,43.55 354.56,147.21l4.15 -4.13c-10.36,-78.8 45.59,-134.79 128.52,-134.79 78.8,0 132.72,53.91 132.72,132.71 0,70.49 -16.59,138.92 -16.59,209.41 0,56 16.59,111.94 16.59,167.92 0,95.42 -89.16,143.09 -174.19,143.09 -111.95,0 -161.69,-51.85 -157.57,-163.82 2.09,-60.1 2.09,-89.11 -37.32,-136.84 -43.52,-51.8 -111.97,-64.26 -176.23,-64.26 -192.83,0 -288.2,122.36 -288.2,460.3 0,317.21 95.37,447.86 298.59,447.86 55.95,0 118.18,-8.29 159.63,-47.7 49.76,-45.62 51.83,-91.22 51.83,-153.42 0,-47.7 0,-85.03 26.95,-126.49 26.98,-41.47 76.74,-58.05 126.48,-58.05 134.76,0 194.92,97.45 194.92,221.87 0,313.06 -296.49,458.19 -574.33,458.19 -188.7,0 -371.16,-53.91 -503.85,-196.97 -124.4,-134.78 -178.29,-360.75 -178.29,-541.14 0,-163.78 35.25,-375.29 126.44,-514.21z"/>
   <path class="fil1" d="M1774.57 7856.49c0,95.38 -91.2,138.92 -178.31,138.92 -101.61,0 -190.72,-72.56 -190.72,-178.29 0,-130.65 132.68,-248.83 451.98,-248.83 103.67,0 244.66,10.38 335.9,62.22 109.85,62.18 132.68,161.71 132.68,319.32l0 389.76c0,80.85 12.46,97.43 35.23,97.43 16.6,0 33.2,-4.13 49.78,-4.13 66.37,0 103.66,55.97 103.66,116.13 0,116.09 -116.09,159.63 -213.54,159.63 -95.38,0 -201.12,-35.24 -236.36,-132.71 -97.47,93.32 -223.95,132.71 -354.56,132.71 -188.67,0 -369.06,-99.51 -369.06,-310.98 0,-491.4 642.75,-236.37 642.75,-510.08 0,-78.79 -72.57,-116.09 -141.02,-116.09 -35.25,0 -68.41,6.22 -68.41,47.66l0 37.33zm209.43 350.43c-60.14,64.26 -300.63,33.14 -300.63,143.05 0,72.55 58.02,97.46 118.15,97.46 122.34,0 182.48,-72.61 182.48,-194.95l0 -45.56z"/>
   <path class="fil1" d="M3012.03 7844.05l4.14 0c33.16,-169.98 159.63,-265.38 333.82,-265.38 145.1,0 273.67,109.88 273.67,259.17 0,105.72 -66.35,203.19 -178.29,203.19 -78.82,0 -145.15,-51.83 -145.15,-134.76 0,-29.02 12.44,-56.01 24.87,-80.86 -232.22,-16.61 -238.45,298.56 -238.45,464.4 0,122.36 12.44,145.15 37.33,145.15 10.37,0 20.73,-4.15 31.12,-8.28 12.42,-4.16 24.87,-6.24 37.33,-6.24 68.41,0 91.2,55.99 91.2,118.19 0,78.8 -35.25,143.06 -103.66,143.06 -111.96,0 -194.89,-20.72 -279.92,-20.72 -78.8,0 -157.58,20.72 -232.22,20.72 -68.41,0 -103.67,-64.26 -103.67,-143.06 0,-62.2 22.81,-118.19 91.23,-118.19 14.52,0 24.9,4.16 37.33,6.24 10.36,2.07 20.73,8.28 31.12,8.28 24.86,0 37.33,-20.71 37.33,-145.15l0 -298.51c0,-128.58 -10.39,-145.14 -37.33,-145.14 -20.76,0 -41.49,14.51 -68.45,14.51 -68.42,0 -91.23,-56.03 -91.23,-118.21 0,-78.8 35.26,-143.07 103.67,-143.07 60.14,0 101.59,20.73 143.09,20.73 45.59,0 89.13,-20.73 136.83,-20.73 45.63,0 64.29,14.52 64.29,89.16l0 155.5z"/>
   <path class="fil1" d="M4027.44 7844.05l4.18 0c33.14,-169.98 159.61,-265.38 333.79,-265.38 145.13,0 273.7,109.88 273.7,259.17 0,105.72 -66.35,203.19 -178.31,203.19 -78.81,0 -145.17,-51.83 -145.17,-134.76 0,-29.02 12.46,-56.01 24.89,-80.86 -232.22,-16.61 -238.43,298.56 -238.43,464.4 0,122.36 12.42,145.15 37.33,145.15 10.35,0 20.71,-4.15 31.08,-8.28 12.46,-4.16 24.89,-6.24 37.33,-6.24 68.43,0 91.22,55.99 91.22,118.19 0,78.8 -35.22,143.06 -103.66,143.06 -111.96,0 -194.89,-20.72 -279.9,-20.72 -78.8,0 -157.6,20.72 -232.24,20.72 -68.41,0 -103.66,-64.26 -103.66,-143.06 0,-62.2 22.82,-118.19 91.22,-118.19 14.52,0 24.9,4.16 37.33,6.24 10.36,2.07 20.71,8.28 31.08,8.28 24.89,0 37.35,-20.71 37.35,-145.15l0 -298.51c0,-128.58 -10.37,-145.14 -37.35,-145.14 -20.72,0 -41.43,14.51 -68.41,14.51 -68.4,0 -91.22,-56.03 -91.22,-118.21 0,-78.8 35.25,-143.07 103.66,-143.07 60.12,0 101.59,20.73 143.07,20.73 45.61,0 89.17,-20.73 136.85,-20.73 45.62,0 64.27,14.52 64.27,89.16l0 155.5z"/>
   <path class="fil1" d="M5018.45 8196.55c-53.88,0 -60.11,8.29 -60.11,43.51 0,118.2 93.3,207.37 213.57,207.37 72.56,0 109.88,-18.68 167.92,-80.88 66.39,-70.47 89.18,-82.95 157.56,-82.95 80.91,0 143.09,47.68 143.09,130.65 0,157.58 -203.2,294.4 -472.73,294.4 -340.02,0 -551.52,-228.05 -551.52,-563.97 0,-327.56 203.19,-576.39 543.23,-576.39 319.27,0 499.7,190.75 499.7,497.63 0,95.38 -12.47,130.63 -136.85,130.63l-503.86 0zm246.74 -230.16c47.73,0 51.85,-12.46 51.85,-35.25 0,-55.97 -51.85,-128.56 -155.52,-128.56 -105.76,0 -192.81,80.88 -192.81,134.77 0,26.95 26.96,29.04 87.05,29.04l209.43 0z"/>
   <path class="fil1" d="M5911.65 7910.39c0,-80.84 -6.22,-80.84 -70.53,-80.84 -80.84,0 -126.42,-18.68 -126.42,-109.88 0,-85.01 31.06,-122.36 116.09,-122.36 78.78,0 80.86,-8.27 82.99,-68.43 8.25,-225.97 203.14,-319.29 408.41,-319.29 68.45,0 153.42,12.45 213.53,43.55 70.52,37.29 124.43,103.66 124.43,184.54 0,91.2 -62.23,161.71 -155.55,161.71 -68.38,0 -140.96,-47.68 -140.96,-122.31 0,-22.82 6.27,-35.25 18.66,-56 -14.52,-6.23 -24.85,-8.31 -41.45,-8.31 -76.72,0 -103.7,45.62 -103.7,118.22 0,66.32 4.19,66.32 70.5,66.32 124.44,0 147.23,33.2 147.23,112.01 0,95.32 -26.98,120.23 -174.15,120.23 -37.32,0 -43.58,24.87 -43.58,80.84l0 379.42c0,124.44 8.32,145.15 37.33,145.15 12.46,0 22.84,-4.15 33.17,-8.28 10.41,-2.08 22.87,-6.24 35.26,-6.24 68.45,0 91.24,55.99 91.24,118.19 0,78.8 -35.26,143.06 -122.36,143.06 -89.16,0 -172.03,-20.72 -257.05,-20.72 -78.78,0 -157.63,18.68 -226.01,20.72 -78.78,0 -114.03,-64.26 -114.03,-143.06 0,-62.2 22.79,-118.19 91.24,-118.19 14.47,0 26.93,4.16 37.31,6.24 12.41,4.13 22.79,8.28 31.07,8.28 33.19,0 37.33,-43.54 37.33,-145.15l0 -379.42z"/>
   <path class="fil1" d="M7572.74 8126.04c0,344.18 -174.21,582.61 -537.04,582.61 -360.76,0 -553.57,-215.64 -553.57,-570.18 0,-352.45 192.81,-570.18 551.56,-570.18 339.98,0 539.05,223.93 539.05,557.75zm-748.51 12.43c0,240.51 107.83,308.96 192.81,308.96 72.58,0 134.82,-20.75 167.94,-89.17 31.14,-64.29 45.66,-149.28 45.66,-219.79 0,-240.51 -91.24,-308.92 -203.2,-308.92 -97.51,0 -203.21,76.72 -203.21,308.92z"/>
   <path class="fil1" d="M8049.17 8208.98c0,43.5 0,116.11 24.93,157.57 24.85,39.41 70.45,64.26 116.09,64.26 60.12,0 116.11,-31.1 149.23,-82.93 43.65,-66.34 47.79,-136.83 47.79,-213.55l0 -143.03c0,-112 -8.33,-145.14 -37.39,-145.14 -10.4,0 -20.73,4.1 -31.06,6.2 -12.46,4.13 -22.79,8.31 -37.33,8.31 -68.38,0 -91.24,-56.03 -91.24,-118.21 0,-78.8 35.25,-143.07 126.49,-143.07 68.4,0 113.98,20.73 182.43,20.73 56.04,0 95.43,-20.73 147.23,-20.73 53.91,0 66.37,22.79 66.37,68.41l0 622.01c0,124.44 14.46,145.15 37.33,145.15 20.71,0 41.45,-14.52 68.37,-14.52 68.45,0 91.24,55.99 91.24,118.19 0,78.8 -35.25,143.06 -122.3,143.06 -51.85,0 -99.57,-20.72 -147.23,-20.72 -45.58,0 -91.24,20.72 -130.63,20.72 -51.85,0 -74.64,-35.22 -74.64,-68.42l0 -82.89 -4.19 0c-76.72,114.01 -225.93,178.27 -364.84,178.27 -213.59,0 -342.09,-124.4 -342.09,-333.83l0 -383.52c0,-126.5 -14.54,-145.14 -37.39,-145.14 -10.33,0 -20.73,4.1 -31.12,6.2 -12.4,4.13 -22.73,8.31 -37.26,8.31 -68.44,0 -91.24,-56.03 -91.24,-118.21 0,-78.8 35.26,-143.07 132.69,-143.07 66.32,0 120.23,20.73 188.68,20.73 64.31,0 95.38,-20.73 147.23,-20.73 53.85,0 53.85,39.41 53.85,93.3l0 516.29z"/>
   <path class="fil1" d="M9334.47 7844.05l4.14 0c33.12,-169.98 159.63,-265.38 333.77,-265.38 145.17,0 273.67,109.88 273.67,259.17 0,105.72 -66.32,203.19 -178.29,203.19 -78.78,0 -145.1,-51.83 -145.1,-134.76 0,-29.02 12.41,-56.01 24.87,-80.86 -232.2,-16.61 -238.47,298.56 -238.47,464.4 0,122.36 12.46,145.15 37.33,145.15 10.39,0 20.79,-4.15 31.12,-8.28 12.46,-4.16 24.85,-6.24 37.31,-6.24 68.45,0 91.24,55.99 91.24,118.19 0,78.8 -35.25,143.06 -103.7,143.06 -111.95,0 -194.87,-20.72 -279.84,-20.72 -78.85,0 -157.63,20.72 -232.28,20.72 -68.44,0 -103.63,-64.26 -103.63,-143.06 0,-62.2 22.8,-118.19 91.24,-118.19 14.52,0 24.86,4.16 37.32,6.24 10.33,2.07 20.73,8.28 31.06,8.28 24.87,0 37.33,-20.71 37.33,-145.15l0 -298.51c0,-128.58 -10.4,-145.14 -37.33,-145.14 -20.73,0 -41.45,14.51 -68.38,14.51 -68.44,0 -91.24,-56.03 -91.24,-118.21 0,-78.8 35.19,-143.07 103.63,-143.07 60.13,0 101.65,20.73 143.1,20.73 45.58,0 89.18,-20.73 136.82,-20.73 45.6,0 64.31,14.52 64.31,89.16l0 155.5z"/>
  </g>
 </g>
</svg>
