<?xml version="1.0" encoding="UTF-8"?>
<!DOCTYPE svg PUBLIC "-//W3C//DTD SVG 1.1//EN" "http://www.w3.org/Graphics/SVG/1.1/DTD/svg11.dtd">
<!-- Creator: CorelDRAW 2019 (64-Bit) -->
<svg xmlns="http://www.w3.org/2000/svg" xml:space="preserve" width="128.769mm" height="89.3089mm" version="1.1" style="shape-rendering:geometricPrecision; text-rendering:geometricPrecision; image-rendering:optimizeQuality; fill-rule:evenodd; clip-rule:evenodd"
viewBox="0 0 12876.92 8930.88"
 xmlns:xlink="http://www.w3.org/1999/xlink"
 xmlns:xodm="http://www.corel.com/coreldraw/odm/2003">
 <defs>
  <style type="text/css">
   <![CDATA[
    .fil0 {fill:#67B437;fill-rule:nonzero}
   ]]>
  </style>
 </defs>
 <g id="Layer_x0020_1">
  <metadata id="CorelCorpID_0Corel-Layer"/>
  <g id="_1660627420064">
   <path class="fil0" d="M5907.89 8920.56l0 -616.13 81.75 0 0 616.13 -81.75 0zm198.63 -197.92l76.59 -6.88c3.59,30.97 12.05,56.36 25.39,76.29 13.33,19.8 33.99,35.86 61.95,48.19 27.97,12.19 59.52,18.36 94.52,18.36 31.12,0 58.51,-4.59 82.32,-13.91 23.8,-9.32 41.45,-22.09 53.06,-38.3 11.62,-16.2 17.5,-33.84 17.5,-52.77 0,-19.22 -5.59,-36 -16.78,-50.48 -11.19,-14.35 -29.69,-26.4 -55.5,-36.29 -16.5,-6.31 -53.07,-16.35 -109.72,-29.98 -56.65,-13.62 -96.23,-26.38 -118.89,-38.43 -29.4,-15.49 -51.2,-34.71 -65.54,-57.51 -14.49,-22.81 -21.66,-48.48 -21.66,-76.73 0,-31.26 8.89,-60.38 26.53,-87.34 17.64,-27.11 43.31,-47.62 77.31,-61.67 33.84,-14.06 71.56,-21.09 113.01,-21.09 45.6,0 85.91,7.32 120.76,22.09 34.85,14.63 61.67,36.29 80.45,64.97 18.79,28.54 28.83,60.95 30.26,97.09l-78.3 6.03c-4.16,-38.87 -18.36,-68.27 -42.6,-88.06 -24.23,-19.93 -60.09,-29.83 -107.42,-29.83 -49.33,0 -85.33,9.03 -107.85,27.11 -22.51,18.06 -33.84,39.86 -33.84,65.39 0,22.09 8.03,40.3 23.95,54.64 15.77,14.2 56.65,28.97 122.91,43.89 66.25,15.06 111.72,28.11 136.39,39.3 35.71,16.49 62.24,37.29 79.31,62.67 17.06,25.24 25.53,54.36 25.53,87.34 0,32.84 -9.33,63.54 -28.11,92.51 -18.79,28.97 -45.61,51.48 -80.75,67.55 -35.14,16.06 -74.58,24.09 -118.61,24.09 -55.64,0 -102.25,-8.17 -139.83,-24.38 -37.72,-16.21 -67.12,-40.59 -88.49,-73.28 -21.51,-32.56 -32.7,-69.42 -33.85,-110.58zm757.26 197.92l0 -543.84 -203.08 0 0 -72.29 487.9 0 0 72.29 -203.08 0 0 543.84 -81.74 0zm382.78 0l0 -616.13 81.75 0 0 616.13 -81.75 0zm227.03 0l0 -616.13 273.07 0c54.93,0 96.66,5.59 125.2,16.64 28.54,11.04 51.34,30.55 68.41,58.51 17.07,27.97 25.53,58.95 25.53,92.79 0,43.75 -14.2,80.6 -42.45,110.58 -28.25,29.98 -71.85,48.91 -130.94,57.08 21.65,10.33 38.01,20.65 49.19,30.69 23.81,21.8 46.32,49.2 67.41,82.04l106.56 167.8 -101.83 0 -81.46 -128.22c-23.66,-37.14 -43.31,-65.4 -58.66,-85.05 -15.49,-19.65 -29.25,-33.27 -41.45,-41.16 -12.05,-7.74 -24.52,-13.19 -37.14,-16.35 -9.18,-1.86 -24.24,-2.87 -45.32,-2.87l-94.37 0 0 273.65 -81.75 0zm81.75 -344.21l174.97 0c37.29,0 66.26,-3.87 87.2,-11.61 20.94,-7.61 36.85,-19.94 47.61,-37.01 10.9,-16.92 16.35,-35.28 16.35,-55.21 0,-29.11 -10.47,-53.21 -31.55,-72 -21.08,-18.79 -54.36,-28.11 -99.82,-28.11l-194.76 0 0 203.94zm513.01 44.32c0,-102.11 27.53,-182.14 82.46,-239.94 54.93,-57.8 125.78,-86.63 212.69,-86.63 56.94,0 108.13,13.63 153.89,40.74 45.6,27.1 80.45,64.97 104.41,113.58 23.95,48.48 35.99,103.55 35.99,165.08 0,62.39 -12.62,118.32 -37.86,167.51 -25.24,49.34 -60.95,86.62 -107.13,111.87 -46.33,25.38 -96.24,38 -149.73,38 -58.08,0 -109.86,-14.05 -155.61,-42.02 -45.61,-27.97 -80.31,-66.11 -103.83,-114.59 -23.53,-48.33 -35.28,-99.53 -35.28,-153.6zm84.32 1.43c0,74.15 19.94,132.52 59.81,175.12 39.87,42.59 89.92,63.96 150.16,63.96 61.38,0 111.72,-21.51 151.45,-64.54 39.58,-43.02 59.37,-104.12 59.37,-183.28 0,-50.06 -8.46,-93.8 -25.38,-131.09 -16.92,-37.29 -41.74,-66.26 -74.29,-86.77 -32.7,-20.51 -69.28,-30.83 -109.86,-30.83 -57.66,0 -107.28,19.79 -148.87,59.37 -41.59,39.58 -62.39,105.56 -62.39,198.06zm613.41 298.46l0 -616.13 81.74 0 0 253.85 318.39 0 0 -253.85 81.75 0 0 616.13 -81.75 0 0 -290 -318.39 0 0 290 -81.74 0zm550.43 0l236.36 -616.13 89.63 0 250.84 616.13 -92.79 0 -71.28 -186.74 -259.44 0 -66.84 186.74 -86.48 0zm177.27 -252.99l209.96 0 -64.25 -170.82c-19.36,-51.91 -33.99,-94.79 -44.17,-128.64 -8.46,40.16 -19.79,79.6 -33.99,118.61l-67.55 180.85zm557.03 252.99l0 -543.84 -203.08 0 0 -72.29 487.91 0 0 72.29 -203.08 0 0 543.84 -81.75 0zm589.17 0l0 -616.13 231.18 0c47.05,0 84.77,6.17 113.3,18.64 28.4,12.48 50.63,31.7 66.69,57.66 16.21,25.81 24.24,52.92 24.24,81.32 0,26.24 -7.17,51.05 -21.37,74.29 -14.19,23.23 -35.71,42.02 -64.53,56.36 37.28,10.9 65.97,29.54 85.9,55.94 20.08,26.24 30.12,57.36 30.12,93.22 0,28.97 -6.17,55.79 -18.36,80.6 -12.19,24.81 -27.25,43.89 -45.17,57.36 -17.93,13.34 -40.45,23.52 -67.41,30.41 -27.11,6.88 -60.23,10.33 -99.53,10.33l-235.06 0zm81.75 -357.12l133.23 0c36.14,0 62.1,-2.43 77.73,-7.17 20.8,-6.16 36.43,-16.49 46.9,-30.83 10.47,-14.34 15.77,-32.27 15.77,-53.93 0,-20.51 -4.87,-38.57 -14.77,-54.07 -9.75,-15.63 -23.8,-26.38 -42.02,-32.12 -18.21,-5.74 -49.48,-8.6 -93.65,-8.6l-123.19 0 0 186.72zm0 284.83l153.45 0c26.39,0 44.89,-1 55.65,-3.01 18.64,-3.3 34.42,-8.89 47.04,-16.78 12.62,-7.89 22.94,-19.36 31.12,-34.42 8.18,-15.06 12.19,-32.41 12.19,-52.06 0,-23.09 -5.88,-43.02 -17.78,-60.09 -11.76,-17.07 -28.11,-28.97 -49.05,-35.86 -20.8,-6.88 -50.92,-10.32 -90.07,-10.32l-142.55 0 0 212.54zm470.69 -227.6c0,-102.11 27.54,-182.14 82.47,-239.94 54.93,-57.8 125.78,-86.63 212.69,-86.63 56.93,0 108.13,13.63 153.89,40.74 45.6,27.1 80.45,64.97 104.4,113.58 23.95,48.48 36,103.55 36,165.08 0,62.39 -12.62,118.32 -37.86,167.51 -25.24,49.34 -60.95,86.62 -107.13,111.87 -46.33,25.38 -96.24,38 -149.74,38 -58.08,0 -109.85,-14.05 -155.6,-42.02 -45.61,-27.97 -80.32,-66.11 -103.84,-114.59 -23.52,-48.33 -35.28,-99.53 -35.28,-153.6zm84.33 1.43c0,74.15 19.94,132.52 59.81,175.12 39.87,42.59 89.92,63.96 150.16,63.96 61.38,0 111.72,-21.51 151.44,-64.54 39.59,-43.02 59.38,-104.12 59.38,-183.28 0,-50.06 -8.46,-93.8 -25.38,-131.09 -16.93,-37.29 -41.74,-66.26 -74.3,-86.77 -32.69,-20.51 -69.27,-30.83 -109.85,-30.83 -57.66,0 -107.28,19.79 -148.87,59.37 -41.59,39.58 -62.39,105.56 -62.39,198.06zm898.23 56.65l0 -72.28 260.74 0 0 228.32c-40.02,31.84 -81.32,55.93 -123.92,72 -42.59,16.06 -86.33,24.09 -131.08,24.09 -60.53,0 -115.45,-12.91 -164.93,-38.86 -49.34,-25.82 -86.77,-63.39 -111.87,-112.3 -25.24,-49.05 -37.86,-103.83 -37.86,-164.21 0,-59.95 12.48,-115.89 37.58,-167.95 25.09,-51.91 61.09,-90.49 108.13,-115.59 47.04,-25.24 101.26,-37.87 162.64,-37.87 44.46,0 84.76,7.18 120.76,21.66 35.99,14.49 64.25,34.56 84.61,60.24 20.51,25.81 36,59.52 46.61,100.97l-73.57 20.07c-9.32,-31.26 -20.8,-55.93 -34.42,-74 -13.77,-17.93 -33.27,-32.27 -58.8,-43.03 -25.39,-10.75 -53.64,-16.2 -84.76,-16.2 -37.15,0 -69.27,5.73 -96.52,17.06 -27.11,11.33 -48.91,26.25 -65.69,44.89 -16.63,18.5 -29.54,38.87 -38.72,60.96 -15.63,38.29 -23.52,79.59 -23.52,124.2 0,55.07 9.47,101.11 28.25,138.25 18.93,37 46.47,64.54 82.47,82.47 36.14,17.93 74.43,26.96 115.02,26.96 35.28,0 69.7,-6.88 103.26,-20.51 33.56,-13.77 58.94,-28.25 76.3,-43.89l0 -115.45 -180.71 0zm612.54 241.81l0 -616.13 81.75 0 0 616.13 -81.75 0zm-99.82 -650.55c0,-6.02 -4.3,-9.47 -10.32,-9.47l-102.41 0c-8.6,0 -14.62,4.31 -17.2,16.35l-46.47 188.45c-0.86,2.59 -0.86,6.03 -0.86,7.75 0,5.16 1.72,8.61 7.74,8.61l86.91 0c8.61,0 12.05,-5.17 16.35,-16.36l64.54 -188.45c0.86,-2.58 1.72,-5.16 1.72,-6.88z"/>
   <g>
    <path class="fil0" d="M-0 6161.14l822.81 0c161.81,0 293.17,22.11 392.84,65.89 99.68,44.21 182.25,107.18 247.72,189.33 65.06,82.58 112.18,178.08 141.38,287.34 29.6,109.27 44.2,224.78 44.2,346.97 0,191.42 -21.68,339.89 -65.47,445.4 -43.37,105.5 -103.84,193.92 -181.41,265.23 -77.57,71.31 -160.56,118.85 -249.39,142.63 -121.35,32.52 -231.45,48.79 -329.87,48.79l-822.81 0 0 -1791.58zm552.99 405.36l0 978.36 135.95 0c115.94,0 198.51,-12.93 247.72,-38.37 48.79,-25.85 87.16,-70.48 115.1,-134.28 27.94,-64.23 41.7,-167.65 41.7,-311.11 0,-189.75 -30.86,-319.45 -92.99,-389.51 -62.14,-70.06 -165.15,-105.09 -309.03,-105.09l-138.45 0z"/>
    <path class="fil0" d="M1868.76 7058.16c0,-292.35 81.33,-520.06 244.39,-682.71 163.06,-163.05 389.93,-244.38 681.02,-244.38 298.19,0 527.98,80.07 689.37,239.8 161.4,160.15 241.88,384.51 241.88,672.69 0,209.35 -35.02,380.76 -105.5,514.62 -70.48,133.88 -172.66,238.14 -305.69,312.79 -133.46,74.65 -299.44,111.76 -498.37,111.76 -201.84,0 -369.08,-32.11 -501.69,-96.33 -132.21,-64.64 -239.8,-166.41 -321.96,-305.69 -82.16,-138.88 -123.45,-313.2 -123.45,-522.55zm553 1.24c0,180.59 33.78,310.7 100.93,389.52 67.55,78.82 159.3,118.44 275.24,118.44 118.86,0 211.44,-38.78 276.5,-115.94 65.48,-77.57 98,-216.03 98,-416.62 0,-168.49 -34.2,-291.51 -102.17,-369.08 -68.4,-77.99 -160.57,-116.78 -277.33,-116.78 -111.77,0 -201.85,39.63 -269.41,118.44 -67.98,78.83 -101.76,209.77 -101.76,392.02z"/>
    <path class="fil0" d="M4547.93 6010.99c0,-20.58 -6.86,-34.3 -30.87,-34.3l-346.47 0c-34.29,0 -48.01,20.58 -65.17,65.17l-257.26 751.24c-3.44,10.28 -6.87,20.58 -6.87,27.44 0,24.01 17.15,37.73 41.17,37.73l408.19 0c34.31,0 58.33,-17.15 68.61,-65.17l185.23 -751.24c3.44,-10.28 3.44,-24 3.44,-30.87z"/>
    <path class="fil0" d="M4623.32 7360.1l525.46 -32.94c11.27,85.07 34.62,150.13 69.65,194.33 57.13,72.15 138.45,108.43 244.38,108.43 78.82,0 139.71,-18.35 182.25,-55.46 42.95,-37.12 64.22,-80.07 64.22,-128.87 0,-46.29 -20.02,-87.99 -60.47,-124.69 -40.45,-36.7 -134.71,-70.9 -282.75,-103.84 -242.71,-54.21 -415.37,-126.78 -518.79,-217.28 -104.26,-90.07 -156.39,-205.17 -156.39,-345.3 0,-91.74 26.69,-178.49 80.07,-260.23 53.38,-82.15 133.45,-146.37 240.63,-193.08 107.18,-46.71 253.98,-70.06 440.39,-70.06 228.95,0 403.27,42.53 523.38,128.02 120.1,85.08 191.41,220.62 214.35,406.61l-520.46 30.86c-13.76,-81.32 -42.95,-140.54 -87.16,-177.24 -44.62,-37.11 -105.92,-55.46 -183.91,-55.46 -64.22,0 -113.02,13.76 -145.54,40.87 -32.53,27.1 -48.8,60.47 -48.8,99.67 0,28.35 13.35,53.8 39.62,76.73 25.44,23.77 87.16,45.46 184.75,65.89 241.88,52.13 414.95,105.09 519.2,158.48 104.68,53.38 180.99,119.27 228.54,198.5 47.54,78.82 71.31,167.23 71.31,265.24 0,114.68 -31.69,220.61 -95.08,317.78 -63.81,96.75 -152.22,170.56 -266.49,220.61 -113.85,50.04 -257.31,75.06 -430.79,75.06 -304.44,0 -515.46,-58.8 -632.64,-175.99 -117.19,-117.18 -183.5,-266.06 -198.93,-446.64z"/>
    <polygon class="fil0" points="6400.33,6161.14 8084.3,6161.14 8084.3,6604.02 7518.8,6604.02 7518.8,7952.71 6965.82,7952.71 6965.82,6604.02 6400.33,6604.02 "/>
    <polygon class="fil0" points="8332.46,6161.14 8885.45,6161.14 8885.45,7512.32 9751.21,7512.32 9751.21,7952.71 8332.46,7952.71 "/>
    <polygon class="fil0" points="10023.98,6161.14 10579.47,6161.14 10579.47,7952.71 10023.98,7952.71 "/>
    <polygon class="fil0" points="10977.75,6161.14 11530.74,6161.14 11530.74,6837.98 12110.83,6161.14 12846.9,6161.14 12192.98,6834.22 12876.92,7952.71 12195.9,7952.71 11818.08,7217.06 11530.74,7516.49 11530.74,7952.71 10977.75,7952.71 "/>
   </g>
   <path class="fil0" d="M6396.09 2103.28c-2710.59,0 -5078.39,1463.05 -6360.37,3641.58l3124.06 0c423.46,-558.48 956.31,-1028.87 1566.1,-1380.82l1467.84 1380.82 1009.26 0 -851.26 -1985.32c321.07,-61.4 652.26,-94.75 991.2,-94.75 494.24,0 971.82,70.23 1425.2,198.08l-860.74 1881.99 997.88 0 1333.39 -1208.61c494.25,327.79 929.8,737.15 1287.51,1208.61l1230.46 0c-1282.21,-2178.53 -3649.92,-3641.58 -6360.53,-3641.58zm4777.28 240.58c0,312.51 -253.35,565.85 -565.86,565.85 -312.52,0 -565.83,-253.34 -565.83,-565.85 0,-312.66 253.31,-566.01 565.83,-566.01 312.51,0 565.86,253.35 565.86,566.01zm-5966.05 -1379.46c0,532.65 -431.79,964.34 -964.44,964.34 -532.61,0 -964.4,-431.69 -964.4,-964.34 0,-532.75 431.79,-964.4 964.4,-964.4 532.65,0 964.44,431.65 964.44,964.4z"/>
  </g>
 </g>
</svg>
