<?xml version="1.0" encoding="UTF-8"?>
<!DOCTYPE svg PUBLIC "-//W3C//DTD SVG 1.1//EN" "http://www.w3.org/Graphics/SVG/1.1/DTD/svg11.dtd">
<!-- Creator: CorelDRAW 2019 (64-Bit) -->
<svg xmlns="http://www.w3.org/2000/svg" xml:space="preserve" width="140.332mm" height="78.8452mm" version="1.1" style="shape-rendering:geometricPrecision; text-rendering:geometricPrecision; image-rendering:optimizeQuality; fill-rule:evenodd; clip-rule:evenodd"
viewBox="0 0 14033.22 7884.51"
 xmlns:xlink="http://www.w3.org/1999/xlink"
 xmlns:xodm="http://www.corel.com/coreldraw/odm/2003">
 <defs>
  <style type="text/css">
   <![CDATA[
    .fil0 {fill:#fff;fill-rule:nonzero}
   ]]>
  </style>
 </defs>
 <g id="Layer_x0020_1">
  <metadata id="CorelCorpID_0Corel-Layer"/>
  <g id="_1660626252960">
   <path class="fil0" d="M3128.14 3791.98l-450.55 0c-189.47,-100.81 -374.95,-207.71 -554.72,-321.22 -324.34,-204.83 -797.27,-543.33 -1127.86,-943.48l762.14 -2067.28c-691.92,257.3 -1180.64,501.66 -1277.32,982.23 -277.98,1381.76 2430.1,3091.93 6048.49,3819.83 2921.35,587.7 5542.19,355.27 6590.05,-483.17 130.56,-42.31 255.79,-100.66 368.11,-180.28 135.2,-95.87 243.71,-217.19 321.8,-363.34 61.73,-115.54 97.01,-239.33 110.66,-367.4 106.49,246.66 140.71,490.04 93.56,724.45 -295.19,1467.36 -3666.67,2026.9 -7530.29,1249.61 -3863.88,-777.31 -6756.67,-2597.08 -6461.48,-4064.41 121.07,-601.77 759.34,-1050.8 1736.47,-1317.64l8.41 -22.82 1227.57 0 1524.25 4134.52c-150.04,-50.77 -299.18,-103.85 -447.21,-159.35 -285.98,-107.2 -572.1,-224.66 -853.25,-353.8l-88.83 -266.46zm-1641.17 322.79l-164.84 506.32 -1099.02 0 427.01 -1158.32c271.12,256.67 572.1,478.2 836.85,652zm4218.2 -2630.11l668.41 0 0 726.27 -668.41 0 0 1150.43c0,162.87 24.62,276.39 73.92,340.61 49.19,64.32 151.04,96.45 305.27,96.45 51.43,0 107.07,-2.14 167.11,-6.44 59.95,-4.25 128.55,-10.65 205.66,-19.28l77.12 796.94c-317.11,85.68 -610.64,128.54 -880.78,128.54 -306.21,0 -543.39,-73.87 -711.51,-221.71 -168.23,-147.84 -252.27,-399.51 -252.27,-755.19l0 -1510.35 -250.62 0 0 -726.27 263.49 0 0 -732.68 1002.61 -366.39 0 1099.07zm1095.71 3136.43l0 -4248.31 1015.49 -372.78 0 4621.09 -1015.49 0zm6974.97 -880.54c0,158.59 -33.27,299.96 -99.61,424.17 -66.46,124.36 -158.57,228.21 -276.36,311.75 -117.91,83.56 -261.42,146.79 -430.65,189.6 -169.29,42.79 -356.69,64.29 -562.35,64.29 -227.14,0 -457.42,-32.18 -690.88,-96.39 -233.6,-64.33 -455.34,-154.28 -665.22,-270l334.19 -694.1c192.82,98.62 373.77,172.55 543.11,221.72 169.16,49.34 315.89,73.92 440.23,73.92 102.85,0 190.6,-17.07 263.5,-51.43 72.84,-34.24 109.29,-89.98 109.29,-167.09 0,-85.67 -35.37,-148.8 -106.07,-189.6 -70.68,-40.68 -181.04,-84.55 -330.93,-131.75 -205.72,-59.94 -380.36,-121.01 -523.85,-183.13 -143.6,-62.09 -259.31,-131.82 -347.08,-208.91 -87.86,-77.14 -152.13,-166 -192.75,-266.75 -40.82,-100.58 -61.14,-217.38 -61.14,-350.28 0,-286.97 111.38,-520.57 334.25,-700.52 222.73,-179.99 541.95,-269.94 957.63,-269.94 218.54,0 429.48,25.71 633.09,77.09 203.48,51.45 405.87,126.46 607.33,224.96l-314.9 713.44c-192.83,-102.83 -365.39,-169.22 -517.4,-199.24 -152.15,-29.96 -271.03,-44.99 -356.71,-44.99 -94.29,0 -169.3,20.34 -224.91,61.04 -55.77,40.78 -83.58,84.65 -83.58,131.77 0,55.71 26.69,102.8 80.32,141.37 53.51,38.57 148.85,77.12 286,115.69 201.39,55.77 376.99,113.58 527.07,173.52 149.9,60.05 274.08,130.79 372.75,212.11 98.49,81.43 172.41,177.84 221.73,289.21 49.21,111.49 73.9,244.25 73.9,398.47zm-3826.09 856.51l0 -268.05 -19.18 -6.39c-68.06,72.39 -142.59,131.93 -223.38,178.71 -80.9,46.87 -159.61,82.96 -236.18,108.52 -76.58,25.51 -149.02,43.61 -217.01,54.27 -68.12,10.56 -125.59,15.96 -172.36,15.96 -153.2,0 -293.61,-19.16 -421.28,-57.46 -127.68,-38.33 -237.28,-98.96 -328.71,-181.93 -91.56,-82.96 -163.88,-189.3 -217.04,-319.17 -53.26,-129.73 -79.82,-286.12 -79.82,-469.14 0,-170.16 31.93,-320.16 95.79,-449.98 63.78,-129.75 150.97,-237.19 261.7,-322.36 110.62,-85.1 237.17,-148.9 379.79,-191.49 142.48,-42.51 294.6,-63.83 456.39,-63.83 123.34,0 241.49,7.47 354.23,22.32 112.73,14.96 235.07,47.87 367.06,98.97l0 -148.54c0,-271.16 -170.28,-406.81 -510.64,-406.81 -272.41,0 -557.53,59.63 -855.31,178.74l-242.62 -710.64c182.95,-84.37 381.9,-147.59 596.82,-189.89 214.85,-42.19 430.87,-63.33 647.91,-63.33 902.1,0 1353.22,387.26 1353.22,1161.72l0 2029.8 -989.38 0zm0 -1206.4l0 0c-59.65,-34 -127.67,-63.8 -204.28,-89.35 -76.6,-25.52 -163.86,-38.29 -261.69,-38.29 -114.91,0 -213.88,27.7 -296.84,82.96 -82.96,55.34 -124.46,140.46 -124.46,255.36 0,106.39 37.2,187.3 111.74,242.53 74.38,55.39 171.19,83 290.4,83 85.06,0 172.32,-18.08 261.72,-54.28 89.35,-36.1 163.76,-83.95 223.41,-143.61l0 -338.32zm-7592.88 -1944.55l0 0c-8.63,21.47 -24.69,70.68 -48.19,147.84 -23.58,77.09 -49.29,158.55 -77.12,244.23 -27.88,85.71 -53.62,166.08 -77.11,240.98 -23.61,75.04 -37.57,121.11 -41.78,138.21l-263.52 784.08 1021.91 0 -276.39 -848.39c-8.61,-17.07 -22.46,-59.93 -41.76,-128.51 -19.29,-68.5 -41.76,-141.43 -67.47,-218.52 -25.72,-77.14 -49.33,-151.06 -70.71,-221.74 -21.49,-70.7 -34.32,-116.71 -38.59,-138.18l-19.27 0z"/>
   <path class="fil0" d="M4235.65 7884.51c187.66,0 339.83,-69.44 449.18,-159.57l0 -465.45 -475.76 0 0 209.83 203.88 0 0 125.59c-42.83,28.06 -96.02,42.83 -165.49,42.83 -164.01,0 -280.72,-119.67 -280.72,-286.64 0,-161.05 115.23,-286.64 264.47,-286.64 101.97,0 175.85,35.46 249.73,97.5l168.43 -202.41c-109.35,-94.57 -237.9,-150.72 -419.64,-150.72 -320.62,0 -557.04,236.42 -557.04,537.83 0,316.21 240.85,537.85 562.96,537.85zm916.91 -20.69l286.64 0 0 -313.25 125.6 0 208.35 313.25 330.98 0 -246.77 -360.52c128.55,-54.67 212.79,-159.57 212.79,-317.69 0,-104.9 -31.05,-184.7 -91.61,-245.27 -69.44,-69.46 -178.79,-110.82 -336.9,-110.82l-489.08 0 0 1034.3zm286.64 -537.85l0 -248.22 187.66 0c96.05,0 155.14,41.38 155.14,122.63 0,78.32 -56.13,125.59 -153.66,125.59l-189.14 0zm1603.98 558.54c319.17,0 558.55,-240.85 558.55,-537.85 0,-299.93 -236.42,-537.83 -555.59,-537.83 -319.14,0 -558.51,240.85 -558.51,537.83 0,299.96 236.41,537.85 555.55,537.85zm2.96 -258.58c-156.61,0 -264.47,-130.03 -264.47,-279.27 0,-152.17 104.9,-279.25 261.51,-279.25 158.12,0 265.98,130.04 265.98,279.25 0,152.2 -104.9,279.27 -263.02,279.27zm1478.39 257.1c294.04,0 484.66,-146.28 484.66,-480.22l0 -573.29 -291.08 0 0 582.17c0,144.8 -75.36,212.76 -190.62,212.76 -115.24,0 -190.6,-70.92 -190.6,-220.16l0 -574.77 -291.08 0 0 580.69c0,323.58 184.7,472.82 478.72,472.82zm962.73 -19.21l286.64 0 0 -295.52 141.85 0c257.1,0 444.76,-128.55 444.76,-372.33 0,-232 -168.45,-366.45 -429.97,-366.45l-443.28 0 0 1034.3zm286.64 -520.09l0 -273.38 134.47 0c103.43,0 165.49,47.3 165.49,135.95 0,84.21 -62.06,137.43 -164.01,137.43l-135.95 0z"/>
  </g>
 </g>
</svg>
