<svg xmlns="http://www.w3.org/2000/svg" viewBox="0 0 3450 1523" width="3450" height="1523">
	<style>
		tspan { white-space:pre }
		.shp0 { fill: #005aa5 } 
		.shp1 { fill: #ffdd00 } 
	</style>
	<g id="Layer_x0020_1">
		<g id="_1954518249296">
			<g id="Layer">
				<path id="Layer" fill-rule="evenodd" class="shp0" d="M770.31 932.04L392.78 932.04L326.43 1135.81L56.32 1135.81L435.43 107.48L737.14 107.48L1116.25 1135.81L838.23 1135.81L770.31 932.04ZM1567.96 364.96L1567.96 543.45L1403.68 543.45L1403.68 826.2C1403.68 866.24 1409.73 894.13 1421.85 909.92C1433.94 925.72 1458.97 933.62 1496.88 933.62C1509.52 933.62 1523.19 933.1 1537.95 932.04C1552.69 931 1569.54 929.42 1588.5 927.3L1607.45 1123.17C1529.51 1144.23 1457.36 1154.77 1390.97 1154.77C1315.72 1154.77 1257.42 1136.6 1216.1 1100.27C1174.76 1063.94 1154.1 1002.08 1154.1 914.66L1154.1 543.45L1092.51 543.45L1092.51 364.96L1157.26 364.96L1157.26 184.88L1403.68 94.84L1403.68 364.96L1567.96 364.96ZM1672.99 1135.81L1672.99 91.68L1922.57 0.06L1922.57 1135.81L1672.99 1135.81ZM3362.78 1023.65C3346.45 1054.21 3323.81 1079.74 3294.86 1100.27C3265.88 1120.81 3230.61 1136.35 3189.02 1146.87C3147.41 1157.39 3101.35 1162.67 3050.81 1162.67C2994.98 1162.67 2938.38 1154.77 2881 1138.98C2823.58 1123.17 2769.09 1101.06 2717.5 1072.63L2799.64 902.03C2847.04 926.26 2891.51 944.44 2933.12 956.53C2974.7 968.65 3010.77 974.69 3041.32 974.69C3066.6 974.69 3088.17 970.5 3106.09 962.05C3123.99 953.64 3132.95 939.94 3132.95 920.99C3132.95 899.93 3124.25 884.41 3106.88 874.38C3089.51 864.38 3062.38 853.6 3025.54 842C2974.98 827.27 2932.06 812.25 2896.79 796.99C2861.5 781.73 2833.06 764.6 2811.49 745.65C2789.9 726.69 2774.1 704.85 2764.11 680.09C2754.09 655.36 2749.09 626.66 2749.09 594C2749.09 523.47 2776.47 466.05 2831.24 421.83C2885.98 377.59 2964.44 355.48 3066.6 355.48C3120.31 355.48 3172.16 361.8 3222.2 374.43C3272.2 387.07 3321.95 405.51 3371.47 429.72L3294.07 605.06C3246.68 579.79 3204.27 563.47 3166.9 556.1C3129.51 548.73 3100.29 545.04 3079.24 545.04C3056.06 545.04 3037.63 550.05 3023.95 560.04C3010.25 570.06 3003.42 580.85 3003.42 592.42C3003.42 606.12 3009.98 617.69 3023.16 627.17C3036.31 636.65 3059.74 646.13 3093.45 655.61C3142.94 669.31 3186.11 683.52 3222.99 698.25C3259.83 713.01 3290.36 730.39 3314.6 750.38C3338.81 770.4 3356.98 794.1 3369.1 821.47C3381.19 848.86 3387.26 881.49 3387.26 919.4C3387.26 958.38 3379.09 993.13 3362.78 1023.65ZM2446.9 1064.03L2442.19 1062.46C2425.46 1080.25 2407.14 1094.89 2387.28 1106.38C2367.4 1117.9 2348.06 1126.77 2329.24 1133.05C2310.41 1139.33 2292.62 1143.77 2275.9 1146.39C2259.16 1148.99 2245.04 1150.31 2233.54 1150.31C2195.89 1150.31 2161.38 1145.6 2130 1136.19C2098.62 1126.77 2071.68 1111.87 2049.21 1091.48C2026.7 1071.08 2008.93 1044.95 1995.86 1013.04C1982.78 981.15 1976.25 942.71 1976.25 897.73C1976.25 855.91 1984.1 819.05 1999.79 787.13C2015.47 755.24 2036.89 728.84 2064.11 707.9C2091.3 687 2122.4 671.31 2157.45 660.84C2192.48 650.4 2229.86 645.15 2269.62 645.15C2299.94 645.15 2328.97 646.99 2356.69 650.64C2384.39 654.32 2414.46 662.41 2446.9 674.96L2446.9 638.46C2446.9 571.81 2405.05 538.47 2321.39 538.47C2254.45 538.47 2184.37 553.13 2111.18 582.4L2051.55 407.75C2096.52 387.01 2145.41 371.47 2198.24 361.07C2251.04 350.7 2304.13 345.51 2357.48 345.51C2579.19 345.51 2690.07 440.69 2690.07 631.03L2690.07 1129.91L2446.9 1129.91L2446.9 1064.03ZM2396.69 811.45C2377.87 805.17 2356.42 802.03 2332.37 802.03C2304.13 802.03 2279.82 808.85 2259.42 822.43C2239.04 836.03 2228.83 856.94 2228.83 885.18C2228.83 911.34 2237.98 931.22 2256.29 944.79C2274.57 958.4 2298.37 965.19 2327.67 965.19C2348.57 965.19 2370.02 960.75 2391.99 951.86C2413.95 942.98 2432.24 931.22 2446.9 916.55L2446.9 833.41C2432.24 825.05 2415.52 817.72 2396.69 811.45ZM568.91 391.81C563.11 410.76 556.79 430.78 549.95 451.84C543.09 472.91 536.77 492.66 531 511.07C525.2 529.51 521.76 540.84 520.73 545.03L455.96 737.75L707.12 737.75L639.2 529.24C637.08 525.04 633.67 514.51 628.93 497.65C624.19 480.81 618.67 462.89 612.35 443.94C606.03 424.98 600.23 406.81 594.97 389.44C589.69 372.06 586.54 360.76 585.49 355.48L580.75 355.48C578.63 360.76 574.68 372.86 568.91 391.81Z" />
				<path id="Layer" class="shp1" d="M3445.44 1128.74C3372.89 1489.39 2544.25 1626.91 1594.67 1435.87C645.02 1244.83 -65.96 797.57 6.59 436.93C36.34 289.03 193.22 178.67 433.37 113.09L433.36 113.12C263.31 176.36 143.19 236.42 119.43 354.53C51.11 694.13 716.69 1114.45 1606.01 1293.35C2407.13 1454.52 3116.41 1364.78 3299.18 1097.15C3326.07 1077.17 3347.28 1052.68 3362.79 1023.65C3379.1 993.13 3387.27 958.38 3387.27 919.4C3387.27 906.03 3386.52 893.32 3385.01 881.26C3439.33 965.51 3461.43 1049.23 3445.44 1128.74L3445.44 1128.74Z" />
			</g>
		</g>
	</g>
</svg>