<?xml version="1.0" encoding="UTF-8"?>
<!DOCTYPE svg PUBLIC "-//W3C//DTD SVG 1.1//EN" "http://www.w3.org/Graphics/SVG/1.1/DTD/svg11.dtd">
<!-- Creator: CorelDRAW 2019 (64-Bit) -->
<svg xmlns="http://www.w3.org/2000/svg" xml:space="preserve" width="137.216mm" height="104.143mm" version="1.1" style="shape-rendering:geometricPrecision; text-rendering:geometricPrecision; image-rendering:optimizeQuality; fill-rule:evenodd; clip-rule:evenodd"
viewBox="0 0 13721.6 10414.27"
 xmlns:xlink="http://www.w3.org/1999/xlink"
 xmlns:xodm="http://www.corel.com/coreldraw/odm/2003">
 <defs>
  <style type="text/css">
   <![CDATA[
    .fil2 {fill:#EBB34F}
    .fil3 {fill:#E9B74B}
    .fil0 {fill:#0091D6}
    .fil1 {fill:#0092D7;fill-rule:nonzero}
   ]]>
  </style>
 </defs>
 <g id="Layer_x0020_1">
  <metadata id="CorelCorpID_0Corel-Layer"/>
  <g id="_1660539844816">
   <path class="fil0" d="M13066.61 7628.81c7.15,-16.9 14.62,-33.04 22.3,-48.62 15.14,-36.42 10.11,-27.91 -22.3,48.62zm-1336.28 778.69l0 0c132.46,-312.89 -151.16,-573.19 -177.16,-494.32 -156.45,492.86 -272.22,703.16 -354.83,672.39 -78,-29.01 -2.97,-408.92 71.56,-709.13 121.22,-490.15 265.34,-882.52 313.32,-1007.35 124.23,4.6 229.46,9.13 278.89,12.51 160.94,3.27 758.87,25.22 691.2,-16.07 -116.56,-73.52 -217.61,-107.82 -412.78,-160.8 -64.21,-19.13 -324.53,-61.09 -477.8,-88.32 89.5,-219.94 192.95,-482.45 276.19,-652.82 95.53,-195.54 209.63,-328.27 112.98,-338.97 -442.63,-46.46 -518.66,223.43 -665.37,502.17 -59.63,112.83 -94.07,218.11 -177.37,416.61 -111.31,-13.28 -201.14,-20.85 -245.74,-18.73 -169.02,3.08 -217.46,172.17 -237.33,242.56 -19.81,70.57 74.65,81.47 141.77,82.7 20.2,-0.95 105.47,0.6 218.64,3.51 -64.05,171.19 -103.93,292.7 -103.85,292.68 -34.23,105.28 -68.28,210.6 -102.14,315.97 -1.95,0.18 -297.59,1088.34 -3.51,1275.66 300,192.52 707.09,15.37 853.33,-330.25zm-7293.46 -230.55l0 0c-44.76,-2.15 -114.66,111.91 -190.55,100.19 -159.67,-24.43 -174.94,-575.3 -184.12,-1109.03 -8.78,-470.34 -11.36,-900.39 -374.16,-929.33 -367.52,-28.78 -742.9,256.2 -747.79,613.35 -5.69,347.28 274.89,385.99 298.65,371.55 38.45,-23.71 3.91,-163.14 77.74,-422.15 84.05,-293.62 263.67,-413.06 325.92,-394.89 73.57,21.78 -42.1,754.98 -39.92,754.98 0.27,-0.18 -235.82,64.04 -417.23,257.32 -157.89,167.43 -231.79,456.4 -210.13,702.46 -21.42,113.68 -32.2,260.05 -107.31,273.2 -65.23,11.54 -150.96,-255.62 -254.16,-579.6 -72.29,-226.54 -97.09,-440.76 -96.97,-440.78 -15.97,-0.27 387.11,-1712.53 191.44,-2027.23 -62.14,-92.17 -171.99,-83.52 -248.83,-81.17 -46.94,1.39 -101.03,11.58 -156.9,40.89 -55.84,29.32 -113.46,77.78 -167.01,155.58 -107.04,155.53 -197.95,428.59 -222.68,898.53 -42.3,880.42 240.04,1642.11 236.85,1642.63 -1.55,0.12 -96.46,549.29 -223.8,591.7 -63.27,20.8 -195.99,-266.54 -315.96,-604.7 -132.46,-373.17 -186.34,-700.68 -186.05,-700.74 -21.87,0.62 499.2,-1889.49 -15.54,-1807.35 -132.89,21.59 -238.59,79.89 -320.56,164.6 -82.01,84.73 -140.35,195.88 -179.61,323.75 -78.63,255.81 -80.81,578.23 -49.2,893.72 64.14,630.94 257.27,1235.96 256.38,1236.15 -5.82,0.87 -46.14,1181.34 -217.19,1214.25 -103.02,19.61 -197.82,-195.46 -294.1,-693.49 -101.73,-526.02 -93.99,-936.47 -158.59,-920.37 -126.73,29.1 -588.16,422.22 -401.69,1041.53 6.38,21.69 12.94,42.92 19.67,63.68 6.73,20.77 13.63,41.08 20.69,60.93 14.12,39.72 28.87,77.63 44.15,113.79 30.59,72.3 63.29,137.6 97.4,196.28 68.25,117.36 142.04,208.28 216.25,275.81 148.52,134.97 298.54,176.68 414.35,145.97 221.38,-58.64 310.75,-289.11 356.11,-537.77 44.46,-248.44 68.82,-586.9 69.02,-586.94 0.67,0.73 216.55,524.91 589.36,414.81 231.64,-67.27 311.78,-270.15 362.31,-434.02 27.94,-90.94 44.59,-164.02 44.57,-164.02 0.37,0.49 162.6,440.65 471.23,392.77 180.3,-27.08 276.85,-137.37 330.79,-247.84 38.82,52.94 88.29,92.8 148.92,113.79 327.45,116.37 532.35,-240.38 534.14,-240.75 0.04,0.35 92.47,148.37 351.77,158.16 282.35,11.8 372.84,-287.22 322.34,-290.2zm-3032.7 -2545.68l0 0c132.4,-22.03 -64.62,1098.53 -64.92,1136.41 -4.11,-22.15 -78.55,-1112.92 64.92,-1136.41zm1034.67 1145.77l0 0c0.15,-0.02 -32.77,-235.58 -31.08,-537.78 1.62,-353.06 28.11,-757.1 110.98,-761.27 106.16,-5.1 31.02,622.13 -28.14,1024.87 -23.74,157.11 -51.74,274.17 -51.76,274.18zm1050.62 1498.66l0 0c-35.19,-3.41 -110.14,-60.5 -97.77,-392.8 12.61,-341.3 204.96,-526.5 205.16,-526.23 0,0 -10.5,99.68 -1.19,275.01 9.24,172.9 58.24,410.64 58.17,410.64 -0.43,-0.02 -94.54,239.96 -164.37,233.38zm10218.72 -1053.53l0 0c-72.73,-18.58 -425.4,-35.35 -619.27,358.02 -69,165.94 -556.87,1264.78 -783.75,1116.6 -56.88,-36.57 -5.82,-250.09 224.75,-854.07 215.46,-563.12 378.33,-865.18 298.73,-899.27 -76.98,-34.4 -533.8,-17.38 -747.51,588.39 -302.42,852.26 -393.6,1391.49 -44.8,1502.29 372.2,120.37 737.68,-413.22 739.39,-413.39 0.6,0.33 -90.82,313.39 -335.79,579.02 -448.44,488.51 -1166.16,-105.92 -1234.85,-64.62 -94.47,79.65 -40.28,483.07 234.5,622.18 152.31,77.05 315.58,82.43 467.2,69.45 151.56,-12.99 298.72,-60.67 439.11,-139.15 280.31,-157.03 535.15,-436.98 729.15,-811.83 208.25,-401.47 233.28,-497.08 496.86,-1167.42 26.75,-67.82 51.47,-131.43 72.78,-188.87 10.67,-28.73 20.48,-55.91 29.27,-81.3 8.79,-25.38 16.57,-48.99 23.15,-70.56 26.34,-86.28 33.59,-140.04 11.08,-145.47zm-7173.01 557.38l0 0c-49.36,12.74 -130.73,242.76 -229.42,209.99 -46.34,-15.41 -40.6,-739.96 15.02,-1216.39 46.55,-400.68 110.85,-737.93 58.3,-741.78 -257.81,-20.48 -395.52,109.98 -467.38,278.14 -64.39,150.63 -86.84,434.98 -96.02,558.56 -24.99,336.25 -49.63,935.71 53.4,1188.27 125.99,314.69 328.85,261.62 497.86,147.61 216.89,-146.31 201.93,-432.74 168.24,-424.4zm2867.8 -259.24l0 0c-55.49,440 -177.57,736.76 -326.41,715.59 -198.44,-28.44 -199.06,-448.17 -173.08,-828.68 7.36,-107.77 21.89,-434.1 78.34,-749.83 93.56,-520.49 183.38,-811.33 269.51,-1005.12 93.74,-208.41 223.27,-338.95 342.86,-188.61 114.09,144.4 29.11,952.85 -84.53,1273.13 -35.45,99.78 284.18,19.44 415.65,-136.19 222.67,-259.68 239.5,-859.56 -26.89,-1189.05 -166.21,-206.3 -456.94,-293.94 -787.84,-144.72 -552.67,243.13 -691.5,1143.76 -752.11,1621.05 23.35,-183.85 -109.1,658.16 99.45,1096.78 65.44,137.47 152.29,271.62 304.07,361.47 151.04,89.43 334.93,132.74 590.77,40.42 187.94,-67.82 404.67,-343.65 364.07,-590.05 -65.68,-312.53 -299.07,-393.49 -313.86,-276.19zm-2236.85 -1460.85l0 0c-603.12,116.03 -604.2,1264.23 -501.04,1738.74 79.38,361.65 354.65,540.17 624.02,487.49 133.25,-26.14 306.04,-104.1 406.5,-338.54 99.89,-233.11 -57.96,-498.02 -213.42,-514.72 -67.1,-5.64 -28.35,692.72 -251.09,640.27 -79.49,-18.95 -140.32,-307.93 -127.88,-846.43 11.81,-536.38 144.11,-945.98 244.64,-948.76 136.32,-4.28 146.96,425.7 71.56,828.51 -12.11,65.21 397.37,32.58 450.97,-459.43 22.1,-190.24 -101.74,-696.97 -704.26,-587.13zm3546.68 356.03l0 0c-64.78,-19.3 -320.38,-48.36 -459.01,115.36 -145.49,171.87 -242.81,598.94 -250.17,627.14 -86.12,330.24 -210.77,888.79 -156.19,1149.48 67.89,334.01 295.57,324.98 481.24,243.49 184.63,-81.75 314.1,-346.86 297.69,-369.07 -23.95,-32.07 -88.73,40.33 -149.26,88.34 -122.95,97.58 -173.89,95.3 -204.87,93.83 -49.1,-2.14 108.82,-772.97 247.69,-1231.07 116.52,-385.31 232.45,-706 192.88,-717.5zm-5553.15 615.21l0 0c6.33,200.43 16.51,369.55 27.13,514.72 -17.32,486.86 -120.31,614.42 -272.67,596.13 -115.76,-13.74 -221.52,-447.28 -181.3,-809.55 81.98,-728.42 388.49,-868.49 502.17,-966.68 73.25,-63.26 91.99,-109.66 75.32,-150.65 -18.9,-79.13 -513.49,-114.54 -790.91,213.43 -164.55,192.73 -276.5,541.95 -222.52,1086.8 55,547.44 291.79,855.4 590.76,843.85 113.25,-4.47 217.14,-33.63 339.91,-156.48 -3.45,116.25 -21.81,212.82 -66.89,314.18 -273.35,618.35 -1225.57,251.79 -1197.96,416.19 2.52,511.56 819.16,632.74 1293.12,41.96 201.03,-251.05 372.89,-698.61 366.82,-1223.16 -6.02,-567.19 -3.75,-1176.74 -48.69,-1222.91 -73.6,-75.63 -427.35,87.82 -414.29,502.17z"/>
   <g>
    <g>
     <path class="fil1" d="M6474.52 5643.98c76.87,-88.34 147.78,-247.36 23.69,-347.66 -126.82,-102.5 -550.51,17.31 -517.56,419.28 13.35,162.92 146.79,220.26 263.41,201.82 137.63,-21.75 267.2,-168.5 267.2,-168.5l-169.62 24.09c0,0 56.42,-41.15 132.88,-129.03z"/>
    </g>
   </g>
   <g>
    <g>
     <path class="fil1" d="M10872.66 5922.88c65.3,-88.21 126.21,-227.66 3.99,-311.83 -115.35,-79.85 -497.37,-14.56 -517.31,375.68 -9.88,193.43 155.7,254.77 291.56,224.6 107.13,-23.69 219.81,-135.74 219.81,-135.74l-190.46 19.49c0,0 125.12,-81.09 192.41,-172.2z"/>
    </g>
   </g>
   <g>
    <g>
     <path class="fil2" d="M5939.52 3761.11c-3.26,-23.74 -129.11,-22.43 -129.11,-22.43 0,0 -2.63,-209.86 -5.62,-252.22 -2.98,-42.35 -101.32,-37.53 -129.1,-22.42 -27.78,15.11 -16.84,269.04 -16.84,269.04 0,0 -60.85,-16.96 -101.04,-16.81 -40.18,0.14 -47.09,14.55 -28.07,44.84 19.04,30.28 413.02,23.73 409.78,0zm89.8 -1586.21l0 0c29.01,-12.35 -88.36,-166.5 -140.33,-257.82 -51.97,-91.34 -249.38,-358.34 -263.81,-330.7 -14.45,27.64 128.63,227.59 207.68,347.51 79.05,119.91 167.46,253.36 196.46,241.01zm61.75 420.37l0 0c21.11,9.68 40.67,12.74 44.91,-16.82 4.24,-29.54 -83.89,-188.53 -213.31,-409.15 -129.42,-220.63 -425.15,-478.94 -426.6,-442.8 -1.46,36.15 96.08,124.5 179.62,246.63 83.54,122.12 394.26,612.47 415.38,622.14zm959.86 1967.35l0 0c-52.71,-4.19 -174.88,-7.96 -290.74,-5.33 4.61,-20.44 8.14,-49.34 10.09,-89.96 5.78,-120.78 -30.84,-328.33 -19.27,-379.31 63.84,2.16 187.73,3.46 253.06,-3.41 1.3,56.49 8.54,133.57 13.19,214.57 8.44,146.93 17.68,240.09 44.91,241.01 27.22,0.92 39.92,-43.83 44.9,-112.09 4.98,-68.27 8.33,-343.63 -5.61,-386.75 -5.54,-17.12 -16.01,-30.9 -28.13,-40.19 0.17,-2.72 0.06,-4.65 0.06,-4.65 0,0 -134.19,-294.66 -218.92,-280.24 -84.72,14.41 -211.53,211.65 -202.07,425.97 7.14,161.85 28.9,337.93 48.95,416.99 -0.8,0.03 -1.64,0.06 -2.44,0.1 -109.19,5.03 -199.16,17.3 -198.07,42.52 2.38,55.5 281.9,26.35 415.38,22.42 133.48,-3.93 312.25,26.67 314.34,-5.61 2.1,-32.28 -65.68,-47.01 -179.63,-56.04zm-179.62 -751.07l0 0c0,0 86.31,142.22 138.69,197.22 -2.59,7.45 -4.22,17.56 -5.16,29.78 -9.38,-0.98 -20.06,-1.92 -32.49,-2.8 -65.33,-4.65 -138.96,-16.98 -188.89,-20.21 35.77,-80.9 87.85,-203.99 87.85,-203.99zm1689.59 -207.39l0 0c32.2,6.46 55.96,-21.07 56.13,-61.65 0.18,-40.58 -97.23,-97.08 -196.46,-89.68 -99.23,7.41 -135.9,83.23 -117.88,123.31 18.02,40.08 78.59,-5.6 78.59,-5.6l16.84 0c0,0 11.87,134 11.22,235.4 -0.65,101.41 5.81,334.65 61.75,330.7 55.93,-3.96 39.29,-566.1 39.29,-566.1 0,0 18.32,27.18 50.52,33.62zm-780.24 717.44l0 0c-62.23,13.24 -33.68,61.66 -33.68,61.66 0,0 106.4,1.45 303.12,5.6 196.71,4.15 713.25,36.45 712.88,0 -0.38,-36.45 -90.33,-68.2 -190.85,-84.07 -100.53,-15.88 -729.25,3.58 -791.47,16.81zm-2071.29 -1266.72l0 0c-1.34,41.96 -19.36,99.62 39.29,106.5 58.66,6.87 65.4,-21.47 67.36,-67.27 1.97,-45.78 20.03,-75.12 -28.07,-78.47 -48.09,-3.34 -77.24,-2.72 -78.58,39.24zm2554.03 1076.15l0 0c19.41,-5.59 33.14,-39.12 33.68,-145.73 0.53,-106.6 -5.34,-238.71 -61.75,-241.01 -56.4,-2.3 -65.65,32.97 -78.59,112.1 -12.93,79.12 13.65,251.11 39.3,263.43 25.64,12.33 47.96,16.81 67.36,11.21zm-348.02 -577.31l0 0c0,0 3.64,254.04 5.61,353.11 1.97,99.07 32.67,225.12 67.36,207.39 34.69,-17.74 39.29,-571.71 39.29,-571.71 0,0 77.72,60.76 106.65,28.03 28.93,-32.74 -6.54,-56.28 -44.9,-89.68 -38.36,-33.4 -161.78,-37.42 -224.53,-11.22 -62.75,26.21 -74.98,64.58 -50.52,100.9 24.46,36.31 101.04,-16.82 101.04,-16.82zm-1145.1 -622.15l0 0c18.33,8.18 50.88,-3.38 85.16,7.81 2.75,-1.34 4.65,-2.2 4.65,-2.2 0,0 -0.41,1.48 -0.99,3.6 4.2,1.57 8.41,3.29 12.63,5.67 15.23,8.6 30.42,22.97 44.49,46.78 50.96,86.26 54.74,475.97 -11.23,482.02 -65.96,6.06 -118.9,-75.84 -106.65,-218.6 11.28,-131.41 54.03,-291.28 60.76,-315.87 -1.22,-0.47 -2.45,-1 -3.66,-1.4 -25.38,12.38 -155,83.03 -163.75,238.81 -9.71,172.7 20.98,389.66 196.47,397.95 175.48,8.3 212.31,-259.87 179.61,-459.6 -32.69,-199.75 -223.63,-252.98 -336.79,-246.62 -113.16,6.35 9.97,48.57 39.3,61.65zm3732.8 1647.86l0 0c-24.47,-1.41 -38.11,42.2 -112.26,100.89 -74.15,58.69 -141.45,-12.27 -190.85,-134.52 -49.4,-122.26 -33.92,-240.73 -84.2,-257.83 -45.68,-15.54 -117.53,1.36 -245.98,4.93 -8.4,-53.28 -26.63,-173.46 -40.3,-296.39 -13.94,-125.44 -7.79,-249.37 -15.55,-310.38 53.17,0.63 92.56,-1.29 94.14,-9.1 1.85,-9.21 -19.62,-17.84 -54.09,-25.71 -27.5,-19.81 -76.68,-56.33 -108.69,-86.39 -41.56,-39.01 -102.9,-182.69 -115.44,-212.73 1.08,-1.99 2.28,-4.18 3.17,-5.87 24.78,-46.69 -22.95,-36.58 -50.52,-33.62 -27.56,2.96 -95.02,120.23 -179.62,190.57 -50.05,41.61 -96.22,72.9 -123.11,96.37 -13.88,2.09 -24.29,5.28 -28.45,10.12 -16.02,18.62 -28.71,31.02 28.06,50.45 32.02,10.94 83.52,14.54 139.26,15.83 -9.87,30.05 -12.4,80.23 -10.15,135.5 0.32,7.74 0.75,18.39 1.28,31.23 -38.61,-21.19 -212.32,-99.99 -338.07,-199.38 -130.71,-103.3 -211.9,-245.82 -224.54,-280.25 -8.39,-22.87 -27.77,-32.54 -39.94,-36.55 -0.45,-2.35 -0.94,-4.98 -1.34,-7.01 97.05,-1.09 167.46,-1.64 192.85,-1.28 130.94,1.87 181.6,-11 134.72,-33.62 -10.82,-5.22 -46.41,-10.59 -97.27,-15.78 -18.63,-11.51 -45.88,-30.73 -82.36,-62.69 -75.4,-66.09 -91.74,-124.68 -112.27,-173.76 -20.52,-49.07 5.63,-74.17 -50.52,-67.26 -12.02,1.48 -22.04,4.32 -30.81,8.01 -47.27,-2.91 -120.22,-6.62 -174.31,-5.93 10.57,-45.24 23.43,-84.92 36.73,-108.57 35.14,-62.54 55.65,-66.02 22.45,-117.71 -33.21,-51.68 -182.12,-245.29 -488.36,-235.41 -306.22,9.89 -404.91,187.97 -420.98,207.39 -16.08,19.41 -9.82,42.08 16.84,100.89 15.66,34.58 29.73,89.76 39.06,148.02 -67.17,-4.38 -170.25,-6.52 -185.01,3.31 -15.75,10.48 -0.41,30.48 37.1,40.77 -4.57,18.84 -9.83,45.19 -20.27,82.54 -20.14,72.12 -113.71,133.47 -154.61,157.35 -15.13,-227.18 -34.07,-422.59 -42.82,-504.12 115.89,-0.79 209.59,-4.62 219.89,-17.55 17.41,-21.85 -71.79,-45.09 -230.14,-56.05 -8.48,-0.59 -18.26,-1.21 -28.84,-1.84 -2.8,-98.98 -13.85,-418.51 -42.26,-542.41 139.86,6.22 273.95,6.25 295.62,0.57 47.64,-12.5 4.89,-27.62 -78.58,-89.68 -83.46,-62.06 -257.22,-306.83 -376.09,-633.36 -18.66,-51.27 -36.15,-104.7 -52.66,-158.37 143.37,-3.71 189.51,-14.84 198.61,-37.8 6.6,-16.67 -98.54,-25.46 -218.92,-29.84 -62.58,-213.03 -110.94,-416.72 -157.24,-490.34 43.8,-4.26 80.8,-9.32 95.49,-12.3 46.15,-9.33 17.64,-8.54 16.84,-33.63 -0.6,-19.54 -55.35,-37.26 -132.17,-40.36 11,-43.77 20.05,-130.28 31.14,-267.91 16.87,-209.51 -30.58,-336.26 -84.2,-330.69 -50.89,5.29 -18.42,59.92 -7.26,191.28 -47.27,-15.92 -122.96,-4.21 -189.2,16.1 -72.46,22.22 -102.54,-9.6 -213.3,-22.41 -110.77,-12.82 -105.43,-0.06 -179.63,22.41 -74.2,22.48 -68.11,70.53 -44.91,61.66 23.2,-8.87 96.63,-23.33 145.95,-16.82 49.31,6.51 56.13,33.63 56.13,33.63 0,0 -39.95,8.45 -89.82,28.03 -49.85,19.57 -91.86,57.47 -78.58,84.07 13.29,26.6 35.48,-8.11 106.66,-33.63 71.17,-25.52 114.85,14.78 213.29,39.24 98.46,24.46 152.99,-33.98 213.31,-50.45 29.58,-8.08 52.99,-5.49 69.28,-0.81 5.02,95.02 10.89,194.68 19.33,245.83 -12.34,0.16 -25.04,0.65 -38.09,1.6 -111.47,8.06 -142.98,33.5 -134.72,72.86 3.62,17.25 56.62,21.18 118.91,19.36 -32.4,42.08 -60.65,122.99 -102.07,255.29 -17.49,55.87 -46.4,136.94 -81.28,228.8 -134.51,5.71 -273.08,16.21 -272.35,29.03 0.64,11.36 105.01,22.99 249.47,30.61 -99.34,256.06 -233.44,568.15 -299.99,664.4 -96.73,139.89 -238.93,141.51 -241.38,190.57 -2.06,41.54 183.59,37.96 305.92,34.95 -24.56,108.23 -33.19,403.22 -35.64,515.12 -151.01,0.08 -252.48,-1.91 -275.88,16.03 -29.29,22.45 -34.61,84.89 72.97,95.28 25.05,2.42 82.37,3.04 157.73,2.6 -25.06,142.5 -29,512.21 -29.13,760.89 -61.84,-44.4 -114.18,-98.06 -133.97,-233.81 56.92,-4.75 96.2,-11.12 100.79,-19.63 15.38,-28.46 -24.18,-41.42 -107.38,-44.27 -12.17,-173.94 -5.34,-259.22 -49.79,-264 -45.37,-4.87 -107.04,72.5 -101.04,196.18 1.02,21.11 4.32,43.66 8.66,66.7 -141.57,0.07 -347.2,1.22 -457.72,0.55 -13.45,-0.07 -26.15,-0.24 -38.93,-0.39 11.78,-99.13 15.47,-195.8 7.82,-240.01 168.45,0.56 372.48,1.04 401.59,-0.61 48.53,-2.74 -12.32,-46.39 -106.65,-56.05 -94.34,-9.67 -415.38,-39.24 -415.38,-39.24 0,0 -12.06,-53.54 252.59,-100.88 264.65,-47.33 399.29,104.27 460.29,151.33 61,47.06 134.88,109.53 72.97,-28.02 -61.91,-137.55 -279.33,-231.51 -555.71,-212.99 -276.39,18.51 -379.98,190.85 -381.71,229.8 -1.71,38.96 -0.27,56.48 44.91,56.05 13.73,-0.13 72.81,0.08 149.62,0.35 -5.39,36.58 -17.73,143.17 -31.24,238.93 -80.31,-0.87 -139.16,0.33 -168.89,12.94 -45.02,19.1 -28.21,72 5.6,84.08 15.45,5.51 75.7,2.5 148.64,-2.39 -4.84,27.55 -9.57,50.15 -13.91,64.05 -16.82,53.67 -100.02,104.17 -142.81,127.12 -0.73,-18.42 -1.79,-34.51 -3.24,-47.41 3.1,-8.54 5.36,-16.63 5.72,-23.67 3.8,-75.56 -44.84,-79.83 -84.2,-67.26 -39.37,12.57 -106.82,132.47 -235.76,252.23 -102.86,95.52 -287.7,181.12 -358.43,211.92 -10.64,-54.02 -23.02,-91.68 -32.22,-114.99 75.77,-2.78 109.78,-6.1 126.82,-7.25 27.77,-1.88 53.62,-23.6 39.3,-39.24 -14.32,-15.64 -67.16,-24.08 -218.92,-207.38 -151.75,-183.31 -165.27,-233.78 -202.07,-190.57 -36.81,43.21 18.65,107.42 0,145.73 -18.66,38.3 -178.5,138.76 -263.83,190.56 -85.32,51.82 -109.54,57.74 -101.04,106.5 5.97,34.21 99.95,24.02 233.3,14.3 -4.31,80.8 -8.22,283.53 -25.6,406.07 -14.29,100.7 -49.43,180.57 -69.51,219.9 -63.11,4.51 -106.45,8.79 -132.29,14.59 -11.07,-3.42 -21.05,-5.26 -28.35,-4.69 -34.2,2.71 -63.19,41.25 -67.36,95.29 -4.17,54.05 -102.6,219.63 -202.08,241.01 -99.48,21.38 -177.09,-0.76 -241.37,-112.1 -35.6,-61.67 -47.57,-60.73 -67.35,-56.05 -19.79,4.69 -51.91,168.78 112.26,269.04 128.35,78.39 326.09,44.39 439.07,-38.45 105.49,-14.22 443.94,-57.17 913.72,-90.46 440.08,-31.19 1195.64,-72 1531.5,-90.78 0.33,10.63 0.63,20.51 0.92,29.13 1.24,37.03 4.84,67.06 10.01,91.76 -218.11,13.43 -373.58,31.44 -509.59,48.35 -225.3,28.04 -477.36,55.83 -471.51,89.68 2.99,17.27 74.24,16.87 162.78,10.88 -6.89,14.62 -13.76,35.84 -22.45,67.59 -27.16,99.28 -83.08,192.07 -123.49,212.99 -40.41,20.92 -42.08,51.15 -5.62,61.66 36.47,10.51 170.67,32.49 235.76,-140.13 46.04,-122.08 52.2,-186.24 51.87,-213.45 44.14,-4.06 86.67,-8.07 122.14,-10.75 82.81,-6.24 330.57,-17.5 636.15,-23.37 3.15,0.49 6.29,0.85 9.38,0.96 1.15,0.03 2.27,-0.4 3.38,-1.19 234.55,-4.38 501.85,-5.53 754.4,1.19 69.02,1.83 137.96,4.23 205.96,6.97 4.82,6.76 9.26,10.33 12.96,9.84 2.49,-0.32 6.21,-3.57 10.45,-8.9 256.59,10.65 497.36,26 671.58,35.43 -1.61,22.34 0.89,53.63 11.26,86.43 -101.89,-18.33 -342.45,-27.63 -524.89,-45.7 -228.68,-22.64 -1048.45,-31.04 -1330.34,0 -281.89,31.04 -451.23,49.49 -449.06,84.07 2.17,34.59 832.25,-9.6 1083.36,-5.6 227.36,3.63 1092.19,28.25 1253.7,32.88 19.18,26.5 45.68,50.66 82.25,68.01 141.35,67.08 258.19,86.01 269.44,50.45 11.25,-35.57 -107.04,-18.07 -162.79,-117.71 -36.18,-64.66 -62.45,-114.68 -86.15,-145.91 79.06,2.8 125.26,1.89 125.44,-5.42 0.65,-26.12 -49.68,-45.97 -230.14,-78.47 -111.85,-20.15 -366.68,-52.89 -670.48,-72.95 3.62,-16.56 7.06,-34.27 9.93,-54.55 22.9,-161.36 28.77,-427.43 37.48,-696.43 5.95,-183.77 -2.09,-407.35 -14.45,-614.08 4.22,1.58 8.88,2.79 14.45,3.14 9.25,0.59 52.18,0.48 117.91,-0.1 -17.68,72.16 -50.5,353.32 -16.87,605.43 37.67,282.42 48.89,256.73 89.81,263.44 40.92,6.71 80.17,-182.86 84.2,-392.35 3.47,-180.83 -24.1,-416.6 -31.72,-477.82 264.37,-3.07 685.63,-9.36 971.4,-12.92 -11.84,70.37 -50.47,319.12 -35.95,490.74 17.06,201.67 64.07,342.5 89.82,353.11 25.75,10.61 90.93,-135.36 95.42,-369.92 1.15,-59.94 -1.61,-121.34 -6.31,-179.62 22.56,27.45 50.71,52.91 84.89,73.12 56.78,33.57 122.8,67.22 184.67,96 -21.5,44.59 -39.72,130.53 0.58,279.53 33.35,123.36 61.84,183.17 83.64,213.9 -33.25,-0.6 -63.71,-0.97 -89.26,-0.91 -175.28,0.38 -311.17,44.18 -303.12,72.87 8.06,28.68 174.15,14.27 263.83,16.81 89.68,2.54 870.05,44.84 870.05,44.84 0,0 20.66,97.18 56.13,179.36 17.82,41.28 52.34,83.45 94.07,116.65 -6.95,-1.53 -13.97,-3.06 -21.1,-4.56 -127.23,-26.58 -750.46,-154.81 -1526.79,-168.15 -776.35,-13.32 -952.43,-30.76 -1010.39,-5.6 -57.97,25.17 -52.18,46.15 -28.07,67.26 24.11,21.11 850.23,22.1 1145.1,39.24 274.84,15.96 1383.78,123.5 1573.46,133.86 1.29,0.18 2.59,0.5 3.86,0.66 93.08,11.43 208.09,16.37 269.44,-56.05 61.36,-72.43 30.1,-133.11 5.61,-134.52zm-4193.55 -206.27l0 0c-49.72,-21.05 -149.74,-43.43 -341.95,-57.17 -75.58,-5.39 -161.61,-9.58 -254.05,-12.63 53.78,-15.63 157.17,-278.72 203.53,-278.82 47.54,-0.1 60.39,303.14 140.33,297.06 79.95,-6.08 120.19,-285.17 140.34,-285.85 15.57,-0.52 80.52,149.98 109.36,223.68 0.81,39.18 1.63,77.42 2.44,113.73zm-762.94 -359.83l0 0c31.6,-4.68 102.96,265.92 155.03,289.62 -81.78,-2.59 -168.5,-4.29 -257.52,-5.12 53.74,-14.44 70.13,-279.72 102.49,-284.5zm-112.27 134.51l0 0c0,0 -7.63,-47.43 -28.06,-95.27 -14.47,-33.87 -60.74,-65.84 -99.28,-72.83 51.89,-1.82 106.92,-4.07 161.02,-5.65 12.16,-0.35 25.84,-0.65 40.82,-0.92 -46.89,50.88 -74.5,174.67 -74.5,174.67zm158.84 -175.64l0 0c77.02,-0.58 169.58,-0.66 261.85,-0.8 -74.36,54.05 -134.41,176.44 -134.41,176.44 0,0 -65.6,-125.49 -127.44,-175.64zm388.08 -1.1l0 0c69.62,-0.26 134.31,-0.73 186.27,-1.69 -63.12,31.61 -93.28,172.83 -93.28,172.83 0,0 -30.68,-118.38 -92.99,-171.14zm322.73 127.8l0 0c-11.59,-36.68 -40.17,-110.68 -86.95,-130.69 38.28,-1.22 63.83,-2.92 70.51,-5.32 5.46,-1.97 9.98,-3.91 14.02,-5.81 0.72,45.45 1.54,93.29 2.42,141.82zm-1066.11 -259.32l0 0c5.69,-83.24 9.26,-172.41 9.86,-247.2 37.67,-2.89 175.37,-21.05 220.28,-133.94 15.17,-38.14 28.3,-94.2 38.59,-155.25 57.74,-3.9 114.68,-7.24 157.88,-7.3 68.39,-0.1 230.81,-1.05 369.61,-6.54 30.06,92.59 85.17,190.09 169.25,269.97 47.83,45.44 77.12,64.77 95.1,71.19 0.12,34.72 0.26,64.16 0.33,85.76 0.18,53.04 1.11,131.5 2.48,220.71 -5.15,-0.92 -11.2,-1.7 -19.32,-2.12 -48.86,-2.54 -469.33,-39.74 -667.98,-50.44 -198.64,-10.71 -171.82,-6.63 -269.43,0 -30.79,2.08 -70.85,7.49 -111.2,14.89 1.74,-21.08 3.28,-41.2 4.55,-59.73zm-12.05 142.56l0 0c16.26,-0.33 33.44,-0.83 50.99,-1.38 -3.82,1.21 -7.74,2.28 -10.87,4.54 -14.73,10.62 -35.48,67.95 -54.78,131.57 5.27,-43.49 10.28,-89.76 14.66,-134.73zm-31.33 255.18l0 0c36.25,-73.59 89.56,-176.62 105.12,-179.15 23.4,-3.81 79.13,224.64 134.4,239.58 -82.52,-0.71 -166.88,-0.71 -251.15,0.04 3.74,-15.32 7.66,-36.08 11.63,-60.47zm-266.74 -467.8l0 0c18.19,-8.39 34.18,-16.84 46.3,-25.23 40.23,-27.83 93.31,-73.27 142.16,-122.29 1.55,76.46 3.91,191.13 6.32,303.61 -38.6,12.07 -65.12,25.22 -64.29,37.28 0.75,10.77 25.73,16.14 65.48,18.39 3.32,153.05 6.48,289.1 7.5,301.08 0.49,5.83 1.72,11.1 3.32,15.99 -113.27,1.38 -225.6,4.02 -331.87,7.96 27.59,-56.87 77.13,-172.72 98.4,-309.8 17.68,-113.88 24.25,-186.27 26.68,-226.99zm-341.02 170.94l0 0c-2.13,-22.95 -4.8,-43.71 -7.67,-63.34 52.33,-12.37 160.48,-39.28 254.2,-70.92 -1.49,76.44 -6.29,229.51 -16.38,302.41 -9.56,68.97 -50.67,155.53 -73.81,200.13 -70.84,3.01 -138.83,6.53 -201.58,10.68 21.46,-58.13 60.71,-212.02 45.24,-378.96zm-275.05 -403.55l0 0c30.36,-37.05 44.91,-56.05 44.91,-56.05 0,0 56.68,92.04 89.81,123.3 33.13,31.27 84.2,50.45 84.2,50.45l-364.86 -5.61c0,0 115.59,-75.04 145.94,-112.09zm-22.46 610.93l0 0c45.34,-132.84 40.68,-340.54 32.84,-431.25 5.91,-0.1 11.72,-0.28 17.69,-0.32 50.14,-0.38 92.34,-1.06 128.53,-1.9 -1.84,30.24 -7.72,132.33 -10.65,248.52 -2.95,116.53 -12.8,305.58 -15.88,363.34 -115.25,7.89 -209.93,13.51 -286.04,18.24 42.89,-32.48 96.93,-89.42 133.51,-196.63zm241.38 465.22l0 0c-306.01,31.64 -494.97,59.41 -600.25,84.88 3.86,-5.81 7.8,-11.6 10.86,-17.62 60.16,-118.79 73.49,-189.75 77.41,-227.48 160.16,-10.46 683.31,-43 1135.05,-52.77 469.18,-10.14 1009.82,26.52 1157.08,25.7 0.99,42.29 1.95,80.66 2.84,113.54 -279.67,-3.1 -1342.16,28.17 -1782.99,73.75zm2357.57 -3643.23l0 0c0,0 24.27,86.71 60.68,202 -42.64,-0.4 -81.42,-0.42 -111.21,-0.22 -5.82,0.05 -11.96,0.11 -18.24,0.19 40.55,-117.31 68.77,-201.97 68.77,-201.97zm-572.56 1081.76l0 0c0,0 214.84,-111.7 319.95,-375.52 50.42,-126.52 110.54,-294.02 159.49,-434.19 53.99,1.5 110.03,2.43 166.09,2.6 3.87,0.01 7.3,0 11.09,0.01 50.8,154.93 116.6,336.05 174.14,431.58 113.07,187.69 319.96,375.52 319.96,375.52 0,0 -299.85,-16.31 -418.37,1.81 -27.13,-135.02 -70.98,-280.35 -154.19,-282.06 -109.98,-2.24 -176.26,182.72 -208.55,306.55 -37.9,-9.29 -93.56,-12.57 -145.08,-15.09 -87.2,-4.25 -224.53,-11.21 -224.53,-11.21zm757.79 145.73l0 0c-4.86,-28.87 -10.39,-63.27 -16.98,-99.72 52.99,10.33 137.44,17.98 225.95,23.11 -28.17,77.26 -41.79,233 -40.57,328.83 1.13,89.07 20.63,168.02 43.92,211.44 -56.49,-2.68 -123.03,-5.47 -193.78,-8.13 3.48,-76.14 2.65,-329.51 -18.54,-455.53zm-168.78 -285.93l0 0c2.29,4.24 4.35,9.29 5.99,15.54 6.03,22.94 25.04,132.18 46.14,259.21 -0.43,0 -0.78,-0.03 -1.23,-0.02 -12.52,0.04 -27.82,-0.74 -44.28,-1.83 0.97,-108.27 -0.88,-209.15 -6.62,-272.9zm5.49 349.7l0 0c20.72,-0.49 40.77,-1.53 58.44,-3.4 26.78,163.33 53.73,334.73 59.94,382.42 0.5,3.83 1.14,7.12 1.74,10.52 -46.98,-1.64 -94.97,-3.17 -142.53,-4.56 10.63,-67.11 19.18,-225.99 22.41,-384.98zm-55.63 -97.4l0 0c-0.01,5.12 -0.04,10.63 -0.06,16.34 -25.88,-2.01 -51.46,-3.78 -72.58,-3.99 33.87,-202.53 69.99,-274.43 69.99,-274.43 0,0 3.42,-2.31 8.59,-4.48l-7.26 15.68c0,0 1.74,110.38 1.32,250.88zm-0.59 97.37l0 0c-0.81,130.77 -0.94,310.4 10.47,384.33 -50.22,-1.41 -99.68,-2.64 -146.4,-3.57 10.93,-60.89 23.99,-171.62 46.71,-349.22 1.63,-12.69 3.3,-24.54 4.96,-36.52 23.25,2.47 53.1,4.23 84.26,4.98zm-180.4 379.95l0 0c-65.83,-1.09 -124.62,-1.51 -170.3,-0.98 -1.11,-32.83 -6.69,-84.23 -7.96,-162.46 -1.64,-101.7 -11.96,-275.42 -37.5,-352.93 3.11,-0.06 6.53,-0.14 9.44,-0.18 66.16,-0.96 152.19,5.83 207.74,3.25 -17.9,129.05 -5.76,422.85 -1.42,513.3zm175.38 2039.31l0 0c-156.79,2.41 -291.02,6.86 -408.78,12.61 4.14,-35.32 7.82,-77 11.07,-122.43 18.99,-1.16 30.49,-1.95 32.85,-2.28 20.09,-2.84 47.26,-13.5 -31.18,-21.72 11.61,-174.04 17.48,-391.23 19.96,-499.54 4.23,-185.67 -3.7,-1147.28 -10.03,-1293.68 250.83,-3.84 583.94,-12.89 711.68,-12.28 49.21,0.24 101.83,0.66 153.45,0.85 -20.92,154.26 -30.55,1237.96 -29.96,1557.33 0.32,170.8 16.48,302.89 35.82,391.44 -156.07,-8.33 -321.51,-12.81 -484.88,-10.3zm797.08 -1446.08l0 0c0,0 37.3,-32.37 63.96,-73.66 22.92,-35.47 35.05,-77.54 42.7,-111.31 2.3,-10.18 2.89,-19.12 2.35,-27.13 15.75,1.65 31.09,2.95 44.75,3.66 1.8,19.57 3.12,38.9 3.41,57.1 0.98,59.92 5.42,117.55 8.41,150.66 -97.24,0.32 -165.58,0.68 -165.58,0.68zm701.66 0l0 0c-121.83,-1.32 -311.18,-1.24 -462.5,-0.88 20.5,-53.44 59.95,-168.63 41.5,-301.79 -7,-50.55 -18.17,-88.14 -30.09,-116.06 11.99,-0.34 25.29,-0.93 41.32,-1.64 80.89,-3.59 421.69,-1.24 510.8,11.21 17.34,2.42 31.69,3.88 43.66,4.69 -28.29,32.86 -53.17,81.45 -54.88,152.25 -3.18,131.37 36.37,219.46 66.87,255.95 -58.9,-1.95 -112.86,-3.26 -156.68,-3.73zm-67.36 -470.82l0 0c-102.82,-5.49 -322.68,-16.21 -416.54,-3.21 -12.32,-14.45 -21.3,-19.21 -21.3,-19.21 0,0 141.01,-136.47 364.87,-117.7 223.86,18.78 370.47,145.73 370.47,145.73 0,0 -33.21,10.73 -67.33,41.89 -49.67,-16.66 -139.7,-42.66 -230.17,-47.5zm281.58 476.62l0 0c0.74,-11.27 0.46,-27.5 -0.92,-50.64 -2.45,-41.16 2.38,-97.88 11.54,-153.85 45.86,1.44 105.07,1.45 149.54,-2.1 -0.01,6.75 0.42,13.8 1.7,21.43 8.01,47.68 68.95,152.91 177.51,202.88 -103.67,-7.18 -227.07,-13.43 -339.37,-17.72zm703.71 1039.02l0 0c-10.97,-87.06 -53.01,-317.56 -59.1,-377.83 -2.69,-26.63 -9.77,-57.73 -18.73,-85.02 55.22,23.52 101.35,40.45 125.38,45.78 49.36,10.96 87.14,7.42 97.75,6.06 4.97,119.25 14.91,352.4 18.93,415.65 -56.77,-1.74 -112.66,-3.38 -164.23,-4.64zm199.11 -686.11l0 0c21.43,-12.79 58.28,-64.45 92.58,-118.22 20.1,44.9 71.93,88.11 120.72,129.43 11.58,9.82 22.42,17.76 32.93,24.88 -7.19,-0.83 -14.44,-1.65 -21.7,-2.45 -97.53,-10.74 -183.97,-22.02 -238.79,-26.4 5.46,-2.51 10.44,-4.95 14.26,-7.24zm36.42 692.96l0 0c20.23,-82.69 41.21,-258.73 36.54,-395.89 -3.71,-109.59 -29.88,-178.03 -55.74,-213.21 22.81,0.06 45.49,0.04 66.98,0.22 35.83,0.31 95.08,3.27 155.22,5.76 -5.14,62.66 -18.21,241.03 -9.29,341.75 8.22,92.65 52.52,208.1 89.92,268.74 -73.93,-0.92 -176.84,-4.04 -283.63,-7.37zm-1271.34 -1393.57l0 0c-89.53,-3.73 -187.29,47.47 -179.62,106.49 7.66,59.02 77.03,133.37 112.26,123.31 35.23,-10.06 -16.84,-56.05 -16.84,-56.05 0,0 132.23,7.68 168.4,-44.84 36.17,-52.53 5.32,-125.18 -84.2,-128.91zm-510.81 1328.37l0 0c-6.36,25.31 174.8,24.76 258.21,16.81 83.42,-7.94 675.66,6.8 701.66,-5.6 25.99,-12.4 15.32,-35.77 -22.45,-50.44 -37.77,-14.67 -363.51,-32.77 -533.26,-28.03 -169.76,4.74 -397.8,41.95 -404.16,67.26zm-2206.01 -2129.88l0 0c98.54,83 399.26,349.28 415.39,341.9 16.12,-7.38 -94.21,-142.73 -235.76,-285.85 -141.54,-143.13 -347.18,-269.2 -364.86,-241.02 -17.68,28.19 86.69,101.97 185.23,184.97z"/>
    </g>
   </g>
   <g>
    <g>
     <path class="fil3" d="M4312.51 10414.27l60.13 0 0 -125.04 121.56 0 0 -53.66 -121.56 0 0 -75.71 142.76 0 0 -53.65 -202.89 0 0 308.06zm541.07 -308.06l0 0 -112.04 308.06 62.72 0 18.61 -54.52 109.44 0 18.17 54.52 62.73 0 -112.48 -308.06 -47.15 0zm-13.84 202.92l0 0 38.93 -112.06 37.64 112.06 -76.57 0zm584.74 -36.34l0 0 -80.46 -166.58 -59.27 0 0 308.06 60.14 0 0 -179.56 59.26 116.83 40.66 0 58.84 -116.83 0 179.56 60.12 0 0 -308.06 -59.26 0 -80.03 166.58zm444.57 141.48l0 0 60.13 0 0 -308.06 -60.13 0 0 308.06zm425.58 -308.06l0 0 -60.12 0 0 308.06 199.85 0 0 -53.65 -139.73 0 0 -254.41zm475.76 124.18l0 0 -57.53 -124.18 -65.32 0 92.57 181.72 0 126.34 59.7 0 0 -126.34 92.57 -181.72 -65.31 0 -56.68 124.18zm845.97 -124.18l0 0 -119.4 0 0 308.06 60.13 0 0 -115.96 59.27 0c63.58,0 101.65,-43.7 101.65,-96.05 0,-52.35 -38.07,-96.05 -101.65,-96.05zm-3.04 138.02l0 0 -56.23 0 0 -84.37 56.23 0c27.26,0 44.56,17.3 44.56,42.4 0,25.1 -17.3,41.97 -44.56,41.97zm445.47 -138.02l0 0 -112.04 308.06 62.72 0 18.61 -54.52 109.44 0 18.17 54.52 62.73 0 -112.48 -308.06 -47.15 0zm-13.85 202.92l0 0 38.94 -112.06 37.64 112.06 -76.58 0zm665.65 -108.6l0 0c0,-51.48 -37.21,-94.32 -99.93,-94.32l-120.69 0 0 308.06 60.13 0 0 -122.88 43.26 0 60.12 122.88 69.66 0 -68.79 -132.83c29.85,-10.82 56.24,-37.65 56.24,-80.91zm-103.82 40.67l0 0 -56.67 0 0 -81.34 56.67 0c26.38,0 43.69,16.87 43.69,40.67 0,23.79 -17.31,40.67 -43.69,40.67zm539.32 -12.54l0 0 102.09 -122.45 -73.11 0 -108.58 134.13 0 -134.13 -60.13 0 0 308.06 60.13 0 0 -92.59 39.8 -47.59 79.16 140.18 70.08 0 -109.44 -185.61z"/>
    </g>
   </g>
  </g>
 </g>
</svg>
