<?xml version="1.0" encoding="UTF-8"?>
<!DOCTYPE svg PUBLIC "-//W3C//DTD SVG 1.1//EN" "http://www.w3.org/Graphics/SVG/1.1/DTD/svg11.dtd">
<!-- Creator: CorelDRAW 2019 (64-Bit) -->
<svg xmlns="http://www.w3.org/2000/svg" xml:space="preserve" width="161.063mm" height="35.5539mm" version="1.1" style="shape-rendering:geometricPrecision; text-rendering:geometricPrecision; image-rendering:optimizeQuality; fill-rule:evenodd; clip-rule:evenodd"
viewBox="0 0 16106.3 3555.39"
 xmlns:xlink="http://www.w3.org/1999/xlink"
 xmlns:xodm="http://www.corel.com/coreldraw/odm/2003">
 <defs>
  <style type="text/css">
   <![CDATA[
    .fil0 {fill:#D92E26}
    .fil1 {fill:#2C3F6B}
   ]]>
  </style>
 </defs>
 <g id="Layer_x0020_1">
  <metadata id="CorelCorpID_0Corel-Layer"/>
  <g id="_1660586683952">
   <g>
    <path class="fil0" d="M495.86 2776.7c119.63,0 192.45,-62.42 192.45,-161.25 0,-103.99 -72.82,-159.5 -194.19,-159.5l-157.78 0 0 320.75 159.52 0zm-495.86 -603.34l0 0 520.15 0c306.89,0 504.5,157.78 504.5,429.94 0,286.12 -220.17,436.93 -521.86,436.93l-166.45 0 0 346.77 -336.34 0 0 -1213.64z"/>
    <path class="fil0" d="M2333.45 2173.36l336.34 0 0 1213.64 -336.34 0 0 -1213.64zm-655.38 931.03l0 0c110.96,0 176.88,-50.26 176.88,-145.63 0,-84.98 -65.92,-140.45 -175.14,-140.45l-176.82 0 0 286.08 175.08 0zm-511.48 -931.03l0 0 336.4 0 0 381.44 183.77 0c291.25,0 504.53,138.7 504.53,412.61 0,261.81 -190.73,419.59 -487.22,419.59l-537.48 0 0 -1213.64z"/>
    <polygon class="fil0" points="2884.51,2173.36 3220.85,2173.36 3220.85,2627.63 3652.56,2627.63 3652.56,2173.36 3988.92,2173.36 3988.92,3387 3652.56,3387 3652.56,2925.83 3220.85,2925.83 3220.85,3387 2884.51,3387 "/>
    <path class="fil0" d="M5126.04 2780.18c0,-175.14 -126.59,-327.71 -312.1,-327.71 -183.76,0 -306.87,149.15 -306.87,327.71 0,175.1 126.59,327.69 310.36,327.69 185.5,0 308.61,-149.11 308.61,-327.69zm-964 0l0 0c0,-348.51 280.89,-631.1 655.39,-631.1 374.47,0 651.9,279.13 651.9,631.1 0,348.51 -280.89,631.06 -655.39,631.06 -374.47,0 -651.9,-279.12 -651.9,-631.06z"/>
    <polygon class="fil0" points="5644.19,2173.36 5980.53,2173.36 5980.53,2665.76 6398.36,2173.36 6797.16,2173.36 6337.71,2695.23 6812.77,3387 6408.79,3387 6103.64,2936.24 5980.53,3073.2 5980.53,3387 5644.19,3387 "/>
   </g>
   <g>
    <path class="fil0" d="M9879.7 3139.92c102.29,0 161.26,-39.89 161.26,-114.42 0,-65.92 -52.01,-109.24 -164.71,-109.24l-256.59 0 0 223.66 260.04 0zm-48.49 -459.45l0 0c102.26,0 159.45,-34.65 159.45,-109.26 0,-65.86 -51.97,-104.01 -152.52,-104.01l-218.48 0 0 213.27 211.55 0zm-539.26 -483.69l0 0 622.42 0c152.59,0 260.11,38.13 331.19,109.18 48.51,48.52 77.99,112.72 77.99,199.39 0,140.47 -79.71,223.64 -187.2,270.45 147.37,48.58 240.97,131.79 240.97,299.96 0,208.07 -169.95,334.64 -459.45,334.64l-625.92 0 0 -1213.62z"/>
    <path class="fil0" d="M11453.77 2803.58c0,-175.16 -126.55,-327.71 -312.08,-327.71 -183.78,0 -306.89,149.15 -306.89,327.71 0,175.06 126.57,327.65 310.34,327.65 185.56,0 308.63,-149.11 308.63,-327.65zm-963.98 0l0 0c0,-348.49 280.87,-631.14 655.35,-631.14 374.55,0 651.92,279.17 651.92,631.14 0,348.47 -280.85,631.04 -655.37,631.04 -374.51,0 -651.9,-279.13 -651.9,-631.04z"/>
    <polygon class="fil0" points="11878.32,3165.92 12486.86,2481.09 11899.1,2481.09 11899.1,2196.72 12951.52,2196.72 12951.52,2441.22 12342.97,3126.03 12951.52,3126.03 12951.52,3410.36 11878.32,3410.36 "/>
    <path class="fil0" d="M13996.74 2803.58c0,-175.16 -126.53,-327.71 -312.04,-327.71 -183.82,0 -306.89,149.15 -306.89,327.71 0,175.06 126.55,327.65 310.33,327.65 185.55,0 308.6,-149.11 308.6,-327.65zm-963.98 0l0 0c0,-348.49 280.89,-631.14 655.38,-631.14 374.52,0 651.9,279.17 651.9,631.14 0,348.47 -280.86,631.04 -655.34,631.04 -374.53,0 -651.94,-279.13 -651.94,-631.04z"/>
    <path class="fil0" d="M15073.19 2779.32c114.44,0 180.3,-55.53 180.3,-147.37 0,-95.39 -69.32,-143.95 -182.02,-143.95l-220.18 0 0 291.32 221.9 0zm-558.3 -582.56l0 0 573.89 0c185.55,0 313.82,48.54 395.32,130.02 71.12,71.1 107.49,164.7 107.49,287.81 0,185.51 -98.81,308.6 -249.64,372.73l289.56 423.04 -388.37 0 -244.48 -367.52 -147.37 0 0 367.52 -336.4 0 0 -1213.6z"/>
    <polygon class="fil0" points="15768.22,2196.76 16106.3,2196.76 16106.3,3410.4 15768.22,3410.4 "/>
   </g>
   <g>
    <path class="fil1" d="M8936.7 0l0 1835.91 490.53 0 0 -421.38 264.74 0c502.6,0 785.75,-252.69 785.75,-701.08 0,-457.52 -288.86,-713.45 -806.66,-713.45l-734.36 0zm490.53 999.17l0 0 0 -577.77 240.66 0c213.71,0 334.22,105.29 334.22,292.05 0,183.6 -111.31,285.72 -312.96,285.72l-261.92 0zm1561.97 544.72l0 0 -102.12 292.02 -526.67 0 686.17 -1835.91 668.1 0 683.3 1835.91 -523.82 0 -102.41 -292.02 -782.55 0zm626.23 -445.18l0 0 -183.59 -527c-21.26,-65.96 -39.02,-120.17 -51.36,-168.34 -14.9,48.17 -32.99,102.38 -53.93,168.34l-183.58 527 472.46 0zm2585.51 698.2l0 0 -409.35 -553.93c225.74,-99.25 349.1,-288.85 349.1,-556.81 0,-439.45 -292.02,-686.17 -809.52,-686.17l-761.64 0 0 1835.91 490.53 0 0 -511.75 249.87 0 367.19 511.75 523.82 0 0 -39zm-1140.88 -854.84l0 0 0 -520.67 277.12 0c204.52,0 319,96.1 319,264.77 0,162.67 -114.48,255.9 -319,255.9l-277.12 0zm2037.91 261.94l0 0 454.37 631.9 553.96 0 0 -32.95 -689.36 -984.21 659.22 -785.74 0 -33.01 -529.84 0 -686.17 812.72 0 -812.72 -490.53 0 0 1835.91 490.53 0 0 -349.1 237.82 -282.8z"/>
    <path class="fil0" d="M1691.65 1835.93l493.7 0 -72.32 -1835.89 -547.9 0 -427.1 999.09c-21.26,54.25 -36.16,105.63 -45.36,138.58 -8.85,-32.95 -24.09,-84.33 -45.01,-138.58l-427.45 -999.09 -547.91 0 -72.3 1835.89 493.72 0 24.09 -981.08 0 -72.26 427.41 1053.34 294.89 0 430.63 -1053.34 0 84.36 20.91 968.98zm2212.29 0l0 0 0 -436.3 -887.82 0 0 -255.9 737.53 0 0 -421.42 -737.53 0 0 -276.8 863.73 0 0 -445.47 -1354.28 0 0 1835.89 1378.37 0zm247 -1835.89l0 0 0 1835.89 650.05 0c653.2,0 1050.49,-364.02 1050.49,-915.12 0,-553.6 -382.4,-920.77 -1050.49,-920.77l-650.05 0zm490.55 1405.61l0 0 0 -975.37 159.5 0c382.09,0 553.94,156.64 553.94,490.53 0,331.38 -186.75,484.84 -553.94,484.84l-159.5 0zm1917.4 -1405.61l0 0 -490.86 0 0 1835.89 490.86 0 0 -1835.89zm797.47 1543.85l0 0 782.57 0 102.42 292.04 523.81 0 -683.3 -1835.89 -668.43 0 -686.16 1835.89 526.67 0 102.42 -292.04zm625.92 -445.2l0 0 -472.44 0 183.57 -526.98c21.26,-65.96 39.33,-120.17 54.24,-168.38 12.04,48.21 30.11,102.42 51.02,168.38l183.61 526.98z"/>
   </g>
   <path class="fil0" d="M8093.44 2051.74c415.21,0 751.8,336.59 751.8,751.8 0,415.21 -336.59,751.84 -751.8,751.84 -415.21,0 -751.82,-336.63 -751.82,-751.84 0,-415.21 336.61,-751.8 751.82,-751.8zm375.77 416.17l0 0c-11.35,-12.67 -27.57,-19.87 -44.47,-19.87 -18.02,0 -34.84,7.98 -46.19,21.95l-1.13 1.39c-18.51,22.83 -17.59,55.47 2.24,77.65 62.78,70.1 97.38,160.8 97.38,255.27 0,211.38 -171.97,383.33 -383.33,383.33 -211.4,0 -383.33,-171.95 -383.33,-383.33 0,-94.47 34.55,-185.17 97.32,-255.27 19.85,-22.18 20.8,-54.82 2.25,-77.65l-1.14 -1.39c-11.33,-13.97 -28.16,-21.95 -46.17,-21.95 -16.91,0 -33.12,7.2 -44.47,19.87 -82.94,92.31 -128.61,211.78 -128.61,336.39 0,68.04 13.33,134.06 39.64,196.27 25.38,60.04 61.71,113.92 108.01,160.23 46.27,46.28 100.17,82.61 160.21,108.02 62.19,26.3 128.23,39.61 196.29,39.61 68.02,0 134.03,-13.31 196.23,-39.61 60.03,-25.41 113.96,-61.74 160.22,-108.02 46.3,-46.31 82.63,-100.19 108.02,-160.23 26.3,-62.21 39.64,-128.23 39.64,-196.27 0,-124.61 -45.68,-244.08 -128.61,-336.39zm-376.4 323.39l0 0 1.74 0c32.83,0 59.54,-26.71 59.54,-59.54l0 -428.11c0,-32.81 -26.71,-59.5 -59.54,-59.5l-1.74 0c-32.82,0 -59.54,26.69 -59.54,59.5l0 428.11c0,32.83 26.72,59.54 59.54,59.54z"/>
  </g>
 </g>
</svg>
