<?xml version="1.0" encoding="UTF-8"?>
<!DOCTYPE svg PUBLIC "-//W3C//DTD SVG 1.1//EN" "http://www.w3.org/Graphics/SVG/1.1/DTD/svg11.dtd">
<!-- Creator: CorelDRAW 2019 (64-Bit) -->
<svg xmlns="http://www.w3.org/2000/svg" xml:space="preserve" width="152.075mm" height="62.9373mm" version="1.1" style="shape-rendering:geometricPrecision; text-rendering:geometricPrecision; image-rendering:optimizeQuality; fill-rule:evenodd; clip-rule:evenodd"
viewBox="0 0 15207.5 6293.73"
 xmlns:xlink="http://www.w3.org/1999/xlink"
 xmlns:xodm="http://www.corel.com/coreldraw/odm/2003">
 <defs>
  <style type="text/css">
   <![CDATA[
    .fil1 {fill:#E43024}
    .fil0 {fill:#DD3326}
    .fil2 {fill:#7BBA46}
   ]]>
  </style>
 </defs>
 <g id="Layer_x0020_1">
  <metadata id="CorelCorpID_0Corel-Layer"/>
  <g id="_1660629499824">
   <path class="fil0" d="M12487.77 5496.42c6.14,123.33 36.79,549.29 -141.73,567.65 -80.43,12.27 -154.74,-117.19 -185.4,-222.14 -74.29,-216.05 -135.57,-586.08 -173.12,-999.01 -18.38,-246.68 -42.9,-561.58 -42.9,-876.44 -129.49,36.79 -265.09,74.34 -406.82,123.35 -80.43,30.63 -333.24,135.62 -370.79,6.11 -12.25,-36.74 0,-92.67 43.68,-129.46 123.33,-111.06 412.94,-240.57 740.04,-345.52 12.27,-277.3 43.69,-537.01 98.83,-759.2 86.59,-307.99 252.84,-579.92 622.85,-616.71 179.28,-12.27 401.44,18.41 567.7,123.33 142.49,92.72 271.95,271.2 173.12,444.37 -92.7,166.25 -314.86,55.12 -444.34,12.25 -222.17,-68.18 -327.11,24.49 -376.15,234.43 -24.51,117.19 -43.66,258.92 -62.07,401.42 308.75,-62.05 598.33,-98.81 765.34,-74.29 98.84,18.4 172.39,55.14 178.5,153.95 0,62.07 -18.38,111.13 -61.28,148.66 -86.56,79.64 -246.68,111.08 -351.65,117.19 -197.64,18.38 -383.04,30.68 -567.67,55.2 -30.63,561.51 -18.38,1190.49 -6.14,1634.86zm-6632.91 -1572.84l0 0c74.32,73.58 92.7,283.49 98.83,468.89 86.57,-234.46 289.58,-579.95 672.65,-579.95 666.5,0 610.57,1215.04 826.62,1215.04 117.22,0 252.81,-1012.05 727.81,-919.32 592.19,111.05 488.01,1536.79 987.5,1542.9 98.84,0 178.5,141.73 86.57,228.29 -68.18,73.58 -246.68,111.13 -395.31,85.83 -412.93,-67.42 -487.25,-425.18 -604.44,-770.71 -42.93,-129.44 -80.45,-252.79 -123.35,-339.36 -30.66,-74.31 -74.32,-117.21 -117.22,-117.21 -30.65,0 -62.07,24.52 -98.83,86.54 -98.81,153.98 -197.64,524.06 -339.38,782.96 -197.67,376.95 -481.11,407.55 -660.39,-6.11 -123.33,-271.2 -307.97,-1289.36 -499.5,-1320.03 -197.64,-37.51 -252.81,579.96 -357.76,1091.73 -30.65,154.74 -55.93,278.07 -104.97,389.17 -135.59,339.38 -444.34,345.54 -530.9,18.41 -18.39,-80.45 -30.66,-185.4 -36.77,-314.91 -12.27,-216.02 -6.13,-487.24 12.25,-733.92 12.24,-173.13 24.52,-691 141.73,-808.24 80.45,-80.43 234.43,-86.54 314.86,0zm5441.64 1598.1l0 0c-172.39,-6.12 -246.71,-130.2 -277.34,-290.32 -55.17,-258.98 -18.38,-450.48 -6.13,-802.13 6.13,-135.62 -49.04,-265.06 -179.26,-314.88 -73.56,-24.52 -129.49,-6.11 -172.39,37.52 -129.46,135.63 -153.98,592.22 -191.53,782.96 -42.9,209.94 -166.23,530.91 -419.04,580.73 -383.04,67.42 -364.66,-383.06 -284.21,-629.74 117.22,-363.92 432.08,-697.16 759.18,-832.78 30.65,-12.22 49.04,-37.53 49.04,-62.04 -6.14,-42.91 -42.9,-86.57 -104.97,-111.06 -98.81,-42.9 -216.03,-36.79 -333.24,-6.14 -487.23,141.71 -838.85,660.37 -881.77,1086.34 -37.53,419.04 196.88,962.2 684.89,962.2 283.44,6.16 487.22,-166.21 635.09,-382.26 86.56,246.68 234.43,432.08 487.24,425.18 358.55,0 666.51,-351.65 746.96,-677.99 12.25,-43.69 24.52,-124.14 -30.65,-142.5 -31.42,-12.27 -55.94,0 -74.32,24.52 -98.83,130.2 -209.91,358.52 -407.55,352.39zm2751.85 -1672.42l0 0c-277.34,-135.57 -647.37,18.38 -857.28,209.94 -475,425.94 -592.19,1234.2 -209.91,1764.35 129.48,179.24 320.99,314.83 567.69,333.24 474.98,42.9 826.63,-308.72 937.71,-746.17 12.24,-49.82 18.38,-98.83 6.11,-130.27 -6.11,-24.5 -18.38,-36.77 -42.9,-48.99 -30.63,-6.14 -68.18,0 -92.7,30.6 -129.46,154.77 -370.01,648.15 -765.32,425.97 -135.62,-80.45 -221.42,-265.09 -228.32,-493.38 518.66,-55.94 993.64,-500.28 975.26,-888.65 -6.14,-160.14 -55.91,-345.53 -290.34,-456.64zm-659.64 968.38l0 0c73.56,-12.27 166.26,-49.06 252.82,-91.96 61.3,-37.52 178.52,-111.05 265.08,-203.78 86.57,-92.67 123.35,-197.66 104.95,-265.06 -12.25,-55.91 -49.01,-86.56 -111.08,-92.67 -178.5,-6.16 -333.24,166.23 -406.8,314.07 -55.93,104.95 -92.7,228.3 -104.97,339.4zm1665.52 -1968.15l0 0c123.35,-42.9 179.28,-172.36 141.73,-289.58 -49.03,-129.49 -172.36,-173.12 -295.71,-135.57 -395.31,117.21 -845.79,622.82 -999.77,1005.12 -24.52,74.29 -42.9,136.33 -24.52,160.88 42.9,61.3 123.35,-43.69 185.39,-117.22 295.72,-401.45 542.42,-481.14 992.88,-623.63z"/>
   <path class="fil1" d="M12487.77 5496.42c6.14,123.33 36.79,549.29 -141.73,567.65 -80.43,12.27 -154.74,-117.19 -185.4,-222.14 -74.29,-216.05 -135.57,-586.08 -173.12,-999.01 -18.38,-246.68 -42.9,-561.58 -42.9,-876.44 -129.49,36.79 -265.09,74.34 -406.82,123.35 -80.43,30.63 -333.24,135.62 -370.79,6.11 -12.25,-36.74 0,-92.67 43.68,-129.46 123.33,-111.06 412.94,-240.57 740.04,-345.52 12.27,-277.3 43.69,-537.01 98.83,-759.2 86.59,-307.99 252.84,-579.92 622.85,-616.71 179.28,-12.27 401.44,18.41 567.7,123.33 142.49,92.72 271.95,271.2 173.12,444.37 -92.7,166.25 -314.86,55.12 -444.34,12.25 -222.17,-68.18 -327.11,24.49 -376.15,234.43 -24.51,117.19 -43.66,258.92 -62.07,401.42 308.75,-62.05 598.33,-98.81 765.34,-74.29 98.84,18.4 172.39,55.14 178.5,153.95 0,62.07 -18.38,111.13 -61.28,148.66 -86.56,79.64 -246.68,111.08 -351.65,117.19 -197.64,18.38 -383.04,30.68 -567.67,55.2 -30.63,561.51 -18.38,1190.49 -6.14,1634.86zm-6632.91 -1572.84l0 0c74.32,73.58 92.7,283.49 98.83,468.89 86.57,-234.46 289.58,-579.95 672.65,-579.95 666.5,0 610.57,1215.04 826.62,1215.04 117.22,0 252.81,-1012.05 727.81,-919.32 592.19,111.05 488.01,1536.79 987.5,1542.9 98.84,0 178.5,141.73 86.57,228.29 -68.18,73.58 -246.68,111.13 -395.31,85.83 -412.93,-67.42 -487.25,-425.18 -604.44,-770.71 -42.93,-129.44 -80.45,-252.79 -123.35,-339.36 -30.66,-74.31 -74.32,-117.21 -117.22,-117.21 -30.65,0 -62.07,24.52 -98.83,86.54 -98.81,153.98 -197.64,524.06 -339.38,782.96 -197.67,376.95 -481.11,407.55 -660.39,-6.11 -123.33,-271.2 -307.97,-1289.36 -499.5,-1320.03 -197.64,-37.51 -252.81,579.96 -357.76,1091.73 -30.65,154.74 -55.93,278.07 -104.97,389.17 -135.59,339.38 -444.34,345.54 -530.9,18.41 -18.39,-80.45 -30.66,-185.4 -36.77,-314.91 -12.27,-216.02 -6.13,-487.24 12.25,-733.92 12.24,-173.13 24.52,-691 141.73,-808.24 80.45,-80.43 234.43,-86.54 314.86,0zm5441.64 1598.1l0 0c-172.39,-6.12 -246.71,-130.2 -277.34,-290.32 -55.17,-258.98 -18.38,-450.48 -6.13,-802.13 6.13,-135.62 -49.04,-265.06 -179.26,-314.88 -73.56,-24.52 -129.49,-6.11 -172.39,37.52 -129.46,135.63 -153.98,592.22 -191.53,782.96 -42.9,209.94 -166.23,530.91 -419.04,580.73 -383.04,67.42 -364.66,-383.06 -284.21,-629.74 117.22,-363.92 432.08,-697.16 759.18,-832.78 30.65,-12.22 49.04,-37.53 49.04,-62.04 -6.14,-42.91 -42.9,-86.57 -104.97,-111.06 -98.81,-42.9 -216.03,-36.79 -333.24,-6.14 -487.23,141.71 -838.85,660.37 -881.77,1086.34 -37.53,419.04 196.88,962.2 684.89,962.2 283.44,6.16 487.22,-166.21 635.09,-382.26 86.56,246.68 234.43,432.08 487.24,425.18 358.55,0 666.51,-351.65 746.96,-677.99 12.25,-43.69 24.52,-124.14 -30.65,-142.5 -31.42,-12.27 -55.94,0 -74.32,24.52 -98.83,130.2 -209.91,358.52 -407.55,352.39zm2751.85 -1672.42l0 0c-277.34,-135.57 -647.37,18.38 -857.28,209.94 -475,425.94 -592.19,1234.2 -209.91,1764.35 129.48,179.24 320.99,314.83 567.69,333.24 474.98,42.9 826.63,-308.72 937.71,-746.17 12.24,-49.82 18.38,-98.83 6.11,-130.27 -6.11,-24.5 -18.38,-36.77 -42.9,-48.99 -30.63,-6.14 -68.18,0 -92.7,30.6 -129.46,154.77 -370.01,648.15 -765.32,425.97 -135.62,-80.45 -221.42,-265.09 -228.32,-493.38 518.66,-55.94 993.64,-500.28 975.26,-888.65 -6.14,-160.14 -55.91,-345.53 -290.34,-456.64zm-659.64 968.38l0 0c73.56,-12.27 166.26,-49.06 252.82,-91.96 61.3,-37.52 178.52,-111.05 265.08,-203.78 86.57,-92.67 123.35,-197.66 104.95,-265.06 -12.25,-55.91 -49.01,-86.56 -111.08,-92.67 -178.5,-6.16 -333.24,166.23 -406.8,314.07 -55.93,104.95 -92.7,228.3 -104.97,339.4zm1665.52 -1968.15l0 0c123.35,-42.9 179.28,-172.36 141.73,-289.58 -49.03,-129.49 -172.36,-173.12 -295.71,-135.57 -395.31,117.21 -845.79,622.82 -999.77,1005.12 -24.52,74.29 -42.9,136.33 -24.52,160.88 42.9,61.3 123.35,-43.69 185.39,-117.22 295.72,-401.45 542.42,-481.14 992.88,-623.63z"/>
   <path class="fil2" d="M3300.68 1374.74c80.45,6.92 123.35,401.45 135.59,462.73 30.66,247.44 42.91,481.9 62.07,734.71 73.53,1129.24 221.4,2301.37 851.14,3275.89 135.58,216 314.86,364.65 468.84,419.8 135.6,49.8 234.44,24.52 302.62,-49.03 289.57,-314.86 -203.78,-858.04 -351.65,-1110.83 -561.56,-943.84 -635.86,-2147.42 -734.69,-3220.72 -18.38,-240.57 -42.9,-475.02 -86.56,-709.4 -49.04,-296.53 -184.64,-826.65 -604.46,-660.4 -919.32,363.87 -968.36,3782.25 -1079.44,3782.25 -18.38,6.16 -36.77,-68.18 -55.93,-153.98 -123.36,-666.53 -123.36,-1345.31 -178.5,-2024.06 -30.66,-468.86 -98.84,-2060.83 -722.44,-2115.95 -196.88,-13.06 -363.9,98.02 -511.77,307.96 -320.99,456.59 -586.05,1400.43 -697.16,2313.64 -160.09,1246.45 -104.94,2406.32 24.52,2807.79 74.32,240.52 197.67,406.79 389.2,394.52 85.8,0 172.36,-42.9 234.43,-104.94 222.16,-228.3 190.75,-622.85 147.85,-913.24 -160.12,-1030.37 -265.06,-2485.98 61.28,-3553.93 31.41,-111.1 179.28,-505.65 296.5,-511.74 104.94,-6.14 173.12,413.67 185.4,505.58 147.84,913.21 67.41,2227.84 215.26,3190.06 55.93,321.05 179.26,1080.23 623.61,1061.08 308.74,-12.27 475,-295.71 499.51,-628.98 12.25,-167.01 55.91,-1030.4 148.61,-1844.78 91.94,-858.03 240.57,-1666.27 376.17,-1654.03zm6651.29 -314.1l0 0c-43.66,184.64 73.56,333.25 258.95,333.25 185.4,0 370.03,-148.61 413.69,-333.25 36.77,-185.39 -74.31,-333.24 -259.71,-333.24 -184.63,0 -370.03,147.85 -412.93,333.24zm339.38 2356.55l0 0c-160.88,-598.33 -80.43,-1110.09 -25.28,-1424.95 19.17,-111.11 62.07,-302.61 -24.49,-401.45 -36.79,-42.9 -85.81,-61.31 -147.87,-67.39 -160.12,-12.3 -271.18,104.94 -339.38,240.57 -129.46,252.79 -129.46,622.82 -80.43,894.77 86.57,536.26 376.91,937.71 524.78,956.11 49.01,12.28 92.67,-12.27 111.08,-55.93 24.49,-42.9 0,-98.07 -18.41,-141.73zm-1061.79 -2942.6l0 0c0,79.69 -18.39,166.25 -36.77,246.68 -61.28,295.71 -104.97,573.83 -129.46,851.11 55.91,-6.08 111.08,-6.08 160.12,-6.08 148.6,6.08 320.99,18.38 302.58,222.16 -12.24,74.29 -49.01,153.96 -123.32,185.39 -68.18,30.63 -147.87,18.39 -203.81,12.25 -55.14,-6.13 -104.94,-12.25 -160.11,-18.36 -6.11,357.76 12.27,709.39 61.3,1097.8 25.28,173.17 80.46,389.17 -85.8,500.25 -148.63,104.24 -265.84,-104.94 -314.88,-235.17 -111.08,-307.98 -173.12,-826.62 -197.64,-1344.52 -135.6,18.38 -295.72,55.17 -474.98,111.11 -74.34,24.49 -160.14,30.6 -179.28,-55.94l0 -42.9c13.03,-86.56 111.08,-147.84 185.39,-185.39 117.22,-67.42 284.23,-123.35 468.87,-160.14 0,-573.81 62.04,-1098.56 185.39,-1289.36 153.98,-234.4 536.29,-191.5 542.4,111.11zm-925.46 2584.84l0 0c19.17,-49.06 31.42,-98.84 25.28,-129.49 -6.11,-24.52 -19.14,-42.9 -43.66,-49.04 -30.63,-19.14 -67.42,-13.03 -92.7,18.41 -85.8,79.69 -234.43,277.31 -412.93,370.03 -173.15,86.54 -357.76,30.66 -487.25,-86.56 -111.08,-98.83 -185.39,-289.6 -234.4,-530.15 530.12,-537.04 1277.08,-1696.95 943.81,-2381.82 -98.81,-197.67 -333.24,-296.5 -549.29,-265.06 -949.95,135.57 -1252.59,2455.35 -777.59,3226.8 167.02,277.36 419.83,474.98 771.45,481.14 388.42,6.11 715.55,-290.39 857.28,-654.26zm-1289.35 -795.97l0 0c444.35,-499.49 975.25,-1715.34 623.6,-1906.09 -154.74,-86.56 -327.12,184.64 -376.9,301.85 -184.66,383.04 -271.22,1042.65 -246.7,1604.24zm-795.97 -412.93l0 0c-12.27,228.29 -30.65,443.53 -18.41,678.75 12.27,295.72 62.07,566.94 173.15,869.52 24.52,68.21 42.9,141.71 -43.66,179.26 -79.69,36.79 -172.39,-49.77 -228.3,-98.83 -111.08,-117.19 -203.77,-258.92 -277.33,-407.56 -173.15,290.37 -401.44,494.12 -666.53,494.12 -672.64,0 -802.1,-827.38 -795.97,-1283.95 0,-178.52 24.52,-517.87 141.74,-691.05 154.74,-228.29 407.55,-55.17 462.72,240.57 55.94,308.75 -111.08,821.27 49.8,1110.85 117.22,209.89 345.51,246.68 481.11,-80.45 55.15,-135.57 80.45,-320.21 98.81,-474.97 12.27,-135.63 18.41,-388.42 55.17,-517.88 18.38,-74.34 49.8,-154.77 92.7,-209.94 98.83,-135.57 278.09,-185.39 382.28,-104.97 92.72,74.34 92.72,191.56 92.72,296.53z"/>
   <path class="fil2" d="M3300.68 1374.74c80.45,6.92 123.35,401.45 135.59,462.73 30.66,247.44 42.91,481.9 62.07,734.71 73.53,1129.24 221.4,2301.37 851.14,3275.89 135.58,216 314.86,364.65 468.84,419.8 135.6,49.8 234.44,24.52 302.62,-49.03 289.57,-314.86 -203.78,-858.04 -351.65,-1110.83 -561.56,-943.84 -635.86,-2147.42 -734.69,-3220.72 -18.38,-240.57 -42.9,-475.02 -86.56,-709.4 -49.04,-296.53 -184.64,-826.65 -604.46,-660.4 -919.32,363.87 -968.36,3782.25 -1079.44,3782.25 -18.38,6.16 -36.77,-68.18 -55.93,-153.98 -123.36,-666.53 -123.36,-1345.31 -178.5,-2024.06 -30.66,-468.86 -98.84,-2060.83 -722.44,-2115.95 -196.88,-13.06 -363.9,98.02 -511.77,307.96 -320.99,456.59 -586.05,1400.43 -697.16,2313.64 -160.09,1246.45 -104.94,2406.32 24.52,2807.79 74.32,240.52 197.67,406.79 389.2,394.52 85.8,0 172.36,-42.9 234.43,-104.94 222.16,-228.3 190.75,-622.85 147.85,-913.24 -160.12,-1030.37 -265.06,-2485.98 61.28,-3553.93 31.41,-111.1 179.28,-505.65 296.5,-511.74 104.94,-6.14 173.12,413.67 185.4,505.58 147.84,913.21 67.41,2227.84 215.26,3190.06 55.93,321.05 179.26,1080.23 623.61,1061.08 308.74,-12.27 475,-295.71 499.51,-628.98 12.25,-167.01 55.91,-1030.4 148.61,-1844.78 91.94,-858.03 240.57,-1666.27 376.17,-1654.03zm6651.29 -314.1l0 0c-43.66,184.64 73.56,333.25 258.95,333.25 185.4,0 370.03,-148.61 413.69,-333.25 36.77,-185.39 -74.31,-333.24 -259.71,-333.24 -184.63,0 -370.03,147.85 -412.93,333.24zm339.38 2356.55l0 0c-160.88,-598.33 -80.43,-1110.09 -25.28,-1424.95 19.17,-111.11 62.07,-302.61 -24.49,-401.45 -36.79,-42.9 -85.81,-61.31 -147.87,-67.39 -160.12,-12.3 -271.18,104.94 -339.38,240.57 -129.46,252.79 -129.46,622.82 -80.43,894.77 86.57,536.26 376.91,937.71 524.78,956.11 49.01,12.28 92.67,-12.27 111.08,-55.93 24.49,-42.9 0,-98.07 -18.41,-141.73zm-1061.79 -2942.6l0 0c0,79.69 -18.39,166.25 -36.77,246.68 -61.28,295.71 -104.97,573.83 -129.46,851.11 55.91,-6.08 111.08,-6.08 160.12,-6.08 148.6,6.08 320.99,18.38 302.58,222.16 -12.24,74.29 -49.01,153.96 -123.32,185.39 -68.18,30.63 -147.87,18.39 -203.81,12.25 -55.14,-6.13 -104.94,-12.25 -160.11,-18.36 -6.11,357.76 12.27,709.39 61.3,1097.8 25.28,173.17 80.46,389.17 -85.8,500.25 -148.63,104.24 -265.84,-104.94 -314.88,-235.17 -111.08,-307.98 -173.12,-826.62 -197.64,-1344.52 -135.6,18.38 -295.72,55.17 -474.98,111.11 -74.34,24.49 -160.14,30.6 -179.28,-55.94l0 -42.9c13.03,-86.56 111.08,-147.84 185.39,-185.39 117.22,-67.42 284.23,-123.35 468.87,-160.14 0,-573.81 62.04,-1098.56 185.39,-1289.36 153.98,-234.4 536.29,-191.5 542.4,111.11zm-925.46 2584.84l0 0c19.17,-49.06 31.42,-98.84 25.28,-129.49 -6.11,-24.52 -19.14,-42.9 -43.66,-49.04 -30.63,-19.14 -67.42,-13.03 -92.7,18.41 -85.8,79.69 -234.43,277.31 -412.93,370.03 -173.15,86.54 -357.76,30.66 -487.25,-86.56 -111.08,-98.83 -185.39,-289.6 -234.4,-530.15 530.12,-537.04 1277.08,-1696.95 943.81,-2381.82 -98.81,-197.67 -333.24,-296.5 -549.29,-265.06 -949.95,135.57 -1252.59,2455.35 -777.59,3226.8 167.02,277.36 419.83,474.98 771.45,481.14 388.42,6.11 715.55,-290.39 857.28,-654.26zm-1289.35 -795.97l0 0c444.35,-499.49 975.25,-1715.34 623.6,-1906.09 -154.74,-86.56 -327.12,184.64 -376.9,301.85 -184.66,383.04 -271.22,1042.65 -246.7,1604.24zm-795.97 -412.93l0 0c-12.27,228.29 -30.65,443.53 -18.41,678.75 12.27,295.72 62.07,566.94 173.15,869.52 24.52,68.21 42.9,141.71 -43.66,179.26 -79.69,36.79 -172.39,-49.77 -228.3,-98.83 -111.08,-117.19 -203.77,-258.92 -277.33,-407.56 -173.15,290.37 -401.44,494.12 -666.53,494.12 -672.64,0 -802.1,-827.38 -795.97,-1283.95 0,-178.52 24.52,-517.87 141.74,-691.05 154.74,-228.29 407.55,-55.17 462.72,240.57 55.94,308.75 -111.08,821.27 49.8,1110.85 117.22,209.89 345.51,246.68 481.11,-80.45 55.15,-135.57 80.45,-320.21 98.81,-474.97 12.27,-135.63 18.41,-388.42 55.17,-517.88 18.38,-74.34 49.8,-154.77 92.7,-209.94 98.83,-135.57 278.09,-185.39 382.28,-104.97 92.72,74.34 92.72,191.56 92.72,296.53z"/>
  </g>
 </g>
</svg>
