<?xml version="1.0" encoding="UTF-8"?>
<!DOCTYPE svg PUBLIC "-//W3C//DTD SVG 1.1//EN" "http://www.w3.org/Graphics/SVG/1.1/DTD/svg11.dtd">
<!-- Creator: CorelDRAW 2019 (64-Bit) -->
<svg xmlns="http://www.w3.org/2000/svg" xml:space="preserve" width="163.482mm" height="71.8282mm" version="1.1" style="shape-rendering:geometricPrecision; text-rendering:geometricPrecision; image-rendering:optimizeQuality; fill-rule:evenodd; clip-rule:evenodd"
viewBox="0 0 16348.16 7182.82"
 xmlns:xlink="http://www.w3.org/1999/xlink"
 xmlns:xodm="http://www.corel.com/coreldraw/odm/2003">
 <defs>
  <style type="text/css">
   <![CDATA[
    .fil0 {fill:#D9DADA}
    .fil6 {fill:#FFED00}
    .fil4 {fill:#F9B101}
    .fil5 {fill:#F18818}
    .fil2 {fill:#C91C5B}
    .fil1 {fill:#3F9F3A}
    .fil3 {fill:#0F97B6}
   ]]>
  </style>
 </defs>
 <g id="Layer_x0020_1">
  <metadata id="CorelCorpID_0Corel-Layer"/>
  <g id="_1660632819664">
   <path class="fil0" d="M4464 7170.43l160.16 0 239.82 -348.66 0 348.66 169.91 0 0 -619.46 -160.19 0 -239.82 348.64 0 -348.64 -169.88 0 0 619.46zm679.62 0l0 0 171.67 0 0 -469.01 274.32 0 0 -150.45 -445.99 0 0 619.46zm518.57 0l0 0 171.67 0 0 -176.99 84.95 0c153.96,0 266.36,-77.01 266.36,-223.02 0,-138.91 -100.89,-219.45 -257.53,-219.45l-265.45 0 0 619.46zm171.67 -311.52l0 0 0 -163.71 80.51 0c61.95,0 99.12,28.33 99.12,81.41 0,50.47 -37.17,82.3 -98.21,82.3l-81.42 0zm735.38 323.91l0 0c191.14,0 334.48,-144.28 334.48,-322.12 0,-179.63 -141.58,-322.14 -332.72,-322.14 -191.14,0 -334.51,144.27 -334.51,322.14 0,179.63 141.61,322.12 332.75,322.12zm1.76 -154.88l0 0c-93.81,0 -158.4,-77.89 -158.4,-167.24 0,-91.14 62.83,-167.27 156.64,-167.27 94.69,0 159.28,77.9 159.28,167.27 0,91.14 -62.83,167.24 -157.52,167.24zm422.12 142.49l0 0 319.45 0c147.77,0 234.51,-64.59 234.51,-170.82 0,-85.8 -47.8,-128.28 -123.03,-153.09 54.88,-23.9 95.6,-66.35 95.6,-138.05 0,-44.25 -15.06,-76.96 -39.84,-101.77 -36.29,-36.23 -91.14,-55.73 -169,-55.73l-317.69 0 0 619.46zm167.24 -138.08l0 0 0 -114.16 130.95 0c57.55,0 84.09,22.14 84.09,55.76 0,38.05 -30.09,58.4 -82.3,58.4l-132.74 0zm0 -234.48l0 0 0 -108.84 111.49 0c51.35,0 77.89,19.44 77.89,53.11 0,38.03 -29.21,55.73 -81.42,55.73l-107.96 0zm415.93 372.56l0 0 180.51 0 44.25 -110.6 238.94 0 45.12 110.6 184.07 0 -263.72 -623.86 -165.48 0 -263.69 623.86zm275.2 -244.28l0 0 69.91 -176.08 69.03 176.08 -138.94 0zm449.55 244.28l0 0 198.21 0 124.79 -187.62 75.22 0 0 187.62 171.67 0 0 -619.46 -292.9 0c-140.7,0 -256.65,66.36 -256.65,211.52 0,96.42 50.45,159.25 127.43,192.02l-147.77 215.92zm284.94 -319.45l0 0c-58.4,0 -92.04,-30.97 -92.04,-76.13 0,-50.44 35.41,-77.89 92.92,-77.89l112.4 0 0 154.02 -113.28 0zm878.72 330.93l0 0c152.21,0 246.01,-81.39 246.01,-192.02 0,-77.87 -46,-122.11 -108.84,-143.37 54.88,-25.66 92.93,-67.24 92.93,-140.7 0,-96.42 -93.81,-167.26 -231.86,-167.26 -118.59,0 -199.1,46.03 -259.29,105.31l84.97 100.89c38.93,-35.38 106.17,-61.05 159.28,-61.05 47.78,0 77.87,22.11 77.87,53.97 0,32.74 -25.66,56.64 -87.61,56.64l-62.84 0 0 127.42 64.6 0c68.15,0 99.12,21.26 99.12,54.88 0,35.38 -30.97,61.07 -94.69,61.07 -73.43,0 -130.07,-29.24 -174.32,-73.49l-89.37 114.18c69.03,61.05 142.46,103.53 284.04,103.53zm638.92 0.91l0 0c191.14,0 334.51,-144.28 334.51,-322.12 0,-179.63 -141.6,-322.14 -332.74,-322.14 -191.14,0 -334.49,144.27 -334.49,322.14 0,179.63 141.58,322.12 332.72,322.12zm1.77 -154.88l0 0c-93.79,0 -158.41,-77.89 -158.41,-167.24 0,-91.14 62.84,-167.27 156.64,-167.27 94.69,0 159.29,77.9 159.29,167.27 0,91.14 -62.84,167.24 -157.52,167.24zm422.12 142.49l0 0 171.67 0 0 -235.41 220.35 0 0 235.41 171.68 0 0 -619.46 -171.68 0 0 231.87 -220.35 0 0 -231.87 -171.67 0 0 619.46zm623.86 0l0 0 180.54 0 44.25 -110.6 238.91 0 45.15 110.6 184.04 0 -263.69 -623.86 -165.48 0 -263.72 623.86zm275.23 -244.28l0 0 69.91 -176.08 69.02 176.08 -138.93 0z"/>
   <path class="fil1" d="M12463.19 6597.36c122.97,0 222.65,99.71 222.65,222.65 0,122.94 -99.68,222.65 -222.65,222.65 -122.94,0 -222.62,-99.71 -222.62,-222.65 0,-122.94 99.68,-222.65 222.62,-222.65z"/>
   <path class="fil2" d="M13183.48 6597.36c122.97,0 222.65,99.71 222.65,222.65 0,122.94 -99.68,222.65 -222.65,222.65 -122.94,0 -222.62,-99.71 -222.62,-222.65 0,-122.94 99.68,-222.65 222.62,-222.65z"/>
   <path class="fil3" d="M13903.77 6597.36c122.96,0 222.65,99.71 222.65,222.65 0,122.94 -99.69,222.65 -222.65,222.65 -122.94,0 -222.63,-99.71 -222.63,-222.65 0,-122.94 99.69,-222.65 222.63,-222.65z"/>
   <path class="fil1" d="M3885 6597.36c-122.97,0 -222.65,99.71 -222.65,222.65 0,122.94 99.68,222.65 222.65,222.65 122.94,0 222.65,-99.71 222.65,-222.65 0,-122.94 -99.71,-222.65 -222.65,-222.65z"/>
   <path class="fil2" d="M3164.71 6597.36c-122.97,0 -222.65,99.71 -222.65,222.65 0,122.94 99.68,222.65 222.65,222.65 122.97,0 222.65,-99.71 222.65,-222.65 0,-122.94 -99.68,-222.65 -222.65,-222.65z"/>
   <path class="fil3" d="M2444.42 6597.36c-122.97,0 -222.65,99.71 -222.65,222.65 0,122.94 99.68,222.65 222.65,222.65 122.97,0 222.65,-99.71 222.65,-222.65 0,-122.94 -99.68,-222.65 -222.65,-222.65z"/>
   <path class="fil4" d="M1157.12 2950.23l62.7 -76.61 661.97 13.94 20.91 815.22 -738.61 48.78 -6.97 -801.33zm1958 1038.24l0 0 -69.67 -1665.33 -578.36 -585.33 -2467.09 69.69 20.64 4264.95 1217.95 0 -46.65 -1359.29 1546.91 -97.54 376.27 -627.15z"/>
   <path class="fil4" d="M3562.37 1737.89l13.35 1299.53 1299.42 -266.13 -6.46 -1090.07 -1306.31 56.67zm15.84 1541.8l0 0 1298.35 -265.85 17.97 3058.61 -1333.47 0 40.67 -511.22 -23.52 -2281.54z"/>
   <polygon class="fil4" points="7839.07,2270.93 7372.28,1819.68 7321.62,0 5445.15,792.25 5594.55,2853.86 6574.79,3451.34 5631.88,4067.54 5327.15,6072.45 7258.2,6072.45 7340.31,5019.74 7839.07,4572.07 8337.84,5019.74 8419.93,6072.45 10351.01,6072.45 10046.25,4067.54 9103.34,3451.34 10083.61,2853.86 10232.98,792.25 9321.37,407.38 9275.87,489.44 9252.69,378.36 9208.81,359.88 9046.65,715.19 8967.53,258 8356.51,0 8305.88,1819.68 "/>
   <polygon class="fil5" points="7839.07,4572.07 8337.84,5019.71 8419.93,6072.45 8817.43,6072.45 8594.59,4914.75 7836.3,4108.74 7132.46,4914.75 6855.17,6072.45 7252.67,6072.45 7334.76,5019.71 "/>
   <polygon class="fil4" points="13203.64,4988.39 11848.92,5027.99 11842.35,4433.13 12738.82,4450.17 12751.91,3409.15 11802.61,3416.25 11815.72,2849.67 13059.6,2842.62 13085.8,1716.6 10859.89,1766.17 10611.1,1950.28 10683.46,5576.05 10585.2,6072.45 13166.52,6072.45 "/>
   <path class="fil4" d="M15220.63 1682.21l-1527.39 63.74c0,169.94 -29.08,3773.57 -29.08,3773.57l-100.51 552.93 2750.79 0 33.72 -1268.18 -1303.05 35.39 175.52 -3157.45z"/>
   <polygon class="fil6" points="10174.53,5941.48 9889.72,4067.54 8946.8,3451.34 9927.05,2853.86 10067.96,909.05 9705.92,762.32 9565.01,2707.13 8584.77,3304.58 9527.68,3920.75 9832.41,5925.67 "/>
   <polygon class="fil6" points="5486.91,5941.48 5771.73,4067.54 6714.64,3451.34 5734.39,2853.86 5593.48,909.05 5955.52,762.32 6096.43,2707.13 7076.68,3304.58 6133.76,3920.75 5829.03,5925.67 "/>
   <polygon class="fil6" points="10894.1,1860.93 10773.37,1950.28 10845.74,5576.05 10773.83,5939.13 11010.6,5939.13 11082.51,5576.05 11010.15,1950.28 11130.87,1860.93 "/>
   <path class="fil6" d="M13886.49 1839.49c0,169.94 -35.41,3680.03 -35.41,3680.03l-78.1 429.75 174.47 0 78.11 -429.75c0,0 35.41,-3510.09 35.41,-3680.03l-174.48 0z"/>
   <path class="fil6" d="M4499.78 2812.44l200.89 -41.15 -6.47 -964.59 -194.42 8.41 0 997.33zm0 3094.06l0 0 220.27 0 -17.94 -2763.71 -202.33 41.44 0 2722.27z"/>
   <polygon class="fil6" points="2942.73,3988.44 2873.06,2323.14 2415.98,1860.51 2234.11,1865.66 2686.14,2323.14 2755.81,3988.44 2424.1,4503.14 830.49,4598.58 879.28,5899.82 1066.23,5899.82 1017.44,4630.38 2611.02,4534.95 "/>
   <polygon class="fil6" points="981.44,3768.92 797.41,3780.72 786.56,2962.65 847.63,2879.23 1031.7,2879.23 970.63,2962.46 "/>
  </g>
 </g>
</svg>
