<svg id="plane_way" data-name="plane way" xmlns="http://www.w3.org/2000/svg" width="878" height="231" viewBox="0 0 878 231">
  <defs>
    <style>
      .cls-1 {
        fill: #fff;
      }

      .cls-2 {
        fill: none;
        stroke: #fff;
        stroke-width: 2px;
        stroke-dasharray: 16 12;
        fill-rule: evenodd;
      }
      svg{
      
      }
    </style>
  </defs>
  <circle class="cls-1" cx="7.5" cy="223.5" r="7.5"/>
  <circle id="Ellipse_1_copy" data-name="Ellipse 1 copy" class="cls-1" cx="295.5" cy="149.5" r="7.5"/>
  <circle id="Ellipse_1_copy_2" data-name="Ellipse 1 copy 2" class="cls-1" cx="533.5" cy="7.5" r="7.5"/>
  <circle id="Ellipse_1_copy_3" data-name="Ellipse 1 copy 3" class="cls-1" cx="870.5" cy="20.5" r="7.5"/>
  <path class="cls-2" d="M253,297c69.284-84.52,137.864-133.488,201-123,51.444,8.546,86.722,69.6,144,64,19.631-1.919,41.508-11.756,66-36,32.42-32.092,25.817-59.43,57-89,24.055-22.811,62.264-38.78,99-35,52.667,5.42,74.83,51.079,118,65,51.341,16.556,111.88-2.035,179-48" transform="translate(-246 -74)"/>
</svg>
