<?xml version="1.0" encoding="UTF-8"?>
<!DOCTYPE svg PUBLIC "-//W3C//DTD SVG 1.1//EN" "http://www.w3.org/Graphics/SVG/1.1/DTD/svg11.dtd">
<!-- Creator: CorelDRAW 2019 (64-Bit) -->
<svg xmlns="http://www.w3.org/2000/svg" xml:space="preserve" width="142.875mm" height="74.7355mm" version="1.1" style="shape-rendering:geometricPrecision; text-rendering:geometricPrecision; image-rendering:optimizeQuality; fill-rule:evenodd; clip-rule:evenodd"
viewBox="0 0 14287.5 7473.54"
 xmlns:xlink="http://www.w3.org/1999/xlink"
 xmlns:xodm="http://www.corel.com/coreldraw/odm/2003">
 <defs>
  <style type="text/css">
   <![CDATA[
    .str0 {stroke:#0F4C29;stroke-width:7.62;stroke-miterlimit:22.9256}
    .fil0 {fill:#0F4C29}
    .fil1 {fill:#0E4C29}
    .fil2 {fill:#1A1918}
   ]]>
  </style>
 </defs>
 <g id="Layer_x0020_1">
  <metadata id="CorelCorpID_0Corel-Layer"/>
  <g id="_1660632295248">
   <path class="fil0" d="M2231.56 969.85c172.29,15.36 377.39,52.66 545.58,81.19 172.29,28.52 360.99,65.82 525.07,105.32 348.68,81.19 672.75,177.73 972.21,298.42 139.47,57.05 299.45,127.26 422.51,201.86 365.09,219.43 828.63,552.95 828.63,1068.6 0,230.39 -20.51,408.12 -114.86,607.8 -32.81,76.8 -61.53,122.87 -106.65,188.7 -82.04,120.68 -172.29,234.78 -287.15,322.55 -250.23,195.29 -217.41,190.9 -574.3,370.83 -377.39,190.9 -984.51,346.69 -1439.84,412.51 -164.09,24.14 -373.3,57.05 -566.1,57.05l-205.1 -3714.83zm-410.22 -563.92c-246.12,-4.39 -549.68,-46.08 -877.85,-46.08 -315.86,0 -627.63,0 -943.49,0 8.2,57.05 110.76,528.81 127.17,563.92l311.76 -15.36c520.97,-43.88 898.36,15.36 1382.41,15.36l0 3776.27 -344.57 -15.36 0 642.91 344.57 15.36 0 704.35 676.85 0 -16.4 -454.21c143.57,76.8 287.15,144.82 430.72,228.2l3068.39 1652.26c61.53,-39.5 262.54,-206.26 315.86,-219.42 -12.3,-48.28 -41.02,-54.86 -77.94,-78.99l-1665.46 -1033.49c-61.53,-39.49 -123.06,-76.8 -192.8,-120.68l-984.51 -614.38c-90.25,-54.86 -172.29,-87.77 -188.7,-142.63 221.52,0 861.45,-190.9 1058.35,-258.92 184.6,-63.63 508.66,-212.84 676.85,-313.77 344.58,-204.07 668.65,-438.85 910.67,-765.79 311.76,-412.52 385.6,-651.69 385.6,-1167.33 0,-377.41 -278.94,-800.9 -525.07,-1046.65 -287.15,-289.64 -590.71,-456.4 -947.59,-636.33 -168.19,-85.57 -369.19,-160.18 -557.89,-223.81 -209.21,-70.21 -397.91,-125.07 -619.42,-182.12 -303.56,-76.8 -1025.53,-204.06 -1353.7,-230.39l-32.82 -438.85 -360.99 0 0 405.93z"/>
   <path class="fil0" d="M7613.54 6409.35l676.85 0 0 -1301.18c0,-96.55 262.53,-157.98 422.52,-157.98 57.43,0 77.94,26.33 110.75,48.27l0 1270.46c-4.1,186.51 -69.73,140.43 611.22,140.43l0 -1349.45c159.98,-35.11 123.06,-109.71 410.21,-109.71 82.05,0 94.35,131.65 94.35,219.42l0 1239.74 656.34 0 0 -1505.24c0,-377.41 -619.42,-289.64 -861.44,-219.43 -57.43,15.36 -110.76,41.69 -159.99,61.44 -69.73,26.33 -94.35,48.27 -155.88,78.99 -77.94,-298.41 -726.07,-219.42 -992.71,-83.38 -57.43,30.72 -77.94,54.86 -135.37,68.02l0 -186.51 -676.85 0 0 1786.11z"/>
   <path class="fil0" d="M5980.9 5970.5c0,-157.98 61.53,-236.97 229.72,-320.36 151.78,-72.4 283.05,-100.93 352.78,-133.84 0,109.71 0,219.42 0,329.13 0,98.74 12.31,131.66 -131.27,197.48 -135.37,63.63 -451.23,120.68 -451.23,-72.41zm-578.4 -846.97c0,37.3 8.2,46.08 45.12,46.08l582.51 0c131.26,0 -110.76,-230.4 315.86,-243.56 237.92,-6.58 217.41,111.9 217.41,337.91 -65.63,6.58 -131.27,30.72 -188.7,48.27 -65.63,17.56 -118.96,35.11 -192.8,57.05 -291.25,85.58 -873.75,280.86 -873.75,631.94 0,533.2 787.61,445.43 1115.78,283.06 53.33,-26.33 106.65,-65.83 172.29,-78.99 0,105.32 28.71,127.26 45.12,204.06l660.44 0c-102.55,-208.45 -53.32,-921.58 -61.53,-1255.1 -8.2,-208.45 -98.45,-340.11 -242.02,-416.91 -389.7,-212.84 -1595.73,-160.17 -1595.73,386.19z"/>
   <path class="fil0" d="M11994.61 4983.1l910.67 0c-16.41,61.44 -69.74,94.35 -114.86,136.04l-754.79 798.7c-143.58,173.35 -118.96,-8.78 -118.96,491.51l1661.36 0 0 -362.05 -955.8 0c12.31,-39.5 180.5,-221.62 229.72,-269.89l615.32 -673.63c151.78,-153.59 110.76,-160.18 110.76,-480.54l-1583.42 0 0 359.86z"/>
   <polygon class="fil0" points="10928.05,6409.35 11584.39,6409.35 11584.39,4623.24 10928.05,4623.24 "/>
   <polygon class="fil1 str0" points="10928.05,4276.56 11584.39,4276.56 11584.39,3916.7 10928.05,3916.7 "/>
   <path class="fil2" d="M13344.21 7034.7l-172.29 0 0 -125.07c225.61,0 217.41,-17.55 217.41,79 0,35.1 -8.2,46.07 -45.12,46.07zm-315.87 313.78c0,70.21 143.58,70.21 143.58,0l0 -204.06c90.24,2.19 114.86,39.49 151.78,96.54 36.91,54.86 69.73,98.74 98.45,155.79l143.57 0c-8.2,-96.54 -147.68,-226 -176.39,-267.69 213.31,-48.28 168.19,-329.14 -12.31,-329.14l-348.68 0 0 548.56z"/>
   <path class="fil2" d="M11067.53 7396.74l127.16 0 0 -267.69 217.41 0c0,289.63 -20.51,267.69 94.35,267.69 36.92,0 49.23,-10.97 49.23,-48.27l0 -548.56 -143.58 0 0 219.42 -217.41 0 0 -219.42 -127.16 0 0 596.83z"/>
   <path class="fil2" d="M10472.72 7396.74l123.06 0c0,-122.87 -24.61,-230.39 110.76,-267.69 24.61,85.57 118.96,186.51 143.57,267.69l155.88 0c-20.51,-76.8 -172.29,-289.64 -221.51,-362.05 53.33,-76.79 180.49,-144.81 205.11,-234.78l-172.29 0c-12.31,48.27 -135.37,166.76 -184.6,210.65 -24.61,21.94 0,10.97 -36.92,24.13l0 -234.78 -123.06 0 0 596.83z"/>
   <path class="fil2" d="M11883.85 6940.35c0,96.55 32.82,133.85 114.86,168.96 49.22,21.94 164.08,54.85 213.31,68.02 0,122.88 -20.51,109.71 -139.47,109.71 -65.64,0 -73.84,-65.83 -94.35,-109.71 -45.13,10.97 -49.23,15.36 -110.76,15.36 0,274.28 352.78,221.62 422.52,153.6 106.65,-103.13 77.94,-252.34 -77.94,-309.39 -151.78,-54.86 -201,-2.2 -201,-127.27 90.24,-21.94 164.08,-41.69 188.69,63.64l123.07 0c0,-276.48 -438.93,-223.82 -438.93,-32.92z"/>
   <path class="fil2" d="M12667.36 6957.91c32.81,32.91 69.73,147.01 82.04,186.51l-143.58 0c20.51,-43.89 49.23,-136.05 61.54,-186.51zm-278.95 438.84l123.06 0c16.41,-35.11 45.13,-96.54 49.23,-142.62l233.82 0c12.31,54.85 32.82,81.18 45.12,142.62l143.58 0 -233.82 -596.83 -143.58 0 -110.75 296.22c-24.62,59.25 -102.56,236.98 -106.66,300.61z"/>
   <path class="fil2" d="M10111.73 6957.91c0,2.19 4.1,4.38 4.1,8.77 0,6.59 4.11,8.78 4.11,10.97l69.73 166.77 -143.57 0c16.41,-70.22 49.22,-125.08 65.63,-186.51zm-283.05 438.84l123.07 0c16.41,-61.44 36.92,-87.77 49.22,-142.62l233.82 0c4.11,46.08 32.82,107.51 49.23,142.62l123.06 0c-4.1,-76.8 -77.94,-234.78 -106.65,-300.61 -36.92,-89.96 -90.25,-204.06 -110.76,-296.22l-143.57 0c-24.62,50.47 -32.82,87.77 -57.43,147.02 -32.82,89.96 -159.99,373.01 -159.99,449.81z"/>
   <path class="fil2" d="M9184.65 7238.76l16.41 -109.71c127.16,0 123.06,10.97 123.06,109.71 0,85.57 -139.47,85.57 -139.47,0zm0 -280.86c0,-57.05 127.17,-125.07 127.17,15.36 0,76.79 -127.17,54.85 -127.17,-15.36zm-110.76 -48.28c0,136.05 12.31,96.55 61.53,173.35 -143.57,37.3 -77.94,313.77 82.05,313.77 98.45,0 233.82,2.2 233.82,-188.7 0,-78.99 -45.12,-92.16 -77.94,-140.43 20.51,-32.92 61.53,-63.63 61.53,-109.71 0,-241.37 -360.99,-190.9 -360.99,-48.28z"/>
   <path class="fil2" d="M8384.74 7082.98c-118.97,28.52 -127.17,21.94 -127.17,-125.07 0,-125.07 205.11,-54.86 127.17,125.07zm-250.23 -109.71c0,179.92 110.75,267.69 266.63,186.51 0,70.21 -16.4,142.62 -82.04,142.62 -102.55,0 45.13,-63.63 -172.29,-63.63 8.21,226 393.81,247.95 393.81,-140.43 0,-136.05 -53.33,-265.5 -155.88,-300.61 -123.07,-39.5 -250.23,54.85 -250.23,175.54z"/>
   <path class="fil0" d="M13627.25 4276.56c0,-377.41 578.4,-425.68 578.4,17.55 0,353.27 -578.4,355.47 -578.4,-17.55zm-61.53 -46.08l0 78.99c0,175.54 192.8,340.11 369.19,324.75 319.97,-26.33 463.54,-388.38 254.33,-618.78 -201,-221.61 -623.52,-85.57 -623.52,215.04z"/>
   <path class="fil2" d="M8602.15 6973.27c65.63,4.38 36.92,15.36 94.35,15.36 57.43,0 0,-94.36 110.75,-94.36 65.64,0 69.74,76.8 45.13,122.88 -49.23,109.71 -258.44,184.32 -262.54,379.6 451.24,0 406.11,32.92 406.11,-109.71l-221.51 0c32.81,-109.71 315.86,-239.17 184.59,-421.29 -90.24,-127.27 -348.68,-109.71 -356.88,107.52z"/>
   <path class="fil2" d="M7707.88 6940.35l0 109.71c53.33,-10.97 98.46,-37.3 143.58,-61.43 0,425.68 -41.02,408.12 123.06,408.12l0 -612.19c-139.47,0 -61.53,-13.16 -151.78,83.38 -45.12,46.08 -61.53,46.08 -114.86,72.41z"/>
   <path class="fil0" d="M13926.71 4245.84l-94.35 0 0 -109.71 94.35 0c41.02,0 45.12,21.94 61.53,48.27 -8.2,35.11 -16.41,61.44 -61.53,61.44zm-176.39 -125.07l0 344.49 82.04 0 0 -155.79c201,0 53.33,155.79 250.23,155.79 -20.51,-81.19 -69.74,-114.1 -110.76,-171.15 143.58,-35.11 127.17,-219.42 -61.53,-219.42 -114.86,0 -159.98,-15.36 -159.98,46.08z"/>
   <polygon class="fil2" points="11666.44,7396.74 11789.5,7396.74 11789.5,6799.92 11666.44,6799.92 "/>
   <path class="fil2" d="M11666.44 6753.84c123.06,0 123.06,10.97 123.06,-78.99 0,-59.24 -36.92,-46.08 -123.06,-46.08l0 125.07z"/>
  </g>
 </g>
</svg>
