<?xml version="1.0" encoding="UTF-8"?>
<!DOCTYPE svg PUBLIC "-//W3C//DTD SVG 1.1//EN" "http://www.w3.org/Graphics/SVG/1.1/DTD/svg11.dtd">
<!-- Creator: CorelDRAW 2019 (64-Bit) -->
<svg xmlns="http://www.w3.org/2000/svg" xml:space="preserve" width="90.828mm" height="98.8454mm" version="1.1" style="shape-rendering:geometricPrecision; text-rendering:geometricPrecision; image-rendering:optimizeQuality; fill-rule:evenodd; clip-rule:evenodd"
viewBox="0 0 9082.8 9884.54"
 xmlns:xlink="http://www.w3.org/1999/xlink"
 xmlns:xodm="http://www.corel.com/coreldraw/odm/2003">
 <defs>
  <style type="text/css">
   <![CDATA[
    .fil0 {fill:#00A09D}
    .fil1 {fill:#00A09D;fill-rule:nonzero}
   ]]>
  </style>
 </defs>
 <g id="Layer_x0020_1">
  <metadata id="CorelCorpID_0Corel-Layer"/>
  <g id="_1660627365088">
   <path class="fil0" d="M5647.27 3159.74c0,67.59 -54.59,122.42 -121.93,122.42 -67.38,0 -121.97,-54.83 -121.97,-122.42 0,-67.63 54.59,-122.46 121.97,-122.46 67.34,0 121.93,54.83 121.93,122.46zm-26.17 1991.42c0,0 348.35,-100.68 496.89,-216.08 -259.79,452.22 -618.57,839.92 -1046.61,1133.27l-421.35 -342.26c386.51,-76.67 726.11,-284.31 971.07,-574.93zm-363.19 -2523.02c-305.21,0 -454.23,158.64 -589.91,399.67 -434.6,771.8 -996.83,1517.74 -1693.66,2075.41 -582.4,466.1 -999.25,588.77 -999.25,588.77l513.91 262.33 588.03 -559.67 115.42 135.51c366.35,-206.35 828.91,-500.17 1195.24,-706.52 15.39,0.26 33.02,3.39 54.62,9.98 -315.31,244.83 -619.01,475.78 -934.28,720.66 240.81,130.39 516.38,204.34 809.15,204.34 37.06,0 73.82,-1.17 110.27,-3.5l494.69 409.97c-391.07,239.38 -833.39,402.7 -1306.55,469.57l-139.04 188.76c719.34,-68.49 1377.29,-348.49 1911.45,-777.4 0,0 362.15,42.82 492.82,-91.7 0,0 -24.99,-116.53 -189.42,-175.83 776.41,-421.88 1401.25,-428.71 1401.25,-428.71l-117.58 -157.42c-479.07,45.18 -1052.44,324.82 -1052.44,324.82 826.55,-1006.48 1047.81,-2383.54 591.34,-3593.51 57.54,-120.21 155.07,-377.2 62.8,-490.46 -53.79,-1.2 -203.29,82.34 -224.41,124.75 -338.23,-663.63 -873.91,-1208.98 -1529.26,-1557.96l101.95 255.31c420.64,258.02 782.66,604.7 1059.39,1014.19 -246.28,-199.99 -538.94,-344.66 -859.25,-415.15l33.07 173.68c407.8,96.88 769.16,314.3 1044.73,612.68 473.36,932.49 500.15,2046.43 63.58,3005.01 -225.03,184.69 -470.32,255.64 -470.32,255.64 267.95,-465.5 301.48,-1040.03 89.81,-1533.63 8.24,-0.07 210.11,-3.26 325.31,-158.44 -126.3,-136.2 -356.61,-163.47 -356.61,-163.47 -92.09,-250.95 -330.53,-417.68 -596.85,-417.68z"/>
   <path class="fil0" d="M2873.63 9857.03c0,9.49 8.54,18.02 18.01,18.02l36.95 0c10.44,0 18.02,-8.53 18.02,-18.02l0 -287.14 384.77 0 0 287.14c0,9.49 7.58,18.02 18,18.02l36.98 0c9.47,0 18,-8.53 18,-18.02l0 -627.36c0,-9.49 -8.53,-18.02 -18,-18.02l-36.98 0c-10.42,0 -18,8.53 -18,18.02l0 276.73 -384.77 0 0 -276.73c0,-9.49 -7.58,-18.02 -18.02,-18.02l-36.95 0c-9.47,0 -18.01,8.53 -18.01,18.02l0 627.36zm939.41 -312.73c0,-150.67 123.2,-275.77 273.88,-275.77 150.69,0 274.84,125.1 274.84,275.77 0,150.67 -124.15,273.91 -274.84,273.91 -150.68,0 -273.88,-123.24 -273.88,-273.91zm-66.35 0c0,189.54 150.68,340.24 340.23,340.24 189.54,0 341.17,-150.7 341.17,-340.24 0,-189.54 -151.63,-342.11 -341.17,-342.11 -189.55,0 -340.23,152.57 -340.23,342.11zm976.36 308.02c-2.87,13.27 2.84,22.73 17.04,22.73l37.92 0c7.57,0 16.11,-6.62 17.06,-13.27l82.45 -488.05c0.95,0 2.84,0 3.79,0l176.27 500.39c1.89,5.67 10.42,10.42 16.1,10.42l17.08 0c5.68,0 14.19,-4.75 16.1,-10.42l174.37 -500.39c0.96,0 2.86,0 3.8,0l84.34 488.05c1.91,6.65 9.49,13.27 17.07,13.27l37.91 0c14.22,0 19.91,-9.46 17.06,-22.73l-122.26 -636.87c-1.89,-7.58 -9.49,-13.26 -17.07,-13.26l-15.15 0c-6.65,0 -14.22,4.73 -16.11,10.42l-184.8 522.18c-1.91,0 -2.85,0 -4.75,0l-187.64 -522.18c-1.9,-5.69 -9.48,-10.42 -16.11,-10.42l-15.16 0c-7.58,0 -15.18,5.68 -17.07,13.26l-122.24 636.87zm1061.62 4.71c0,9.49 7.6,18.02 18.02,18.02l373.4 0c10.42,0 18,-8.53 18,-18.02l0 -27.46c0,-9.49 -7.58,-18.01 -18,-18.01l-318.44 0 0 -241.67 272 0c9.48,0 18,-7.58 18,-18l0 -27.5c0,-9.46 -8.52,-17.99 -18,-17.99l-272 0 0 -231.25 318.44 0c10.42,0 18,-8.53 18,-18.02l0 -27.46c0,-9.49 -7.58,-18.02 -18,-18.02l-373.4 0c-10.42,0 -18.02,8.53 -18.02,18.02l0 627.36z"/>
   <g>
    <path class="fil1" d="M14.04 8551.58c-15.38,-15.48 -18.12,-32.08 -8.23,-49.76l59.35 -102.83c6.59,-11.05 15.92,-17.4 28.01,-19.07 12.09,-1.65 21.43,0.82 28.03,7.46l8.25 4.98c5.49,4.42 11.8,8.84 18.95,13.27 7.14,4.42 16.21,9.94 27.19,16.58 10.99,6.63 21.98,13 32.98,19.07 10.99,6.09 23.62,12.16 37.92,18.25 14.28,6.09 28.01,11.33 41.19,15.76 13.2,4.42 26.93,8.02 41.21,10.77 14.3,2.77 28.03,4.16 41.21,4.16 42.87,0 78.59,-12.44 107.16,-37.32 28.56,-24.88 42.87,-55.01 42.87,-90.39 0,-40.92 -17.04,-77.11 -51.12,-108.63 -34.06,-31.51 -86.8,-61.64 -158.24,-90.38 -92.31,-37.61 -167.04,-84.6 -224.19,-140.97 -57.14,-56.4 -85.72,-128.81 -85.72,-217.27 0,-84.03 31.6,-158.11 94.79,-222.25 63.18,-64.11 155.23,-96.19 276.11,-96.19 121.98,0 231.87,37.04 329.68,111.13 7.7,4.42 12.64,12.72 14.84,24.88 2.19,12.16 0.56,22.11 -4.94,29.84l-62.64 94.55c-17.58,26.53 -36.82,33.16 -57.7,19.89 -96.7,-60.81 -173.09,-91.22 -229.13,-91.22 -43.96,0 -79.12,12.16 -105.49,36.5 -26.39,24.32 -39.58,50.85 -39.58,79.61 0,38.69 15.39,72.41 46.17,101.15 30.76,28.75 80.22,56.94 148.35,84.6 47.26,18.79 88.19,37.86 122.81,57.2 34.62,19.35 70.34,43.67 107.15,72.98 36.8,29.3 65.11,64.67 84.89,106.14 19.77,41.46 29.68,87.63 29.68,138.49 0,89.56 -35.18,166.68 -105.51,231.36 -70.32,64.68 -161.54,97.02 -273.64,97.02 -62.63,0 -122.26,-9.39 -178.85,-28.2 -56.6,-18.8 -96.99,-36.2 -121.16,-52.24 -24.17,-16.04 -45.05,-32.34 -62.65,-48.92z"/>
    <path class="fil1" d="M1131.89 8648.5l0 -1129.27c0,-9.1 3.1,-16.77 9.33,-23.03 6.22,-6.25 13.85,-9.39 22.89,-9.39l690.07 0c9.04,0 16.66,3.14 22.89,9.39 6.2,6.26 9.33,13.93 9.33,23.03l0 139.89c0,9.09 -3.13,16.76 -9.33,23.03 -6.23,6.24 -13.85,9.38 -22.89,9.38l-501.88 0 0 279.76 418.79 0c9.06,0 16.68,3.41 22.89,10.23 6.22,6.82 9.32,14.21 9.32,22.16l0 141.59c0,9.1 -3.1,16.78 -9.32,23.03 -6.21,6.26 -13.83,9.38 -22.89,9.38l-418.79 0 0 298.53 501.88 0c9.04,0 16.66,3.12 22.89,9.39 6.2,6.24 9.33,13.93 9.33,23.03l0 139.87c0,9.09 -3.13,16.78 -9.33,23.02 -6.23,6.27 -13.85,9.39 -22.89,9.39l-690.07 0c-9.04,0 -16.67,-3.12 -22.89,-9.39 -6.23,-6.24 -9.33,-13.93 -9.33,-23.02z"/>
    <path class="fil1" d="M2283.44 8632.81l0 -1116.13c0,-7.76 3.02,-14.65 9.07,-20.74 6.05,-6.07 13.47,-9.13 22.26,-9.13l41.21 0 685.73 733.05 1.66 0 0 -684.95c0,-8.84 3.01,-16.3 9.07,-22.39 6.03,-6.07 13.46,-9.12 22.25,-9.12l151.64 0c7.71,0 14.84,3.31 21.44,9.96 6.59,6.63 9.88,13.81 9.88,21.55l0 1116.15c0,7.74 -3.01,14.65 -9.06,20.73 -6.04,6.08 -13.45,9.12 -22.26,9.12l-39.55 0 -689.05 -761.24 -1.64 0 0 713.14c0,8.85 -3.01,16.32 -9.07,22.39 -6.03,6.09 -13.46,9.13 -22.25,9.13l-150 0c-8.79,0 -16.21,-3.32 -22.26,-9.95 -6.05,-6.63 -9.07,-13.83 -9.07,-21.57z"/>
    <path class="fil1" d="M3813.52 8507.6c-114.82,-115.54 -172.25,-256.23 -172.25,-422.08 0,-165.85 57.43,-307.08 172.25,-423.73 114.85,-116.65 254.68,-174.98 419.53,-174.98 164.84,0 304.96,58.33 420.34,174.98 115.4,116.65 173.09,257.88 173.09,423.73 0,165.85 -57.69,306.54 -173.09,422.08 -115.38,115.55 -255.5,173.31 -420.34,173.31 -164.85,0 -304.68,-57.76 -419.53,-173.31zm153.32 -692.4c-74.19,75.18 -111.27,165.29 -111.27,270.32 0,105.03 37.08,194.59 111.27,268.67 74.17,74.08 162.91,111.13 266.21,111.13 104.39,0 193.69,-37.33 267.86,-111.95 74.19,-74.63 111.27,-163.92 111.27,-267.85 0,-105.03 -37.36,-195.14 -112.09,-270.32 -74.73,-75.19 -163.75,-112.77 -267.04,-112.77 -103.3,0 -192.04,37.58 -266.21,112.77z"/>
    <path class="fil1" d="M5197.73 8648.5l0 -1129.27c0,-9.1 3.1,-16.77 9.32,-23.03 6.23,-6.25 13.85,-9.39 22.89,-9.39l484.92 0c101.73,0 188.77,35.83 261.11,107.48 72.35,71.65 108.51,158.08 108.51,259.29 0,77.34 -22.89,146.42 -68.67,207.26 -45.78,60.84 -106.53,106.61 -182.27,137.31l232.29 433.29c6.78,11.37 7.06,22.45 0.86,33.26 -6.23,10.81 -16.11,16.21 -29.67,16.21l-178.04 0c-12.43,0 -21.48,-5.13 -27.13,-15.36l-225.5 -452.04 -188.21 0 0 434.99c0,7.96 -3.11,15.35 -9.31,22.18 -6.23,6.82 -13.85,10.23 -22.89,10.23l-156 0c-9.04,0 -16.66,-3.12 -22.89,-9.39 -6.22,-6.24 -9.32,-13.93 -9.32,-23.02zm222.11 -617.51l276.36 0c45.23,0 84.51,-17.07 117.84,-51.18 33.35,-34.11 50.03,-75.06 50.03,-122.82 0,-45.5 -16.68,-84.44 -50.03,-116.86 -33.33,-32.41 -72.61,-48.6 -117.84,-48.6l-276.36 0 0 339.46z"/>
    <path class="fil1" d="M6485.36 8648.5l0 -1129.27c0,-7.96 3.11,-15.34 9.33,-22.16 6.22,-6.84 13.85,-10.26 22.89,-10.26l157.68 0c7.91,0 15.26,3.42 22.04,10.26 6.78,6.82 10.18,14.2 10.18,22.16l0 1129.27c0,7.96 -3.4,15.35 -10.18,22.18 -6.78,6.82 -14.13,10.23 -22.04,10.23l-157.68 0c-9.04,0 -16.67,-3.41 -22.89,-10.23 -6.22,-6.83 -9.33,-14.22 -9.33,-22.18z"/>
    <path class="fil1" d="M7339.72 8648.5l0 -956.97 -259.41 0c-9.06,0 -16.69,-3.14 -22.89,-9.38 -6.23,-6.27 -9.33,-13.94 -9.33,-23.03l0 -139.89c0,-9.1 3.1,-16.77 9.33,-23.03 6.2,-6.25 13.83,-9.39 22.89,-9.39l740.93 0c9.04,0 16.67,3.14 22.89,9.39 6.21,6.26 9.33,13.93 9.33,23.03l0 139.89c0,9.09 -3.12,16.76 -9.33,23.03 -6.22,6.24 -13.85,9.38 -22.89,9.38l-259.41 0 0 956.97c0,7.96 -3.39,15.35 -10.17,22.18 -6.78,6.82 -14.14,10.23 -22.05,10.23l-157.68 0c-9.04,0 -16.68,-3.41 -22.89,-10.23 -6.22,-6.83 -9.32,-14.22 -9.32,-22.18z"/>
    <path class="fil1" d="M7998.95 8680.92c-12.26,0 -21.45,-4.49 -27.59,-13.45 -6.12,-8.97 -6.4,-19.06 -0.83,-30.27l519.88 -1131.87c5.57,-12.33 15.05,-18.51 28.42,-18.51l16.71 0c13.37,0 22.85,6.18 28.42,18.51l514.85 1131.87c5.58,11.21 5.31,21.3 -0.83,30.27 -6.12,8.96 -15.31,13.45 -27.57,13.45l-145.43 0c-21.19,0 -37.33,-11.21 -48.48,-33.63l-81.92 -181.64 -499.82 0 -81.9 181.64c-8.91,22.42 -25.08,33.63 -48.48,33.63l-145.43 0zm357.73 -401.96l336 0 -167.17 -370 -5.02 0 -163.81 370z"/>
   </g>
  </g>
 </g>
</svg>
