<?xml version="1.0" encoding="UTF-8"?>
<!DOCTYPE svg PUBLIC "-//W3C//DTD SVG 1.1//EN" "http://www.w3.org/Graphics/SVG/1.1/DTD/svg11.dtd">
<!-- Creator: CorelDRAW 2019 (64-Bit) -->
<svg xmlns="http://www.w3.org/2000/svg" xml:space="preserve" width="56.7722mm" height="87.1733mm" version="1.1" style="shape-rendering:geometricPrecision; text-rendering:geometricPrecision; image-rendering:optimizeQuality; fill-rule:evenodd; clip-rule:evenodd"
viewBox="0 0 5023.57 7713.66"
 xmlns:xlink="http://www.w3.org/1999/xlink"
 xmlns:xodm="http://www.corel.com/coreldraw/odm/2003">
 <defs>
  <style type="text/css">
   <![CDATA[
    .fil3 {fill:#737372}
    .fil0 {fill:#D7B56D}
    .fil2 {fill:#125FA9}
    .fil1 {fill:#173967}
   ]]>
  </style>
 </defs>
 <g id="Layer_x0020_1">
  <metadata id="CorelCorpID_0Corel-Layer"/>
  <g id="_1660626268256">
   <g>
    <path class="fil0" d="M-0 5826.65l1862.45 0 44.13 57.92 -1906.57 0 0 -57.92zm2101.23 0l0 0 1347.65 0c24.62,24.14 51.72,43.28 80.88,57.92l-1428.53 0 0 -57.92zm1853.08 0l0 0 1069.26 0 0 57.92 -1134.83 0c16.38,-7.46 32.39,-16.09 47.96,-25.97l17.61 -11.18 0 -20.78z"/>
    <path class="fil0" d="M228.83 5214.75l-120.19 0c-20.03,0 -36.37,15.43 -36.37,34.39l0 46.81 -39.65 0 0 -110.06 482.7 0 0 110.06 -39.65 0 0 -46.81c0,-18.95 -16.33,-34.39 -36.37,-34.39l-120.19 0 0 545.04 46.64 0 0 28.86 -183.57 0 0 -28.86 46.65 0 0 -545.04z"/>
    <path class="fil0" d="M1243.68 5558.43l0 201.37 46.64 0 0 28.86 -183.57 0 0 -28.86 46.65 0 0 -371.56c0,-18.93 -16.34,-34.37 -36.39,-34.37l-10.26 0 0 -28.86 183.57 0 0 28.86 -10.26 0c-20.04,0 -36.38,15.44 -36.38,34.37l0 143.27 178.19 0 0 -143.27c0,-18.93 -16.34,-34.37 -36.39,-34.37l-10.26 0 0 -28.86 183.56 0 0 28.86 -10.26 0c-20.03,0 -36.38,15.44 -36.38,34.37l0 371.56 46.63 0 0 28.86 -183.56 0 0 -28.86 46.64 0 0 -201.37 -178.19 0z"/>
    <path class="fil0" d="M2342.66 5788.66l-329.45 0 0 -28.86 46.63 0 0 -371.56c0,-18.93 -16.33,-34.37 -36.37,-34.37l-10.26 0 0 -28.86 316.89 0 -0.01 72.93 -30.63 0 0 -9.71c0,-18.93 -16.33,-34.37 -36.38,-34.37l-112.94 0 0 177.64 106.42 0 0 -44.07 30.49 0 0 115.06 -30.49 0 0 -44.07 -106.42 0 0 201.37 149.34 0 0 -44.07 43.04 0 0.15 72.93z"/>
    <path class="fil0" d="M2686.31 5788.66l-235.58 -345.13 0 316.27 46.64 0 0 28.86 -135.72 0 0 -28.86 46.63 0 0 -371.56c0,-18.93 -16.34,-34.37 -36.38,-34.37l-10.26 0 0 -28.86 108.02 0 238.17 349.94 0 -286.71c0,-18.93 -16.34,-34.37 -36.39,-34.37l-10.25 0 0 -28.86 135.72 0 0 28.86 -10.26 0c-20.04,0 -36.39,15.44 -36.39,34.37l0 400.43 -63.98 0z"/>
    <path class="fil0" d="M2972.56 5353.86l-89.73 0c-20.03,0 -36.39,15.45 -36.39,34.37l0 9.71 -30.55 0 0 -72.93 403.6 0 0 72.93 -30.55 0 0 -9.71c0,-18.93 -16.35,-34.37 -36.39,-34.37l-89.73 0 0 405.93 46.65 0 0 28.86 -183.57 0 0 -28.86 46.64 0 0 -405.93z"/>
    <path class="fil0" d="M4742.9 5588.14l-116.8 -201.52c-12.01,-20.73 -33.49,-32.74 -58.51,-32.74l-7.11 0 0 -28.86 194.19 0 0 28.86 -15.95 0c-6.6,0 -12.26,3.04 -15.64,8.42 -3.35,5.35 -3.45,11.5 -0.29,17.01l97.73 168.54 97.76 -168.54c3.18,-5.5 3.06,-11.65 -0.3,-17.01 -3.36,-5.39 -9.03,-8.42 -15.64,-8.42l-15.73 0 0 -28.86 129.08 0 0 28.86 -7.13 0c-24.99,0 -46.46,12.01 -58.49,32.7l-116.88 201.55 0 171.65 46.64 0 0 28.86 -183.56 0 0 -28.86 46.64 0 0 -171.65zm-826.52 238.42l0 0c-60.91,38.67 -131.77,58.01 -212.72,58.01 -103.33,0 -184.74,-34.01 -244.26,-102.01 -59.51,-68.15 -89.34,-161.15 -89.34,-278.97 0,-119.49 28.59,-212.33 85.91,-278.65 57.2,-66.16 137.38,-99.33 240.69,-99.33 52.68,0 121.84,11.98 207.6,36l0 138.99 -30.55 0 0 -7.16c0,-132.23 -242.49,-197.53 -344.08,-41 -40.56,62.51 -60.75,145.99 -60.75,250.49 0,104.81 23.78,186.66 71.47,245.48 47.53,58.84 113.75,88.17 198.73,88.17 55.48,0 114.52,-18.99 177.3,-56.99l0 46.98zm155.9 -66.76l0 0 46.64 0 0 28.86 -183.57 0 0 -28.86 46.65 0 0 -371.56c0,-18.92 -16.34,-34.35 -36.39,-34.35l-10.26 0 0 -28.86 183.57 0 0 28.86 -10.26 0c-20.02,0 -36.38,15.43 -36.38,34.35l0 371.56zm222.28 -405.91l0 0 -89.73 0c-20.03,0 -36.39,15.43 -36.39,34.35l0 9.69 -30.53 0 0 -72.9 403.58 0 0 72.9 -30.54 0 0 -9.69c0,-18.92 -16.34,-34.35 -36.39,-34.35l-89.73 0 0 405.91 46.64 0 0 28.86 -183.56 0 0 -28.86 46.64 0 0 -405.91z"/>
    <path class="fil0" d="M797.57 5782.88l0 -96.83 12.04 0 3.54 7.58c12.04,25.8 39.8,45.03 49.36,52.49 19.78,15.49 43.14,23.31 70.27,23.31 25.68,0 46.38,-7.6 62.39,-22.87 15.88,-15.18 23.9,-35.16 23.9,-59.85 0,-19.35 -4.67,-35.07 -14.02,-46.93 -9.34,-11.64 -27.24,-24.69 -53.93,-38.79l-32.24 -17.01c-80.38,-42.75 -120.64,-89.34 -120.64,-139.57 0,-77.28 60.32,-130.94 159.79,-130.94 37.8,0 81.06,6.85 129.76,20.53l0 93.63 -30.55 0 0 -5.54c0,-49.59 -44.03,-78.88 -85.52,-78.88 -45.58,0 -74.79,24.07 -79.58,55.35 -4.8,31.25 15.02,69.51 66.89,98.53 43.9,24.57 100.15,53.47 130.1,88.3 17.34,20.62 26.01,45.84 26.01,75.44 0,42.45 -16.45,76.23 -49.37,101.45 -32.92,25.32 -77.05,37.93 -132.65,37.93 -39.36,0 -84.5,-5.76 -135.54,-17.32z"/>
    <path class="fil0" d="M467.78 5759.8l46.64 0 0 28.86 -129.69 0 0 -28.86 46.64 0 189.62 -434.79 31.16 0 157.47 361.04 -5.75 34.14 -4.46 37.3 46.91 31.17 -143.37 0 0 -28.86 46.65 0 -50.31 -115.34 -181.18 0 -50.31 115.34zm219.76 -142.28l0 0 -78.84 -180.82 -78.86 180.82 157.7 0z"/>
    <path class="fil0" d="M1711.08 5565.5l0 194.3 46.66 0 0 28.86 -179.98 0 0 -28.86 46.64 0 0 -371.56c0,-18.93 -16.33,-34.37 -36.39,-34.37l-10.26 0 0 -28.86 179.98 0 0 28.86 -10.27 0c-20.03,0 -36.39,15.44 -36.39,34.37l0 150.66 159.21 -155.91c5.17,-5.07 6.56,-12.16 3.65,-18.66 -2.92,-6.47 -9.3,-10.45 -16.76,-10.45l-3.81 0 0 -28.86 140.86 0 0 28.86 -0.27 0c-30.76,0 -57.23,10.62 -78.57,31.55l-134.56 131.86 235.8 309.37 46.64 0 0 57.47 -109.01 0.45 -243.2 -319.07z"/>
    <path class="fil1" d="M1851.19 3504.22l92.01 -88.75 0 1627.24 -92.26 0 0.25 -1538.49zm-136.4 131.57l0 0 92.25 -88.97 0 1495.89 -92.25 0 0 -1406.92zm364.55 -351.65l0 0 0 1758.57 -92.26 0 0 -1669.49 92.26 -89.08zm136.13 -131.31l0 0 0 1067.75 -38.23 22.05 0 800.09 -54.02 0 0 -1800.75 92.25 -89.13zm136.14 -131.33l0 0 0 1120.57 -38.23 22.04 0 878.6 -53.99 0 0 -1932.08 92.22 -89.14zm136.18 -131.37l0 0 0 1173.42 -38.25 22.04 0 957.12 -54 0 0 -2063.34 92.26 -89.25zm684.61 614.13l0 0 -92.01 -88.73 0 1627.21 92.26 0 -0.25 -1538.49zm136.4 131.6l0 0 -92.25 -88.99 0 1495.88 92.25 0 0 -1406.89zm-364.55 -351.66l0 0 0 1758.55 92.26 0 0 -1669.5 -92.26 -89.05zm-136.13 -131.32l0 0 0 1067.76 38.23 22.03 0 800.09 54.02 0 0 -1800.75 -92.25 -89.12zm-136.14 -131.31l0 0 0 1120.55 38.23 22.05 0 878.59 53.99 0 0 -1932.07 -92.22 -89.12zm-136.18 -131.38l0 0 0 1173.42 38.25 22.04 0 957.1 54 0 0 -2063.33 -92.26 -89.24z"/>
    <path class="fil0" d="M2487.76 1647.28l-38.23 52.57 0 -1626.44 38.23 -73.41 0 1647.28zm-136.15 187.19l0 0 -38.24 52.6 0 -1552.37 38.24 -73.4 0 1573.17zm-136.15 187.2l0 0 -38.23 52.56 0 -1478.28 38.23 -73.36 0 1499.08zm-136.12 187.16l0 0 -38.23 52.6 0 -1404.24 38.23 -73.34 0.01 1424.98zm456.46 -561.55l0 0 38.24 52.57 0 -1626.44 -38.24 -73.41 0 1647.28zm136.15 187.19l0 0 38.24 52.6 0 -1552.37 -38.24 -73.4 0 1573.17zm136.15 187.2l0 0 38.23 52.56 0 -1478.28 -38.23 -73.36 0 1499.08zm136.11 187.16l0 0 38.24 52.6 0 -1404.24 -38.23 -73.34 -0.02 1424.98z"/>
    <path class="fil2" d="M3142.74 3475.67l0 -993.88 -62.36 -85.69 0 1019.43 62.36 60.14zm-136.15 -131.32l0 0 0 -1049.74 -62.34 -85.73 0 1075.31 62.34 60.15zm-136.14 -131.35l0 0 0 -1105.58 -62.33 -85.71 0 1131.16 62.33 60.13zm-136.15 -131.33l0 0 0 -1161.43 -62.31 -85.71 0 1187.03 62.31 60.11zm-136.14 -131.34l0 0 0 -1217.27 -62.36 -85.77 0 1242.9 62.36 60.14zm-717.31 525.29l0 0 0 -993.88 62.35 -85.69 0 1019.43 -62.35 60.14zm136.15 -131.33l0 0 0 -1049.72 62.34 -85.73 0 1075.31 -62.34 60.14zm136.14 -131.33l0 0 0 -1105.59 62.33 -85.7 0 1131.16 -62.33 60.13zm136.15 -131.32l0 0 0 -1161.44 62.31 -85.72 0 1187.02 -62.31 60.14zm136.14 -131.33l0 0 0 -1217.3 62.36 -85.77 0 1242.9 -62.36 60.17z"/>
   </g>
   <path class="fil3" d="M113.78 6334.69l0 1378.96 379.61 0 0 -426.09 237.9 0c267.65,0 468.83,-145.24 468.83,-462.88 0,-402.84 -271.15,-489.99 -544.04,-489.99l-542.3 0zm379.61 338.93l0 0 176.68 0c111.96,0 164.44,48.4 164.44,147.2 0,112.32 -64.73,145.27 -157.45,145.27l-183.67 0 0 -292.47zm1412.24 -338.93l0 0 458.32 1378.96 -386.61 0 -61.22 -195.61 -400.6 0 -61.22 195.61 -386.61 0 460.08 -1378.96 377.86 0zm-73.47 887.04l0 0c-22.75,-79.41 -66.48,-236.29 -66.48,-236.29 -26.25,-94.9 -29.74,-118.16 -47.23,-209.16 -21,94.89 -27.99,125.87 -52.48,211.08 0,0 -26.24,94.9 -68.22,234.37l234.42 0zm586.55 -887.04l0 0 0 1378.96 377.85 0 0 -486.12 160.95 0c178.43,0 201.18,120.08 211.67,278.89l5.25 77.47c3.5,42.61 7,91.03 22.74,129.76l377.85 0c-24.49,-40.67 -28,-100.71 -31.5,-149.13l-12.25 -145.24c-10.49,-122.02 -55.98,-306.01 -181.93,-340.88 111.96,-56.18 183.69,-187.87 183.69,-336.99 0,-319.58 -250.15,-406.73 -444.33,-406.73l-669.99 0zm377.85 319.57l0 0 188.94 0c117.2,0 176.68,46.48 176.68,139.44 0,108.46 -68.21,143.32 -155.69,143.32l-209.93 0 0 -282.76zm2096.23 -319.57l0 0 -472.31 0 -355.11 489.99c3.49,-120.08 5.25,-79.42 5.25,-211.12l1.74 -278.87 -377.85 0 0 1378.96 376.11 0 0 -406.72 111.95 -129.77 304.38 536.48 477.57 0 -523.05 -842.48 451.33 -536.48z"/>
  </g>
 </g>
</svg>
